<svg width="326" height="332" viewBox="0 0 326 332" fill="none" xmlns="http://www.w3.org/2000/svg">
<path d="M311.481 11.9926H6.7314V11.9816C5.0696 11.9816 3.47586 12.6418 2.30079 13.8168C1.12572 14.9919 0.465576 16.5857 0.465576 18.2475V325.5C0.465576 329.5 0.465576 331.221 7.49998 331.221C14.5344 331.221 311.481 331 311.481 331V11.9926Z" fill="black" fill-opacity="0.28"/>
<path d="M16.1632 1H319.077C320.681 1 322.219 1.63698 323.352 2.77082C324.486 3.90466 325.123 5.44248 325.123 7.04597V321.568H10.1172V7.04597C10.1172 5.44248 10.7542 3.90466 11.888 2.77082C13.0219 1.63698 14.5597 1 16.1632 1Z" fill="#323232" stroke="#263238" stroke-miterlimit="10"/>
<path d="M16.1632 1H85.6259C87.2294 1 88.7672 1.63698 89.901 2.77082C91.0349 3.90466 91.6718 5.44248 91.6718 7.04597V321.568H10.1172V7.04597C10.1172 5.44248 10.7542 3.90466 11.888 2.77082C13.0219 1.63698 14.5597 1 16.1632 1Z" fill="#4D4D4D"/>
<path d="M16.1632 1H319.077C320.681 1 322.219 1.63698 323.352 2.77082C324.486 3.90466 325.123 5.44248 325.123 7.04597V35.7918H10.1172V7.04597C10.1172 5.44248 10.7542 3.90466 11.888 2.77082C13.0219 1.63698 14.5597 1 16.1632 1V1Z" fill="#0C99FF" fill-opacity="0.54"/>
<path d="M16.1632 1H319.077C320.681 1 322.219 1.63698 323.352 2.77082C324.486 3.90466 325.123 5.44248 325.123 7.04597V23.447H10.1172V7.04597C10.1172 5.44248 10.7542 3.90466 11.888 2.77082C13.0219 1.63698 14.5597 1 16.1632 1V1Z" fill="url(#paint0_linear_3_331)"/>
<path d="M282.779 12.9051C282.779 11.9571 282.498 11.0305 281.972 10.2423C281.445 9.45414 280.696 8.83983 279.821 8.47708C278.945 8.11432 277.981 8.01941 277.051 8.20434C276.122 8.38927 275.268 8.84574 274.597 9.51603C273.927 10.1863 273.471 11.0403 273.286 11.97C273.101 12.8997 273.196 13.8634 273.558 14.7392C273.921 15.6149 274.536 16.3635 275.324 16.8901C276.112 17.4168 277.039 17.6979 277.986 17.6979C279.257 17.695 280.474 17.1891 281.372 16.2909C282.27 15.3927 282.776 14.1753 282.779 12.9051Z" fill="#00F627"/>
<path d="M301.159 12.9051C301.159 11.9571 300.878 11.0305 300.351 10.2423C299.825 9.45414 299.076 8.83983 298.2 8.47708C297.325 8.11432 296.361 8.01941 295.431 8.20434C294.501 8.38927 293.647 8.84574 292.977 9.51603C292.307 10.1863 291.85 11.0403 291.665 11.97C291.481 12.8997 291.575 13.8634 291.938 14.7392C292.301 15.6149 292.915 16.3635 293.703 16.8901C294.492 17.4168 295.418 17.6979 296.366 17.6979C297.636 17.695 298.854 17.1891 299.752 16.2909C300.65 15.3927 301.156 14.1753 301.159 12.9051V12.9051Z" fill="#FFE600"/>
<path d="M319.55 12.9051C319.552 11.9545 319.272 11.0247 318.746 10.2332C318.219 9.4418 317.47 8.82438 316.592 8.4591C315.714 8.09383 314.748 7.99713 313.816 8.18124C312.883 8.36535 312.026 8.822 311.353 9.49338C310.68 10.1648 310.222 11.0207 310.035 11.9528C309.849 12.885 309.944 13.8514 310.307 14.7299C310.67 15.6083 311.286 16.3592 312.076 16.8875C312.866 17.4158 313.795 17.6979 314.746 17.6979C316.018 17.6979 317.238 17.1933 318.139 16.2948C319.039 15.3962 319.547 14.1772 319.55 12.9051V12.9051Z" fill="#FF4D77"/>
<path d="M115.614 35.0444V27.5583" stroke="#263238" stroke-miterlimit="10"/>
<path d="M162.003 35.0444V27.5583" stroke="#263238" stroke-miterlimit="10"/>
<path d="M208.403 35.0444V27.5583" stroke="#263238" stroke-miterlimit="10"/>
<path d="M254.792 35.0444V27.5583" stroke="#263238" stroke-miterlimit="10"/>
<path d="M301.181 35.0444V27.5583" stroke="#263238" stroke-miterlimit="10"/>
<path d="M307.172 64.7575H108.139V262.296H307.172V64.7575Z" fill="black" stroke="#263238" stroke-miterlimit="10"/>
<path d="M219.583 114.488H246.383" stroke="#999999" stroke-miterlimit="10"/>
<path d="M219.583 134.187H246.383" stroke="#999999" stroke-miterlimit="10"/>
<path d="M219.583 153.875H246.383" stroke="#999999" stroke-miterlimit="10"/>
<path d="M168.159 197.23H181.229" stroke="#AFAFAF" stroke-miterlimit="10"/>
<path d="M137.632 197.23H165.18" stroke="#AFAFAF" stroke-miterlimit="10"/>
<path d="M124.595 197.23H133.906" stroke="#AFAFAF" stroke-miterlimit="10"/>
<path d="M146.943 203.287H181.229" stroke="#AFAFAF" stroke-miterlimit="10"/>
<path d="M124.595 203.287H143.964" stroke="#AFAFAF" stroke-miterlimit="10"/>
<path d="M167.049 209.333H181.229" stroke="#AFAFAF" stroke-miterlimit="10"/>
<path d="M140.611 209.333H163.322" stroke="#AFAFAF" stroke-miterlimit="10"/>
<path d="M124.595 209.333H137.258" stroke="#AFAFAF" stroke-miterlimit="10"/>
<path d="M124.595 215.379H181.229" stroke="#AFAFAF" stroke-miterlimit="10"/>
<path d="M148.053 221.425H181.229" stroke="#AFAFAF" stroke-miterlimit="10"/>
<path d="M124.595 221.425H143.964" stroke="#AFAFAF" stroke-miterlimit="10"/>
<path d="M171.512 227.482H181.229" stroke="#AFAFAF" stroke-miterlimit="10"/>
<path d="M124.595 227.482H168.533" stroke="#AFAFAF" stroke-miterlimit="10"/>
<path d="M173.007 233.528H181.229" stroke="#AFAFAF" stroke-miterlimit="10"/>
<path d="M139.49 233.528H170.775" stroke="#AFAFAF" stroke-miterlimit="10"/>
<path d="M124.595 233.528H137.258" stroke="#AFAFAF" stroke-miterlimit="10"/>
<path d="M174.491 239.574H181.229" stroke="#AFAFAF" stroke-miterlimit="10"/>
<path d="M152.154 239.574H170.401" stroke="#AFAFAF" stroke-miterlimit="10"/>
<path d="M124.595 239.574H149.548" stroke="#AFAFAF" stroke-miterlimit="10"/>
<path d="M286.286 109.058H296.124" stroke="#999999" stroke-miterlimit="10"/>
<path d="M263.289 109.058H284.043" stroke="#999999" stroke-miterlimit="10"/>
<path d="M253.473 109.058H260.486" stroke="#999999" stroke-miterlimit="10"/>
<path d="M270.303 116.181H296.124" stroke="#999999" stroke-miterlimit="10"/>
<path d="M253.473 116.181H268.06" stroke="#999999" stroke-miterlimit="10"/>
<path d="M285.439 123.305H296.124" stroke="#999999" stroke-miterlimit="10"/>
<path d="M265.532 123.305H282.636" stroke="#999999" stroke-miterlimit="10"/>
<path d="M253.473 123.305H263.004" stroke="#999999" stroke-miterlimit="10"/>
<path d="M253.473 130.428H296.125" stroke="#999999" stroke-miterlimit="10"/>
<path d="M271.138 137.54H296.124" stroke="#999999" stroke-miterlimit="10"/>
<path d="M253.473 137.54H268.06" stroke="#999999" stroke-miterlimit="10"/>
<path d="M288.803 144.663H296.124" stroke="#999999" stroke-miterlimit="10"/>
<path d="M253.473 144.663H286.561" stroke="#999999" stroke-miterlimit="10"/>
<path d="M289.924 151.787H296.124" stroke="#999999" stroke-miterlimit="10"/>
<path d="M264.685 151.787H288.243" stroke="#999999" stroke-miterlimit="10"/>
<path d="M253.473 151.787H263.004" stroke="#999999" stroke-miterlimit="10"/>
<path d="M291.057 158.91H296.124" stroke="#999999" stroke-miterlimit="10"/>
<path d="M274.227 158.91H287.968" stroke="#999999" stroke-miterlimit="10"/>
<path d="M253.473 158.91H272.259" stroke="#999999" stroke-miterlimit="10"/>
<path d="M153.396 166.308C148.14 166.307 142.971 164.975 138.369 162.438L142.458 155.04C146.817 157.449 151.849 158.35 156.773 157.603C161.697 156.855 166.236 154.502 169.684 150.909C173.132 147.315 175.296 142.683 175.839 137.733C176.382 132.782 175.274 127.791 172.688 123.535L179.899 119.138C182.763 123.843 184.324 129.226 184.42 134.733C184.516 140.241 183.145 145.674 180.447 150.477C177.749 155.279 173.821 159.276 169.067 162.058C164.313 164.841 158.904 166.307 153.396 166.308V166.308Z" fill="#C471ED"/>
<path d="M138.358 162.438C132.803 159.367 128.323 154.667 125.522 148.972C122.721 143.276 121.733 136.859 122.691 130.584C123.649 124.31 126.508 118.48 130.882 113.88C135.255 109.28 140.934 106.132 147.152 104.859L148.823 113.147C144.299 114.072 140.167 116.362 136.983 119.707C133.8 123.052 131.719 127.293 131.019 131.857C130.32 136.422 131.036 141.091 133.071 145.236C135.107 149.381 138.363 152.803 142.403 155.04L138.358 162.438Z" fill="#F5505D"/>
<path d="M172.677 123.535C170.671 120.218 167.842 117.477 164.463 115.578C161.084 113.678 157.272 112.686 153.396 112.696C151.878 112.697 150.365 112.848 148.878 113.147L147.207 104.859C149.244 104.449 151.317 104.243 153.396 104.243C158.724 104.224 163.966 105.587 168.611 108.197C173.256 110.808 177.145 114.577 179.899 119.138L172.677 123.535Z" fill="#30B5EA"/>
<path d="M214.108 109.564H204.808V118.863H214.108V109.564Z" fill="#C471ED"/>
<path d="M214.108 129.537H204.808V138.837H214.108V129.537Z" fill="#F5505D"/>
<path d="M214.108 149.5H204.808V158.8H214.108V149.5Z" fill="#30B5EA"/>
<path d="M215.878 204.386H202.126V241.223H215.878V204.386Z" fill="#F0536B"/>
<path d="M234.027 187.886H220.275V241.223H234.027V187.886Z" fill="#C471ED"/>
<path d="M252.176 212.631H238.424V241.223H252.176V212.631Z" fill="#30B5EA"/>
<path d="M270.314 195.581H256.562V241.223H270.314V195.581Z" fill="#C471ED"/>
<path d="M288.463 180.741H274.711V241.223H288.463V180.741Z" fill="#F0536B"/>
<path d="M249.549 78.982H179.217V85.7205H249.549V78.982Z" fill="#F5505D"/>
<path d="M82.7018 56.3481H19.0982V124.437H82.7018V56.3481Z" fill="black"/>
<path d="M50.889 101.957C47.9054 101.957 44.9705 101.2 42.3587 99.7581L44.6891 95.5369C47.1626 96.8961 50.0153 97.4016 52.8053 96.9752C55.5952 96.5488 58.1667 95.2142 60.1212 93.1783C62.0758 91.1423 63.3044 88.5186 63.6167 85.7135C63.929 82.9085 63.3076 80.0788 61.8487 77.6628L65.949 75.1675C67.5882 77.838 68.4842 80.898 68.5444 84.0309C68.6045 87.1639 67.8266 90.256 66.291 92.9875C64.7555 95.7189 62.5181 97.9906 59.8103 99.5675C57.1024 101.144 54.0225 101.969 50.889 101.957Z" fill="#C471ED"/>
<path d="M42.3697 99.7471C39.1972 98.0147 36.6355 95.347 35.0332 92.1069C33.4309 88.8668 32.8658 85.2117 33.4148 81.6389C33.9638 78.0662 35.6002 74.7494 38.1014 72.1399C40.6026 69.5303 43.8471 67.7548 47.3934 67.0549L48.3387 71.7597C45.7731 72.2875 43.4306 73.5879 41.6259 75.4862C39.8212 77.3846 38.6408 79.7899 38.2434 82.3789C37.846 84.9678 38.2507 87.6164 39.403 89.9686C40.5552 92.3209 42.4 94.264 44.6892 95.5369L42.3697 99.7471Z" fill="#F5505D"/>
<path d="M61.8487 77.6629C60.7081 75.7712 59.0948 74.209 57.1674 73.1296C55.24 72.0503 53.065 71.4911 50.8561 71.507C49.9961 71.5084 49.1384 71.5931 48.2948 71.7599L47.3494 67.055C48.5038 66.8221 49.6784 66.7042 50.8561 66.7032C53.8837 66.6928 56.8624 67.467 59.5017 68.9504C62.141 70.4339 64.3509 72.5759 65.916 75.1676L61.8487 77.6629Z" fill="#30B5EA"/>
<path d="M62.3763 108.08H72.2147" stroke="#AFAFAF" stroke-miterlimit="10"/>
<path d="M39.3797 108.08H60.1339" stroke="#AFAFAF" stroke-miterlimit="10"/>
<path d="M29.5632 108.08H36.5765" stroke="#AFAFAF" stroke-miterlimit="10"/>
<path d="M46.393 111.432H72.2148" stroke="#AFAFAF" stroke-miterlimit="10"/>
<path d="M29.5632 111.432H44.1505" stroke="#AFAFAF" stroke-miterlimit="10"/>
<path d="M61.541 114.796H72.2149" stroke="#AFAFAF" stroke-miterlimit="10"/>
<path d="M41.6221 114.796H58.7377" stroke="#AFAFAF" stroke-miterlimit="10"/>
<path d="M29.5632 114.796H39.1048" stroke="#AFAFAF" stroke-miterlimit="10"/>
<path d="M82.7018 148.566H19.0982V216.654H82.7018V148.566Z" fill="black"/>
<path d="M63.6075 156.063H75.4905" stroke="url(#paint1_linear_3_331)" stroke-miterlimit="10"/>
<path d="M35.8291 156.063H48.4707" stroke="#AFAFAF" stroke-miterlimit="10"/>
<path d="M23.979 156.063H32.4433" stroke="#AFAFAF" stroke-miterlimit="10"/>
<path d="M44.3044 163.186H48.2728" stroke="#AFAFAF" stroke-miterlimit="10"/>
<path d="M23.979 163.186H41.5892" stroke="#AFAFAF" stroke-miterlimit="10"/>
<path d="M38.5443 170.309H48.2728" stroke="#AFAFAF" stroke-miterlimit="10"/>
<path d="M23.979 170.309H35.4883" stroke="#AFAFAF" stroke-miterlimit="10"/>
<path d="M23.979 177.432H48.2728" stroke="#AFAFAF" stroke-miterlimit="10"/>
<path d="M45.3158 184.556H75.4907" stroke="#AFAFAF" stroke-miterlimit="10"/>
<path d="M23.979 184.556H41.5892" stroke="#AFAFAF" stroke-miterlimit="10"/>
<path d="M66.6524 191.679H75.4905" stroke="#AFAFAF" stroke-miterlimit="10"/>
<path d="M23.979 191.679H63.9483" stroke="#AFAFAF" stroke-miterlimit="10"/>
<path d="M68.0155 198.791H75.4905" stroke="#AFAFAF" stroke-miterlimit="10"/>
<path d="M37.5219 198.791H65.9819" stroke="#AFAFAF" stroke-miterlimit="10"/>
<path d="M23.979 198.791H35.4883" stroke="#AFAFAF" stroke-miterlimit="10"/>
<path d="M69.3677 205.914H75.4907" stroke="#AFAFAF" stroke-miterlimit="10"/>
<path d="M49.0422 205.914H65.6411" stroke="#AFAFAF" stroke-miterlimit="10"/>
<path d="M23.979 205.914H46.6678" stroke="#AFAFAF" stroke-miterlimit="10"/>
<path d="M75.5016 156.118H50.5702V181.049H75.5016V156.118Z" stroke="url(#paint2_linear_3_331)" stroke-miterlimit="10"/>
<path d="M50.5702 181.038L60.1118 170.43L64.8827 173.618L71.786 165.659L74.9629 167.253" stroke="url(#paint3_linear_3_331)" stroke-miterlimit="10"/>
<path d="M57.9902 166.726C60.0423 166.726 61.7058 165.062 61.7058 163.01C61.7058 160.958 60.0423 159.294 57.9902 159.294C55.9382 159.294 54.2747 160.958 54.2747 163.01C54.2747 165.062 55.9382 166.726 57.9902 166.726Z" stroke="url(#paint4_linear_3_331)" stroke-miterlimit="10"/>
<path d="M82.7018 236.298H19.0982V304.387H82.7018V236.298Z" fill="black"/>
<path d="M46.8876 275.278H71.874" stroke="#AFAFAF" stroke-miterlimit="10"/>
<path d="M29.2225 275.278H43.7988" stroke="#AFAFAF" stroke-miterlimit="10"/>
<path d="M64.5529 282.401H71.874" stroke="#AFAFAF" stroke-miterlimit="10"/>
<path d="M29.2225 282.401H62.3104" stroke="#AFAFAF" stroke-miterlimit="10"/>
<path d="M65.6741 289.525H71.8739" stroke="#AFAFAF" stroke-miterlimit="10"/>
<path d="M40.435 289.525H63.9923" stroke="#AFAFAF" stroke-miterlimit="10"/>
<path d="M29.2225 289.525H38.7531" stroke="#AFAFAF" stroke-miterlimit="10"/>
<path d="M66.7954 296.648H71.874" stroke="#AFAFAF" stroke-miterlimit="10"/>
<path d="M49.9767 296.648H63.7175" stroke="#AFAFAF" stroke-miterlimit="10"/>
<path d="M29.2225 296.648H48.009" stroke="#AFAFAF" stroke-miterlimit="10"/>
<path d="M36.2797 254.557H29.5412V270.87H36.2797V254.557Z" fill="#F0536B"/>
<path d="M45.1729 247.258H38.4344V270.87H45.1729V247.258Z" fill="#C471ED"/>
<path d="M54.0659 258.218H47.3274V270.881H54.0659V258.218Z" fill="#30B5EA"/>
<path d="M62.9479 250.666H56.2094V270.87H62.9479V250.666Z" fill="#C471ED"/>
<path d="M71.8411 244.092H65.1026V270.87H71.8411V244.092Z" fill="#F0536B"/>
<defs>
<linearGradient id="paint0_linear_3_331" x1="77.6393" y1="-4.20361" x2="278.024" y2="54.599" gradientUnits="userSpaceOnUse">
<stop stop-color="#00E0FF"/>
<stop offset="1" stop-color="#FF00B8" stop-opacity="0.88"/>
</linearGradient>
<linearGradient id="paint1_linear_3_331" x1="69.549" y1="156.063" x2="69.549" y2="157.063" gradientUnits="userSpaceOnUse">
<stop stop-color="#FF00D6"/>
<stop offset="1" stop-color="#00A3FF" stop-opacity="0.61"/>
</linearGradient>
<linearGradient id="paint2_linear_3_331" x1="63.0359" y1="156.118" x2="63.0359" y2="181.049" gradientUnits="userSpaceOnUse">
<stop stop-color="#FF00D6"/>
<stop offset="1" stop-color="#00A3FF" stop-opacity="0.61"/>
</linearGradient>
<linearGradient id="paint3_linear_3_331" x1="62.7666" y1="165.659" x2="62.7666" y2="181.038" gradientUnits="userSpaceOnUse">
<stop stop-color="#FF00D6"/>
<stop offset="1" stop-color="#00A3FF" stop-opacity="0.61"/>
</linearGradient>
<linearGradient id="paint4_linear_3_331" x1="57.9902" y1="159.294" x2="57.9902" y2="166.726" gradientUnits="userSpaceOnUse">
<stop stop-color="#FF00D6"/>
<stop offset="1" stop-color="#00A3FF" stop-opacity="0.61"/>
</linearGradient>
</defs>
</svg>
