<svg width="202" height="48" viewBox="0 0 202 48" fill="none" xmlns="http://www.w3.org/2000/svg">
<rect width="202" height="48" rx="4" fill="url(#paint0_linear_3_17)"/>
<path d="M53.592 29.144C52.3653 29.144 51.3307 28.9147 50.488 28.456C49.6453 27.9867 49.0053 27.32 48.568 26.456C48.1413 25.592 47.928 24.5627 47.928 23.368C47.928 22.472 48.0507 21.672 48.296 20.968C48.552 20.2533 48.9147 19.6453 49.384 19.144C49.864 18.632 50.4453 18.2427 51.128 17.976C51.8213 17.7093 52.6053 17.576 53.48 17.576C54.12 17.576 54.7493 17.6613 55.368 17.832C55.9867 17.992 56.552 18.2587 57.064 18.632C57.2133 18.7387 57.3093 18.8613 57.352 19C57.3947 19.1387 57.3947 19.2827 57.352 19.432C57.32 19.5707 57.2507 19.6933 57.144 19.8C57.048 19.9067 56.9253 19.9707 56.776 19.992C56.6373 20.0133 56.4827 19.9707 56.312 19.864C55.896 19.576 55.4587 19.368 55 19.24C54.5413 19.1013 54.0347 19.032 53.48 19.032C52.648 19.032 51.944 19.2027 51.368 19.544C50.8027 19.8853 50.376 20.3813 50.088 21.032C49.8 21.672 49.656 22.4507 49.656 23.368C49.656 24.7867 49.992 25.864 50.664 26.6C51.336 27.336 52.3333 27.704 53.656 27.704C54.136 27.704 54.6053 27.6613 55.064 27.576C55.5333 27.48 55.9813 27.3467 56.408 27.176L56.072 28.008V24.28H54.008C53.7947 24.28 53.624 24.2267 53.496 24.12C53.3787 24.0027 53.32 23.8427 53.32 23.64C53.32 23.4373 53.3787 23.288 53.496 23.192C53.624 23.0853 53.7947 23.032 54.008 23.032H56.776C57 23.032 57.1707 23.0907 57.288 23.208C57.4053 23.3253 57.464 23.496 57.464 23.72V27.752C57.464 27.944 57.4267 28.1093 57.352 28.248C57.288 28.376 57.176 28.472 57.016 28.536C56.5573 28.7173 56.0187 28.8667 55.4 28.984C54.7813 29.0907 54.1787 29.144 53.592 29.144ZM60.9111 29C60.6231 29 60.3991 28.9253 60.2391 28.776C60.0898 28.616 60.0151 28.392 60.0151 28.104V18.616C60.0151 18.328 60.0898 18.1093 60.2391 17.96C60.3991 17.8 60.6231 17.72 60.9111 17.72H66.7511C66.9751 17.72 67.1458 17.7787 67.2631 17.896C67.3805 18.0027 67.4391 18.1627 67.4391 18.376C67.4391 18.6 67.3805 18.7707 67.2631 18.888C67.1458 19.0053 66.9751 19.064 66.7511 19.064H61.6151V22.6H66.3991C66.6338 22.6 66.8045 22.6587 66.9111 22.776C67.0285 22.8933 67.0871 23.0587 67.0871 23.272C67.0871 23.496 67.0285 23.6667 66.9111 23.784C66.8045 23.8907 66.6338 23.944 66.3991 23.944H61.6151V27.656H66.7511C66.9751 27.656 67.1458 27.7147 67.2631 27.832C67.3805 27.9493 67.4391 28.1147 67.4391 28.328C67.4391 28.552 67.3805 28.7227 67.2631 28.84C67.1458 28.9467 66.9751 29 66.7511 29H60.9111ZM72.8804 29.112C72.6137 29.112 72.4057 29.0373 72.2564 28.888C72.1177 28.7387 72.0484 28.5307 72.0484 28.264V19.112H68.6564C68.4324 19.112 68.2564 19.0533 68.1284 18.936C68.0004 18.808 67.9364 18.632 67.9364 18.408C67.9364 18.184 68.0004 18.0133 68.1284 17.896C68.2564 17.7787 68.4324 17.72 68.6564 17.72H77.0884C77.323 17.72 77.5044 17.7787 77.6324 17.896C77.7604 18.0133 77.8244 18.184 77.8244 18.408C77.8244 18.632 77.7604 18.808 77.6324 18.936C77.5044 19.0533 77.323 19.112 77.0884 19.112H73.6964V28.264C73.6964 28.5307 73.627 28.7387 73.4884 28.888C73.3604 29.0373 73.1577 29.112 72.8804 29.112ZM87.0564 29.144C86.5657 29.144 86.0857 29.1067 85.6164 29.032C85.147 28.9573 84.7044 28.8453 84.2884 28.696C83.8724 28.536 83.499 28.344 83.1684 28.12C83.0084 28.0027 82.8964 27.8693 82.8324 27.72C82.779 27.5707 82.763 27.4267 82.7844 27.288C82.8164 27.1387 82.8804 27.0107 82.9764 26.904C83.0724 26.7973 83.1897 26.7333 83.3284 26.712C83.467 26.68 83.6217 26.7227 83.7924 26.84C84.2724 27.1493 84.779 27.3787 85.3124 27.528C85.8457 27.6667 86.427 27.736 87.0564 27.736C87.963 27.736 88.6297 27.576 89.0564 27.256C89.4937 26.9253 89.7124 26.4987 89.7124 25.976C89.7124 25.5493 89.5577 25.2133 89.2484 24.968C88.939 24.712 88.4217 24.5093 87.6964 24.36L85.9844 24.008C84.971 23.7947 84.2137 23.4427 83.7124 22.952C83.2217 22.4613 82.9764 21.8 82.9764 20.968C82.9764 20.4667 83.0777 20.008 83.2804 19.592C83.4937 19.176 83.787 18.8187 84.1604 18.52C84.5337 18.2107 84.9817 17.976 85.5044 17.816C86.027 17.656 86.5977 17.576 87.2164 17.576C87.8777 17.576 88.4964 17.6613 89.0724 17.832C89.659 18.0027 90.1817 18.264 90.6404 18.616C90.779 18.712 90.8697 18.8347 90.9124 18.984C90.9657 19.1227 90.9764 19.2613 90.9444 19.4C90.923 19.5387 90.8644 19.656 90.7684 19.752C90.6724 19.848 90.5497 19.9067 90.4004 19.928C90.251 19.9387 90.0857 19.8853 89.9044 19.768C89.4884 19.4907 89.0617 19.2933 88.6244 19.176C88.1977 19.048 87.723 18.984 87.2004 18.984C86.6777 18.984 86.219 19.064 85.8244 19.224C85.4404 19.384 85.1417 19.608 84.9284 19.896C84.7257 20.184 84.6244 20.5253 84.6244 20.92C84.6244 21.368 84.7684 21.7253 85.0564 21.992C85.3444 22.2587 85.8244 22.4613 86.4964 22.6L88.1924 22.952C89.259 23.176 90.0537 23.5227 90.5764 23.992C91.099 24.4613 91.3604 25.0853 91.3604 25.864C91.3604 26.3653 91.259 26.8187 91.0564 27.224C90.8537 27.6187 90.5657 27.96 90.1924 28.248C89.819 28.536 89.3657 28.76 88.8324 28.92C88.3097 29.0693 87.7177 29.144 87.0564 29.144ZM96.5991 29.112C96.3325 29.112 96.1245 29.0373 95.9751 28.888C95.8365 28.7387 95.7671 28.5307 95.7671 28.264V19.112H92.3751C92.1511 19.112 91.9751 19.0533 91.8471 18.936C91.7191 18.808 91.6551 18.632 91.6551 18.408C91.6551 18.184 91.7191 18.0133 91.8471 17.896C91.9751 17.7787 92.1511 17.72 92.3751 17.72H100.807C101.042 17.72 101.223 17.7787 101.351 17.896C101.479 18.0133 101.543 18.184 101.543 18.408C101.543 18.632 101.479 18.808 101.351 18.936C101.223 19.0533 101.042 19.112 100.807 19.112H97.4151V28.264C97.4151 28.5307 97.3458 28.7387 97.2071 28.888C97.0791 29.0373 96.8765 29.112 96.5991 29.112ZM101.498 29.112C101.285 29.112 101.114 29.064 100.986 28.968C100.858 28.872 100.783 28.744 100.762 28.584C100.741 28.424 100.773 28.2427 100.858 28.04L105.194 18.312C105.301 18.056 105.434 17.8747 105.594 17.768C105.765 17.6613 105.951 17.608 106.154 17.608C106.346 17.608 106.522 17.6613 106.682 17.768C106.853 17.8747 106.991 18.056 107.098 18.312L111.434 28.04C111.53 28.2427 111.567 28.4293 111.546 28.6C111.525 28.76 111.455 28.888 111.338 28.984C111.221 29.0693 111.055 29.112 110.842 29.112C110.607 29.112 110.421 29.0533 110.282 28.936C110.143 28.8187 110.021 28.6373 109.914 28.392L108.794 25.8L109.546 26.248H102.73L103.466 25.8L102.362 28.392C102.255 28.648 102.138 28.8347 102.01 28.952C101.882 29.0587 101.711 29.112 101.498 29.112ZM106.122 19.56L103.706 25.288L103.306 24.904H108.954L108.586 25.288L106.154 19.56H106.122ZM114.175 29.112C113.909 29.112 113.701 29.0373 113.551 28.888C113.413 28.7387 113.343 28.5307 113.343 28.264V18.568C113.343 18.2907 113.418 18.0827 113.567 17.944C113.717 17.7947 113.925 17.72 114.191 17.72H118.015C119.231 17.72 120.17 18.008 120.831 18.584C121.493 19.16 121.823 19.976 121.823 21.032C121.823 21.7147 121.674 22.3013 121.375 22.792C121.077 23.2827 120.639 23.656 120.063 23.912C119.498 24.168 118.815 24.296 118.015 24.296L118.159 24.072H118.575C119.002 24.072 119.37 24.1787 119.679 24.392C119.999 24.6053 120.287 24.9467 120.543 25.416L121.919 27.976C122.026 28.168 122.074 28.3547 122.063 28.536C122.063 28.7067 121.999 28.8453 121.871 28.952C121.754 29.0587 121.583 29.112 121.359 29.112C121.125 29.112 120.933 29.064 120.783 28.968C120.645 28.8613 120.517 28.7067 120.399 28.504L118.719 25.4C118.495 24.984 118.239 24.7067 117.951 24.568C117.663 24.4187 117.285 24.344 116.815 24.344H115.007V28.264C115.007 28.5307 114.938 28.7387 114.799 28.888C114.661 29.0373 114.453 29.112 114.175 29.112ZM115.007 23.096H117.743C118.554 23.096 119.167 22.9253 119.583 22.584C119.999 22.2427 120.207 21.736 120.207 21.064C120.207 20.4027 119.999 19.9013 119.583 19.56C119.167 19.2187 118.554 19.048 117.743 19.048H115.007V23.096ZM127.443 29.112C127.176 29.112 126.968 29.0373 126.819 28.888C126.68 28.7387 126.611 28.5307 126.611 28.264V19.112H123.219C122.995 19.112 122.819 19.0533 122.691 18.936C122.563 18.808 122.499 18.632 122.499 18.408C122.499 18.184 122.563 18.0133 122.691 17.896C122.819 17.7787 122.995 17.72 123.219 17.72H131.651C131.886 17.72 132.067 17.7787 132.195 17.896C132.323 18.0133 132.387 18.184 132.387 18.408C132.387 18.632 132.323 18.808 132.195 18.936C132.067 19.0533 131.886 19.112 131.651 19.112H128.259V28.264C128.259 28.5307 128.19 28.7387 128.051 28.888C127.923 29.0373 127.72 29.112 127.443 29.112ZM134.536 29C134.248 29 134.024 28.9253 133.864 28.776C133.715 28.616 133.64 28.392 133.64 28.104V18.616C133.64 18.328 133.715 18.1093 133.864 17.96C134.024 17.8 134.248 17.72 134.536 17.72H140.376C140.6 17.72 140.771 17.7787 140.888 17.896C141.005 18.0027 141.064 18.1627 141.064 18.376C141.064 18.6 141.005 18.7707 140.888 18.888C140.771 19.0053 140.6 19.064 140.376 19.064H135.24V22.6H140.024C140.259 22.6 140.429 22.6587 140.536 22.776C140.653 22.8933 140.712 23.0587 140.712 23.272C140.712 23.496 140.653 23.6667 140.536 23.784C140.429 23.8907 140.259 23.944 140.024 23.944H135.24V27.656H140.376C140.6 27.656 140.771 27.7147 140.888 27.832C141.005 27.9493 141.064 28.1147 141.064 28.328C141.064 28.552 141.005 28.7227 140.888 28.84C140.771 28.9467 140.6 29 140.376 29H134.536ZM143.958 29C143.67 29 143.446 28.9253 143.286 28.776C143.137 28.616 143.062 28.392 143.062 28.104V18.616C143.062 18.328 143.137 18.1093 143.286 17.96C143.446 17.8 143.67 17.72 143.958 17.72H147.046C148.902 17.72 150.331 18.2053 151.334 19.176C152.347 20.136 152.854 21.528 152.854 23.352C152.854 24.2587 152.726 25.064 152.47 25.768C152.214 26.472 151.835 27.064 151.334 27.544C150.843 28.0133 150.241 28.376 149.526 28.632C148.811 28.8773 147.985 29 147.046 29H143.958ZM144.726 27.608H146.95C147.654 27.608 148.262 27.5227 148.774 27.352C149.297 27.1707 149.734 26.904 150.086 26.552C150.438 26.2 150.699 25.7573 150.87 25.224C151.041 24.6907 151.126 24.0667 151.126 23.352C151.126 21.9333 150.774 20.872 150.07 20.168C149.377 19.464 148.337 19.112 146.95 19.112H144.726V27.608Z" fill="white"/>
<defs>
<linearGradient id="paint0_linear_3_17" x1="-98" y1="-19.4999" x2="197.705" y2="-42.9411" gradientUnits="userSpaceOnUse">
<stop stop-color="#00E0FF"/>
<stop offset="1" stop-color="#FF00B8" stop-opacity="0.88"/>
</linearGradient>
</defs>
</svg>
