<svg width="100" height="48" viewBox="0 0 100 48" fill="none" xmlns="http://www.w3.org/2000/svg">
<path d="M24.488 29.126C23.5173 29.126 22.6867 28.9207 21.996 28.51C21.3053 28.0993 20.7733 27.516 20.4 26.76C20.036 26.004 19.854 25.1033 19.854 24.058C19.854 23.274 19.9567 22.574 20.162 21.958C20.3767 21.3327 20.68 20.8053 21.072 20.376C21.4733 19.9373 21.9633 19.6013 22.542 19.368C23.1207 19.1253 23.7693 19.004 24.488 19.004C25.0667 19.004 25.6173 19.088 26.14 19.256C26.6627 19.4147 27.1153 19.6527 27.498 19.97C27.6193 20.0633 27.6987 20.1707 27.736 20.292C27.7827 20.404 27.7873 20.516 27.75 20.628C27.722 20.7307 27.666 20.8193 27.582 20.894C27.5073 20.9593 27.414 20.992 27.302 20.992C27.19 20.992 27.064 20.9453 26.924 20.852C26.588 20.5813 26.2193 20.3807 25.818 20.25C25.4167 20.1193 24.9827 20.054 24.516 20.054C23.7787 20.054 23.1533 20.2127 22.64 20.53C22.1267 20.838 21.7393 21.2907 21.478 21.888C21.2167 22.4853 21.086 23.2087 21.086 24.058C21.086 24.9073 21.2167 25.6353 21.478 26.242C21.7393 26.8393 22.1267 27.2967 22.64 27.614C23.1533 27.922 23.7787 28.076 24.516 28.076C24.9733 28.076 25.4073 28.0107 25.818 27.88C26.2287 27.74 26.6067 27.5347 26.952 27.264C27.092 27.1707 27.218 27.1287 27.33 27.138C27.442 27.138 27.5353 27.1707 27.61 27.236C27.6847 27.3013 27.736 27.3853 27.764 27.488C27.8013 27.5907 27.8013 27.698 27.764 27.81C27.736 27.922 27.666 28.02 27.554 28.104C27.162 28.44 26.7 28.6967 26.168 28.874C25.6453 29.042 25.0853 29.126 24.488 29.126ZM29.1818 29.098C29.0325 29.098 28.9112 29.0653 28.8178 29C28.7338 28.9253 28.6825 28.832 28.6638 28.72C28.6545 28.5987 28.6825 28.4633 28.7478 28.314L32.5978 19.55C32.6818 19.3633 32.7798 19.2327 32.8918 19.158C33.0132 19.074 33.1438 19.032 33.2838 19.032C33.4238 19.032 33.5498 19.074 33.6618 19.158C33.7832 19.2327 33.8812 19.3633 33.9558 19.55L37.8198 28.314C37.8945 28.4633 37.9225 28.5987 37.9038 28.72C37.8945 28.8413 37.8478 28.9347 37.7638 29C37.6798 29.0653 37.5632 29.098 37.4138 29.098C37.2458 29.098 37.1105 29.056 37.0078 28.972C36.9052 28.8787 36.8212 28.748 36.7558 28.58L35.7198 26.186L36.2798 26.48H30.2598L30.8338 26.186L29.8118 28.58C29.7278 28.7573 29.6392 28.888 29.5458 28.972C29.4525 29.056 29.3312 29.098 29.1818 29.098ZM33.2698 20.474L31.0158 25.78L30.6798 25.514H35.8598L35.5518 25.78L33.2978 20.474H33.2698ZM40.179 29C39.9924 29 39.8477 28.9487 39.745 28.846C39.6424 28.734 39.591 28.5847 39.591 28.398V19.662C39.591 19.466 39.6377 19.3167 39.731 19.214C39.8337 19.1113 39.9784 19.06 40.165 19.06C40.3517 19.06 40.4917 19.1113 40.585 19.214C40.6877 19.3167 40.739 19.466 40.739 19.662V27.992H45.331C45.499 27.992 45.6297 28.0387 45.723 28.132C45.8164 28.216 45.863 28.3373 45.863 28.496C45.863 28.6547 45.8164 28.7807 45.723 28.874C45.6297 28.958 45.499 29 45.331 29H40.179ZM47.7806 29C47.5939 29 47.4493 28.9487 47.3466 28.846C47.2439 28.734 47.1926 28.5847 47.1926 28.398V19.662C47.1926 19.466 47.2393 19.3167 47.3326 19.214C47.4353 19.1113 47.5799 19.06 47.7666 19.06C47.9533 19.06 48.0933 19.1113 48.1866 19.214C48.2893 19.3167 48.3406 19.466 48.3406 19.662V27.992H52.9326C53.1006 27.992 53.2313 28.0387 53.3246 28.132C53.4179 28.216 53.4646 28.3373 53.4646 28.496C53.4646 28.6547 53.4179 28.7807 53.3246 28.874C53.2313 28.958 53.1006 29 52.9326 29H47.7806ZM62.2955 29.126C61.6422 29.126 61.0682 29.042 60.5735 28.874C60.0882 28.6967 59.6775 28.44 59.3415 28.104C59.0055 27.7587 58.7535 27.334 58.5855 26.83C58.4175 26.326 58.3335 25.7473 58.3335 25.094V19.62C58.3335 19.424 58.3802 19.2793 58.4735 19.186C58.5762 19.0833 58.7209 19.032 58.9075 19.032C59.0942 19.032 59.2342 19.0833 59.3275 19.186C59.4302 19.2793 59.4815 19.424 59.4815 19.62V25.038C59.4815 26.0647 59.7195 26.8347 60.1955 27.348C60.6715 27.852 61.3715 28.104 62.2955 28.104C63.2195 28.104 63.9149 27.852 64.3815 27.348C64.8482 26.8347 65.0815 26.0647 65.0815 25.038V19.62C65.0815 19.424 65.1329 19.2793 65.2355 19.186C65.3382 19.0833 65.4829 19.032 65.6695 19.032C65.8469 19.032 65.9822 19.0833 66.0755 19.186C66.1782 19.2793 66.2295 19.424 66.2295 19.62V25.094C66.2295 25.962 66.0802 26.6993 65.7815 27.306C65.4922 27.9127 65.0535 28.37 64.4655 28.678C63.8775 28.9767 63.1542 29.126 62.2955 29.126ZM71.7811 29.126C71.3424 29.126 70.9131 29.0887 70.4931 29.014C70.0731 28.9393 69.6811 28.832 69.3171 28.692C68.9624 28.552 68.6404 28.3747 68.3511 28.16C68.2391 28.076 68.1598 27.9827 68.1131 27.88C68.0758 27.768 68.0664 27.6607 68.0851 27.558C68.1131 27.446 68.1598 27.3527 68.2251 27.278C68.2998 27.2033 68.3884 27.1613 68.4911 27.152C68.5938 27.1427 68.7058 27.1753 68.8271 27.25C69.2471 27.5487 69.6951 27.768 70.1711 27.908C70.6471 28.0387 71.1838 28.104 71.7811 28.104C72.6211 28.104 73.2418 27.95 73.6431 27.642C74.0538 27.3247 74.2591 26.9093 74.2591 26.396C74.2591 25.976 74.1098 25.6493 73.8111 25.416C73.5218 25.1733 73.0318 24.982 72.3411 24.842L70.8851 24.548C70.0078 24.3613 69.3498 24.058 68.9111 23.638C68.4818 23.2087 68.2671 22.6393 68.2671 21.93C68.2671 21.4913 68.3558 21.0947 68.5331 20.74C68.7104 20.376 68.9578 20.068 69.2751 19.816C69.5924 19.5547 69.9704 19.354 70.4091 19.214C70.8478 19.074 71.3331 19.004 71.8651 19.004C72.4531 19.004 72.9991 19.088 73.5031 19.256C74.0164 19.4147 74.4784 19.6573 74.8891 19.984C74.9918 20.068 75.0618 20.166 75.0991 20.278C75.1364 20.3807 75.1411 20.4833 75.1131 20.586C75.0851 20.6793 75.0338 20.7587 74.9591 20.824C74.8938 20.8893 74.8051 20.9267 74.6931 20.936C74.5904 20.9453 74.4738 20.908 74.3431 20.824C73.9698 20.544 73.5824 20.3433 73.1811 20.222C72.7798 20.0913 72.3364 20.026 71.8511 20.026C71.3564 20.026 70.9271 20.1007 70.5631 20.25C70.2084 20.3993 69.9284 20.6187 69.7231 20.908C69.5271 21.188 69.4291 21.5147 69.4291 21.888C69.4291 22.336 69.5644 22.6907 69.8351 22.952C70.1151 23.2133 70.5678 23.4047 71.1931 23.526L72.6491 23.834C73.5918 24.03 74.2871 24.3287 74.7351 24.73C75.1924 25.122 75.4211 25.6587 75.4211 26.34C75.4211 26.7507 75.3371 27.1287 75.1691 27.474C75.0011 27.8193 74.7584 28.118 74.4411 28.37C74.1238 28.6127 73.7411 28.7993 73.2931 28.93C72.8451 29.0607 72.3411 29.126 71.7811 29.126ZM77.5944 26.494C77.4824 26.494 77.389 26.4567 77.3144 26.382C77.249 26.3073 77.2117 26.1953 77.2024 26.046L76.9224 19.774C76.913 19.55 76.9644 19.3727 77.0764 19.242C77.1977 19.102 77.3704 19.032 77.5944 19.032C77.809 19.032 77.9724 19.102 78.0844 19.242C78.1964 19.3727 78.2477 19.55 78.2384 19.774L77.9584 26.046C77.9584 26.1953 77.9257 26.3073 77.8604 26.382C77.795 26.4567 77.7064 26.494 77.5944 26.494ZM77.5944 29.056C77.361 29.056 77.1744 28.986 77.0344 28.846C76.8944 28.6967 76.8244 28.51 76.8244 28.286C76.8244 28.062 76.8944 27.88 77.0344 27.74C77.1744 27.5907 77.361 27.516 77.5944 27.516C77.8277 27.516 78.0097 27.5907 78.1404 27.74C78.2804 27.88 78.3504 28.062 78.3504 28.286C78.3504 28.51 78.2804 28.6967 78.1404 28.846C78.0097 28.986 77.8277 29.056 77.5944 29.056Z" fill="url(#paint0_linear_3_11)"/>
<rect x="0.5" y="0.5" width="99" height="47" rx="3.5" stroke="url(#paint1_linear_3_11)"/>
<defs>
<linearGradient id="paint0_linear_3_11" x1="-12.5" y1="0.499998" x2="109.5" y2="46" gradientUnits="userSpaceOnUse">
<stop offset="0.40625" stop-color="#CE47DA"/>
<stop offset="0.786458" stop-color="#00D1FF"/>
</linearGradient>
<linearGradient id="paint1_linear_3_11" x1="50" y1="0" x2="50" y2="48" gradientUnits="userSpaceOnUse">
<stop stop-color="#00A3FF"/>
<stop offset="1" stop-color="#FF00E5" stop-opacity="0.87"/>
</linearGradient>
</defs>
</svg>
