<svg width="246" height="269" viewBox="0 0 246 269" fill="none" xmlns="http://www.w3.org/2000/svg">
<path opacity="0.17" d="M245.753 101.847V259.701C245.753 266.523 238.634 271.009 232.455 268.097L44.6234 179.373C41.8691 178.07 39.5423 176.014 37.9136 173.443C36.285 170.872 35.4216 167.892 35.4239 164.85V11.423C35.4239 3.0481 44.1693 -2.47064 51.7544 1.10977L237.53 88.8714C239.99 90.0359 242.069 91.8734 243.525 94.1704C244.981 96.4673 245.753 99.1294 245.753 101.847Z" fill="#0F85C9"/>
<path d="M245.753 102.059V125.091L35.4239 25.6994V11.4468C35.4239 3.05445 44.1688 -2.47579 51.7535 1.11208L237.518 89.0566C239.981 90.2218 242.063 92.0625 243.52 94.3643C244.978 96.6662 245.752 99.3348 245.753 102.059Z" fill="url(#paint0_linear_3_44)"/>
<path d="M140.588 140.588L42.0658 93.1839V35.4238L140.588 82.8284V140.588Z" fill="#323232"/>
<path d="M140.588 140.589L42.0658 92.8347V77.4897L140.588 125.244V140.589Z" fill="url(#paint1_linear_3_44)"/>
<path d="M85.2294 103.936L50.9311 87.5647C50.3185 87.2711 49.8148 86.5361 49.8148 85.9316C49.8148 85.3251 50.3185 85.0699 50.9311 85.3559L85.2294 101.726C85.8439 102.019 86.3457 102.754 86.3457 103.361C86.3457 103.973 85.8439 104.23 85.2294 103.936Z" fill="#FEFEFE"/>
<path d="M118.442 124.97L50.9346 93.0833C50.3201 92.7917 49.8148 92.0619 49.8148 91.4616C49.8148 90.8595 50.3201 90.606 50.9346 90.8899L118.436 122.788C119.052 123.077 119.556 123.807 119.556 124.41C119.561 125.006 119.058 125.261 118.442 124.97Z" fill="#FEFEFE"/>
<path d="M85.2294 67.4099L50.9311 51.0343C50.3185 50.7406 49.8148 50.0054 49.8148 49.4007C49.8148 48.7942 50.3185 48.5389 50.9311 48.8249L85.2294 65.2005C85.8439 65.4923 86.3457 66.2275 86.3457 66.834C86.3457 67.4387 85.8439 67.6959 85.2294 67.4099Z" fill="#CCC8CA"/>
<path d="M85.2294 84.0103L50.9311 67.6387C50.3185 67.3451 49.8148 66.6101 49.8148 66.0055C49.8148 65.3991 50.3185 65.1439 50.9311 65.4298L85.2294 81.7995C85.8439 82.0931 86.3457 82.8281 86.3457 83.4346C86.3457 84.0467 85.8439 84.3039 85.2294 84.0103Z" fill="#CCC8CA"/>
<path d="M118.436 88.4357L50.9346 56.5514C50.3201 56.26 49.8148 55.5304 49.8148 54.9304C49.8148 54.3284 50.3201 54.0751 50.9346 54.3589L118.436 86.245C119.052 86.5346 119.556 87.2642 119.556 87.8661C119.556 88.4719 119.052 88.7348 118.436 88.4357Z" fill="#CCC8CA"/>
<path d="M118.436 93.9748L50.9346 62.0869C50.3201 61.7954 49.8148 61.0657 49.8148 60.4656C49.8148 59.8636 50.3201 59.6102 50.9346 59.8941L118.436 91.782C119.052 92.0735 119.556 92.8031 119.556 93.4052C119.556 94.0072 119.052 94.2663 118.436 93.9748Z" fill="#E00070"/>
<path d="M140.588 208.115L42.0658 160.776V99.6296L140.588 146.969V208.115Z" fill="#332233"/>
<path d="M117.3 147.097L102.988 139.812C102.358 139.491 101.844 138.687 101.844 138.025C101.844 137.364 102.358 137.083 102.988 137.395L117.304 144.683C117.934 145.004 118.449 145.807 118.449 146.468C118.445 147.139 117.94 147.418 117.3 147.097Z" fill="#CCC8CA"/>
<path d="M117.3 162.61L102.988 156.134C102.358 155.849 101.844 155.134 101.844 154.545C101.844 153.958 102.358 153.708 102.988 153.986L117.304 160.464C117.934 160.749 118.449 161.463 118.449 162.051C118.445 162.647 117.94 162.895 117.3 162.61Z" fill="#CCC8CA"/>
<path d="M131.719 159.283L102.966 145.201C102.348 144.9 101.844 144.142 101.844 143.517C101.844 142.893 102.348 142.628 102.966 142.923L131.719 157.003C132.335 157.306 132.839 158.064 132.839 158.687C132.845 159.321 132.341 159.584 131.719 159.283Z" fill="#CCC8CA"/>
<path d="M131.719 164.817L102.966 150.737C102.348 150.436 101.844 149.678 101.844 149.052C101.844 148.427 102.348 148.163 102.966 148.458L131.719 162.538C132.335 162.841 132.839 163.599 132.839 164.223C132.845 164.856 132.341 165.12 131.719 164.817Z" fill="#CCC8CA"/>
<path d="M117.3 171.453L102.988 164.164C102.358 163.843 101.844 163.04 101.844 162.379C101.844 161.716 102.358 161.437 102.988 161.749L117.304 169.038C117.934 169.359 118.449 170.162 118.449 170.823C118.445 171.492 117.94 171.771 117.3 171.453Z" fill="#CCC8CA"/>
<path d="M117.3 188.057L102.988 180.772C102.358 180.451 101.844 179.647 101.844 178.983C101.844 178.322 102.358 178.042 102.988 178.353L117.304 185.649C117.934 185.97 118.449 186.774 118.449 187.436C118.445 188.097 117.94 188.376 117.3 188.057Z" fill="#CCC8CA"/>
<path d="M131.719 183.637L102.966 169.556C102.348 169.253 101.844 168.495 101.844 167.87C101.844 167.246 102.348 166.983 102.966 167.276L131.719 181.356C132.335 181.659 132.839 182.417 132.839 183.043C132.845 183.674 132.341 183.938 131.719 183.637Z" fill="#CCC8CA"/>
<path d="M131.719 189.172L102.966 175.092C102.348 174.789 101.844 174.031 101.844 173.406C101.844 172.782 102.348 172.517 102.966 172.812L131.719 186.892C132.335 187.195 132.839 187.953 132.839 188.576C132.845 189.21 132.341 189.473 131.719 189.172Z" fill="#CCC8CA"/>
<path d="M92.8525 174.521L53.2709 155.339C51.3633 154.415 49.8148 152.115 49.8148 150.204V115.083C49.8148 113.172 51.3594 112.376 53.2709 113.296L92.8525 132.478C94.7601 133.403 96.3086 135.703 96.3086 137.616V172.726C96.3086 174.645 94.7601 175.446 92.8525 174.521Z" fill="url(#paint2_linear_3_44)"/>
<path d="M50.9218 151.495V116.253C50.9218 115.261 51.7349 114.848 52.7385 115.327L93.3811 134.762C94.3866 135.241 95.2016 136.437 95.2016 137.429V172.669C95.2016 173.663 94.3866 174.079 93.3811 173.599L52.7405 154.161C51.7349 153.683 50.9218 152.489 50.9218 151.495Z" fill="#332233"/>
<path d="M49.8148 138.892L62.6173 129.519L73.2548 148.878L84.6147 145.303L95.2016 159.824V173.798L93.3054 173.454L50.65 153.298L49.8148 150.592V138.892Z" fill="url(#paint3_linear_3_44)"/>
<path d="M85.4825 140.947C86.608 140.264 86.6359 138.257 85.5447 136.465C84.4535 134.673 82.6565 133.774 81.5309 134.457C80.4053 135.141 80.3775 137.147 81.4687 138.94C82.5599 140.732 84.3569 141.631 85.4825 140.947Z" fill="url(#paint4_linear_3_44)"/>
<path d="M188.189 231.362L145.016 210.035V85.2388L188.189 106.566V231.362Z" fill="#332233"/>
<path d="M238.004 254.609L193.724 233.441V109.593L238.004 130.758V254.609Z" fill="#332233"/>
<path d="M157.193 111.807L148.337 107.814V98.5227L157.193 102.515V111.807Z" fill="url(#paint5_linear_3_44)"/>
<path d="M172.96 110.612L162.459 105.752C162.226 105.637 162.026 105.468 161.88 105.26C161.733 105.051 161.644 104.81 161.621 104.56C161.621 104.12 161.998 103.932 162.459 104.146L172.96 109.006C173.194 109.121 173.393 109.291 173.539 109.499C173.686 109.708 173.775 109.948 173.798 110.198C173.798 110.637 173.42 110.824 172.96 110.612Z" fill="#CCC8CA"/>
<path d="M172.96 122.787L162.459 117.928C162.226 117.814 162.026 117.644 161.88 117.436C161.733 117.227 161.644 116.987 161.621 116.736C161.621 116.296 161.998 116.11 162.459 116.323L172.96 121.182C173.194 121.297 173.393 121.466 173.539 121.675C173.686 121.883 173.775 122.124 173.798 122.374C173.798 122.816 173.42 123.002 172.96 122.787Z" fill="#CCC8CA"/>
<path d="M184.027 119.463L162.463 109.137C162.228 109.018 162.028 108.843 161.881 108.626C161.734 108.41 161.644 108.16 161.621 107.9C161.621 107.442 161.999 107.249 162.463 107.471L184.027 117.797C184.261 117.916 184.462 118.092 184.609 118.308C184.756 118.524 184.845 118.774 184.868 119.034C184.868 119.493 184.484 119.686 184.027 119.463Z" fill="#CCC8CA"/>
<path d="M184.027 123.891L162.463 113.565C162.228 113.446 162.028 113.271 161.881 113.054C161.734 112.838 161.644 112.588 161.621 112.328C161.621 111.87 161.999 111.677 162.463 111.899L184.027 122.225C184.261 122.344 184.462 122.52 184.609 122.736C184.756 122.952 184.845 123.202 184.868 123.462C184.868 123.921 184.484 124.114 184.027 123.891Z" fill="#CCC8CA"/>
<path d="M213.919 136.073L203.418 131.213C203.185 131.099 202.985 130.929 202.839 130.721C202.692 130.512 202.603 130.272 202.58 130.021C202.58 129.579 202.957 129.393 203.418 129.608L213.919 134.467C214.153 134.582 214.352 134.751 214.499 134.96C214.645 135.168 214.734 135.409 214.757 135.659C214.757 136.099 214.379 136.285 213.919 136.073Z" fill="#CCC8CA"/>
<path d="M213.919 148.249L203.418 143.39C203.185 143.275 202.985 143.106 202.839 142.897C202.692 142.689 202.603 142.448 202.58 142.198C202.58 141.758 202.957 141.57 203.418 141.784L213.919 146.644C214.152 146.758 214.352 146.928 214.498 147.136C214.645 147.344 214.734 147.585 214.757 147.835C214.757 148.275 214.379 148.463 213.919 148.249Z" fill="#CCC8CA"/>
<path d="M223.911 144.924L203.382 134.597C203.158 134.478 202.968 134.303 202.828 134.087C202.687 133.871 202.602 133.622 202.58 133.362C202.58 132.903 202.94 132.71 203.382 132.931L223.919 143.259C224.142 143.377 224.333 143.553 224.473 143.769C224.613 143.986 224.698 144.235 224.72 144.495C224.713 144.952 224.353 145.147 223.911 144.924Z" fill="#CCC8CA"/>
<path d="M223.911 149.352L203.382 139.025C203.158 138.906 202.968 138.731 202.828 138.515C202.687 138.299 202.602 138.05 202.58 137.79C202.58 137.331 202.94 137.138 203.382 137.359L223.919 147.687C224.142 147.805 224.333 147.981 224.473 148.197C224.613 148.413 224.698 148.663 224.72 148.923C224.713 149.38 224.353 149.575 223.911 149.352Z" fill="#CCC8CA"/>
<path d="M213.919 157.106L203.418 152.245C203.185 152.131 202.985 151.961 202.839 151.753C202.692 151.545 202.603 151.305 202.58 151.055C202.58 150.613 202.957 150.427 203.418 150.639L213.919 155.5C214.152 155.615 214.352 155.784 214.498 155.992C214.645 156.2 214.734 156.44 214.757 156.69C214.757 157.132 214.379 157.318 213.919 157.106Z" fill="#CCC8CA"/>
<path d="M213.919 169.283L203.418 164.423C203.185 164.309 202.985 164.139 202.839 163.931C202.692 163.722 202.603 163.482 202.58 163.231C202.58 162.789 202.957 162.603 203.418 162.818L213.919 167.677C214.153 167.792 214.352 167.961 214.499 168.17C214.645 168.378 214.734 168.619 214.757 168.869C214.757 169.309 214.379 169.495 213.919 169.283Z" fill="#CCC8CA"/>
<path d="M223.911 167.065L203.382 156.737C203.158 156.618 202.968 156.443 202.828 156.227C202.687 156.011 202.602 155.761 202.58 155.502C202.58 155.043 202.94 154.85 203.382 155.071L223.919 165.399C224.142 165.518 224.333 165.693 224.473 165.909C224.613 166.125 224.698 166.374 224.72 166.634C224.713 167.093 224.353 167.286 223.911 167.065Z" fill="#CCC8CA"/>
<path d="M223.911 170.387L203.382 160.058C203.158 159.94 202.967 159.764 202.827 159.548C202.687 159.331 202.602 159.081 202.58 158.822C202.58 158.365 202.94 158.17 203.382 158.392L223.919 168.72C224.142 168.838 224.333 169.013 224.473 169.229C224.613 169.445 224.698 169.695 224.72 169.954C224.713 170.413 224.353 170.606 223.911 170.387Z" fill="#CCC8CA"/>
<path d="M213.919 179.229L203.418 173.561C203.185 173.427 202.985 173.23 202.838 172.987C202.692 172.744 202.603 172.463 202.58 172.171C202.58 171.657 202.957 171.438 203.418 171.688L213.919 177.357C214.152 177.491 214.352 177.689 214.498 177.932C214.645 178.175 214.734 178.455 214.757 178.747C214.757 179.263 214.379 179.48 213.919 179.229Z" fill="#CCC8CA"/>
<path d="M213.919 191.41L203.418 185.737C203.185 185.604 202.985 185.407 202.839 185.164C202.692 184.921 202.603 184.641 202.58 184.349C202.58 183.833 202.957 183.616 203.418 183.864L213.919 189.537C214.152 189.67 214.352 189.868 214.498 190.111C214.645 190.353 214.734 190.634 214.757 190.925C214.757 191.437 214.379 191.654 213.919 191.41Z" fill="#CCC8CA"/>
<path d="M223.911 188.102L203.382 177.77C203.158 177.651 202.967 177.476 202.827 177.259C202.687 177.043 202.602 176.793 202.58 176.534C202.58 176.077 202.94 175.882 203.382 176.105L223.919 186.43C224.142 186.549 224.333 186.724 224.473 186.94C224.613 187.156 224.698 187.405 224.72 187.665C224.713 188.124 224.353 188.316 223.911 188.102Z" fill="#CCC8CA"/>
<path d="M223.911 192.527L203.382 182.199C203.158 182.08 202.967 181.904 202.827 181.688C202.687 181.472 202.602 181.222 202.58 180.962C202.58 180.505 202.94 180.31 203.382 180.533L223.919 190.861C224.142 190.98 224.333 191.156 224.473 191.372C224.613 191.588 224.698 191.838 224.72 192.098C224.713 192.557 224.353 192.744 223.911 192.527Z" fill="#CCC8CA"/>
<path d="M213.919 200.278L203.418 195.419C203.185 195.304 202.985 195.135 202.839 194.926C202.692 194.718 202.603 194.477 202.58 194.227C202.58 193.785 202.957 193.599 203.418 193.813L213.919 198.672C214.152 198.787 214.352 198.957 214.498 199.165C214.645 199.373 214.734 199.614 214.757 199.864C214.757 200.304 214.379 200.492 213.919 200.278Z" fill="#CCC8CA"/>
<path d="M213.919 212.457L203.418 207.596C203.185 207.481 202.985 207.312 202.839 207.103C202.692 206.895 202.603 206.654 202.58 206.404C202.58 205.963 202.957 205.775 203.418 205.99L213.919 210.851C214.152 210.966 214.352 211.135 214.498 211.344C214.645 211.552 214.734 211.793 214.757 212.043C214.757 212.478 214.379 212.668 213.919 212.457Z" fill="#CCC8CA"/>
<path d="M223.911 209.14L203.382 199.751C203.158 199.643 202.967 199.483 202.827 199.287C202.687 199.09 202.602 198.863 202.58 198.627C202.58 198.21 202.94 198.034 203.382 198.236L223.919 207.625C224.142 207.733 224.333 207.893 224.473 208.09C224.613 208.286 224.698 208.513 224.72 208.75C224.713 209.161 224.353 209.34 223.911 209.14Z" fill="#CCC8CA"/>
<path d="M223.911 213.552L203.382 203.231C203.158 203.112 202.967 202.936 202.827 202.72C202.687 202.504 202.602 202.254 202.58 201.995C202.58 201.536 202.94 201.343 203.382 201.566L223.919 211.887C224.142 212.006 224.333 212.182 224.473 212.398C224.613 212.614 224.698 212.864 224.72 213.123C224.713 213.588 224.353 213.785 223.911 213.552Z" fill="#CCC8CA"/>
<path d="M213.919 221.308L203.418 216.451C203.185 216.337 202.985 216.168 202.839 215.96C202.692 215.751 202.603 215.511 202.58 215.26C202.58 214.819 202.957 214.633 203.418 214.845L213.919 219.704C214.152 219.818 214.352 219.987 214.498 220.195C214.645 220.403 214.734 220.643 214.757 220.893C214.757 221.34 214.379 221.526 213.919 221.308Z" fill="#CCC8CA"/>
<path d="M213.919 233.486L203.418 228.628C203.185 228.514 202.985 228.344 202.839 228.136C202.692 227.928 202.603 227.687 202.58 227.437C202.58 226.995 202.957 226.809 203.418 227.023L213.919 231.881C214.152 231.996 214.352 232.165 214.498 232.373C214.645 232.582 214.734 232.822 214.757 233.072C214.757 233.522 214.379 233.7 213.919 233.486Z" fill="#CCC8CA"/>
<path d="M223.911 231.27L203.382 220.942C203.158 220.824 202.968 220.648 202.828 220.432C202.687 220.216 202.602 219.967 202.58 219.708C202.58 219.249 202.94 219.056 203.382 219.276L223.919 229.604C224.142 229.723 224.333 229.899 224.473 230.115C224.613 230.331 224.698 230.581 224.72 230.841C224.713 231.297 224.353 231.492 223.911 231.27Z" fill="#CCC8CA"/>
<path d="M223.911 235.699L203.382 225.37C203.158 225.252 202.968 225.077 202.828 224.861C202.687 224.645 202.602 224.395 202.58 224.136C202.58 223.677 202.94 223.484 203.382 223.705L223.919 234.033C224.142 234.152 224.333 234.327 224.473 234.544C224.613 234.76 224.698 235.01 224.72 235.27C224.713 235.727 224.353 235.919 223.911 235.699Z" fill="#CCC8CA"/>
<path d="M157.193 133.947L148.337 129.954V120.663L157.193 124.655V133.947Z" fill="#F64F59"/>
<path d="M172.96 132.751L162.459 127.892C162.226 127.777 162.026 127.608 161.88 127.4C161.733 127.191 161.644 126.951 161.621 126.7C161.621 126.258 161.998 126.072 162.459 126.287L172.96 131.146C173.194 131.26 173.393 131.429 173.54 131.638C173.686 131.846 173.775 132.087 173.798 132.337C173.798 132.777 173.42 132.965 172.96 132.751Z" fill="#CCC8CA"/>
<path d="M172.96 144.927L162.459 140.068C162.226 139.954 162.026 139.785 161.88 139.576C161.733 139.368 161.644 139.127 161.621 138.877C161.621 138.437 161.998 138.249 162.459 138.463L172.96 143.322C173.194 143.437 173.393 143.607 173.539 143.815C173.686 144.023 173.775 144.264 173.798 144.514C173.798 144.956 173.42 145.142 172.96 144.927Z" fill="#CCC8CA"/>
<path d="M184.027 141.607L162.463 131.277C162.228 131.159 162.028 130.983 161.881 130.767C161.734 130.55 161.644 130.3 161.621 130.04C161.621 129.582 161.999 129.388 162.463 129.611L184.027 139.94C184.261 140.059 184.462 140.235 184.609 140.451C184.756 140.668 184.845 140.917 184.868 141.177C184.868 141.634 184.484 141.821 184.027 141.607Z" fill="#CCC8CA"/>
<path d="M184.027 146.029L162.463 135.703C162.228 135.585 162.028 135.41 161.881 135.194C161.734 134.978 161.645 134.728 161.621 134.469C161.621 134.01 161.999 133.817 162.463 134.038L184.027 144.364C184.261 144.482 184.462 144.658 184.609 144.874C184.756 145.091 184.845 145.34 184.868 145.6C184.868 146.059 184.484 146.256 184.027 146.029Z" fill="#CCC8CA"/>
<path d="M157.193 157.193L148.337 152.868V142.802L157.193 147.126V157.193Z" fill="url(#paint6_linear_3_44)"/>
<path d="M172.96 154.891L162.459 150.03C162.226 149.916 162.027 149.747 161.88 149.539C161.733 149.331 161.644 149.091 161.621 148.841C161.621 148.399 161.998 148.213 162.459 148.425L172.96 153.286C173.194 153.401 173.393 153.57 173.539 153.778C173.686 153.986 173.775 154.226 173.798 154.476C173.798 154.918 173.42 155.104 172.96 154.891Z" fill="#CCC8CA"/>
<path d="M172.96 167.068L162.459 162.209C162.226 162.094 162.026 161.925 161.88 161.716C161.733 161.508 161.644 161.267 161.621 161.017C161.621 160.575 161.998 160.389 162.459 160.604L172.96 165.462C173.194 165.577 173.393 165.746 173.54 165.955C173.686 166.163 173.775 166.404 173.798 166.654C173.798 167.094 173.42 167.282 172.96 167.068Z" fill="#CCC8CA"/>
<path d="M184.027 163.752L162.463 154.363C162.228 154.255 162.028 154.096 161.881 153.899C161.734 153.703 161.645 153.476 161.621 153.24C161.621 152.823 161.999 152.648 162.463 152.848L184.027 162.238C184.262 162.346 184.462 162.505 184.609 162.702C184.756 162.899 184.846 163.126 184.868 163.362C184.868 163.777 184.484 163.953 184.027 163.752Z" fill="#CCC8CA"/>
<path d="M184.027 168.172L162.463 157.844C162.228 157.725 162.028 157.55 161.881 157.334C161.734 157.118 161.645 156.868 161.621 156.609C161.621 156.15 161.999 155.957 162.463 156.178L184.027 166.506C184.261 166.625 184.462 166.8 184.609 167.016C184.756 167.232 184.845 167.481 184.868 167.741C184.868 168.2 184.484 168.393 184.027 168.172Z" fill="#CCC8CA"/>
<path d="M157.193 179.333L148.337 175.008V164.942L157.193 169.268V179.333Z" fill="#F64F59"/>
<path d="M172.96 177.031L162.459 172.17C162.226 172.056 162.027 171.887 161.88 171.679C161.733 171.471 161.644 171.231 161.621 170.981C161.621 170.539 161.998 170.353 162.459 170.565L172.96 175.424C173.194 175.539 173.393 175.709 173.539 175.917C173.686 176.125 173.775 176.366 173.798 176.616C173.798 177.058 173.42 177.244 172.96 177.031Z" fill="#CCC8CA"/>
<path d="M172.96 189.208L162.459 184.347C162.226 184.233 162.027 184.064 161.88 183.856C161.733 183.648 161.644 183.408 161.621 183.158C161.621 182.716 161.998 182.53 162.459 182.742L172.96 187.603C173.194 187.718 173.393 187.887 173.539 188.095C173.686 188.303 173.775 188.543 173.798 188.793C173.798 189.235 173.42 189.421 172.96 189.208Z" fill="#CCC8CA"/>
<path d="M184.027 186.991L162.463 176.663C162.228 176.545 162.028 176.369 161.881 176.153C161.733 175.936 161.644 175.686 161.621 175.427C161.621 174.97 161.999 174.775 162.463 174.997L184.027 185.325C184.261 185.444 184.462 185.619 184.609 185.835C184.756 186.051 184.845 186.3 184.868 186.56C184.868 187.019 184.484 187.212 184.027 186.991Z" fill="#CCC8CA"/>
<path d="M184.027 190.312L162.463 179.984C162.228 179.866 162.028 179.69 161.881 179.474C161.734 179.257 161.644 179.008 161.621 178.748C161.621 178.291 161.999 178.096 162.463 178.318L184.027 188.646C184.261 188.765 184.462 188.94 184.609 189.156C184.756 189.372 184.845 189.621 184.868 189.881C184.868 190.34 184.484 190.533 184.027 190.312Z" fill="#CCC8CA"/>
<path d="M157.193 201.473L148.337 197.148V187.082L157.193 191.407V201.473Z" fill="url(#paint7_linear_3_44)"/>
<path d="M172.96 199.17L162.459 194.311C162.226 194.197 162.026 194.027 161.88 193.819C161.733 193.611 161.644 193.37 161.621 193.12C161.621 192.679 161.998 192.492 162.459 192.706L172.96 197.565C173.194 197.68 173.393 197.849 173.539 198.058C173.686 198.266 173.775 198.506 173.798 198.756C173.798 199.199 173.42 199.384 172.96 199.17Z" fill="#CCC8CA"/>
<path d="M172.96 211.348L162.459 206.487C162.226 206.373 162.027 206.204 161.88 205.996C161.733 205.788 161.644 205.548 161.621 205.298C161.621 204.856 161.998 204.67 162.459 204.882L172.96 209.741C173.194 209.856 173.393 210.025 173.539 210.234C173.686 210.442 173.775 210.683 173.798 210.933C173.798 211.375 173.42 211.561 172.96 211.348Z" fill="#CCC8CA"/>
<path d="M184.027 209.13L162.463 198.803C162.228 198.685 162.028 198.509 161.881 198.292C161.734 198.076 161.644 197.826 161.621 197.567C161.621 197.11 161.999 196.915 162.463 197.137L184.027 207.464C184.261 207.582 184.462 207.758 184.609 207.974C184.756 208.191 184.845 208.441 184.868 208.7C184.868 209.159 184.484 209.352 184.027 209.13Z" fill="#CCC8CA"/>
<path d="M184.027 212.459L162.463 203.072C162.228 202.964 162.028 202.804 161.881 202.607C161.734 202.411 161.644 202.184 161.621 201.947C161.621 201.53 161.999 201.355 162.463 201.557L184.027 210.945C184.261 211.053 184.462 211.212 184.609 211.409C184.756 211.606 184.845 211.833 184.868 212.069C184.868 212.486 184.484 212.661 184.027 212.459Z" fill="#CCC8CA"/>
<path d="M238.004 142.802L193.724 121.64V109.593L238.004 130.753V142.802Z" fill="url(#paint8_linear_3_44)"/>
<path d="M48.2282 16.8876C49.3588 16.1969 49.399 14.2064 48.318 12.4418C47.2369 10.6772 45.444 9.8067 44.3134 10.4974C43.1827 11.1881 43.1425 13.1785 44.2236 14.9431C45.3046 16.7077 47.0975 17.5783 48.2282 16.8876Z" fill="#FF4D77"/>
<path d="M61.7733 23.768C62.9105 23.0789 62.9581 21.0816 61.8796 19.3068C60.8011 17.532 59.0049 16.6518 57.8677 17.3409C56.7306 18.03 56.683 20.0274 57.7615 21.8022C58.84 23.577 60.6361 24.4571 61.7733 23.768Z" fill="#FFE600"/>
<path d="M75.2757 27.8207C75.2757 29.5213 74.0369 30.3351 72.5082 29.641C70.9796 28.9469 69.7407 26.9956 69.7407 25.3119C69.7407 23.6281 70.9796 22.7975 72.5082 23.4934C74.0369 24.1894 75.2757 26.122 75.2757 27.8207Z" fill="#00F727"/>
<path d="M5.23445 135.053C5.23445 135.053 2.23348 139.716 3.74797 148.082C5.26246 156.449 7.93132 157.646 7.93132 157.646L9.78192 189.543C9.78192 189.543 6.08673 199.31 5.47053 209.676C4.85433 220.042 6.55087 233.797 6.55087 233.797C6.55087 233.797 5.67659 235.79 9.78192 235.79C13.8872 235.79 15.1196 232.999 15.1196 232.999C15.1196 232.999 18.6728 204.054 22.44 196.006C26.2072 187.958 25.385 140.308 25.385 140.308L5.23445 135.053Z" fill="#1E1E1E" fill-opacity="0.94"/>
<path d="M17.4275 143.485C17.4275 143.485 15.1131 148.704 18.2487 155.083C21.3843 161.462 25.3754 165.44 25.3754 165.44L28.6332 195.98C28.6332 195.98 25.446 207.673 25.3754 220.769C25.3047 233.864 25.3754 241.007 25.3754 241.007C25.3754 241.007 26.6739 244.329 31.5721 243.363C36.4703 242.396 35.884 239.816 35.884 239.816C35.884 239.816 38.2348 207.286 40.9789 194.391C43.723 181.497 40.406 138.375 40.406 138.375C40.406 138.375 30.5084 145.577 17.4275 143.485Z" fill="#1E1E1E" fill-opacity="0.94"/>
<path d="M6.36715 84.1316C6.36715 84.1316 2.63378 84.5793 0.727795 91.0308C-1.17819 97.4824 0.975371 116.978 3.54746 118.128C6.11956 119.278 13.1363 117.013 13.2817 116.353C13.4271 115.693 6.36715 84.1316 6.36715 84.1316Z" fill="#1E1E1E" fill-opacity="0.94"/>
<path d="M14.6179 79.7036C14.6179 79.7036 19.429 82.9051 25.5125 83.4419C31.596 83.9788 30.8874 88.3237 30.8874 88.3237C30.8874 88.3237 42.0658 91.2073 42.0658 95.9437C42.0658 100.68 40.085 138.542 40.085 138.542C40.085 138.542 38.6699 143.15 22.8231 143.869C6.97641 144.588 5.84315 135.375 5.84315 135.375C5.84315 135.375 7.11546 121.195 5.84315 109.066C4.57084 96.9359 2.72903 85.2287 7.68113 83.8722C12.6332 82.5156 14.6179 79.7036 14.6179 79.7036Z" fill="url(#paint9_linear_3_44)"/>
<path d="M43.7545 94.5448C40.7809 92.4572 32.9286 97.7856 34.53 107.34C36.1315 116.894 43.1723 131.865 45.648 131.732C48.1237 131.598 76.3793 129.205 76.3793 129.205C76.3793 129.205 76.5243 125.473 74.9229 123.474C73.3215 121.475 70.8654 121.518 70.8654 121.518C70.8654 121.518 53.763 121.324 52.8908 120.614C52.0185 119.904 46.7418 96.6421 43.7545 94.5448Z" fill="#1E1E1E" fill-opacity="0.94"/>
<path d="M76.0705 128.354C76.0705 128.354 78.3565 129.136 78.9934 124.922C79.6303 120.708 82.2645 119.85 82.9014 118.647C83.5383 117.445 81.6256 114.608 79.0742 115.211C76.5227 115.814 73.2728 119.771 71.9547 122.215C71.9663 122.215 75.5395 123.458 76.0705 128.354Z" fill="#FFC3C2"/>
<path d="M35.0687 63.5233C35.0687 63.5233 36.5309 66.937 36.5309 68.6314C36.5309 70.3257 35.7988 77.5896 35.0687 78.478C34.3386 79.3663 30.6841 79.688 29.9521 80.494C29.22 81.3 28.5727 84.1317 28.5727 84.1317L15.4979 80.7429C16.5976 77.9594 17.4932 75.1005 18.1776 72.1886C19.2333 67.5937 20.7764 63.4314 24.8374 61.4345C28.8983 59.4376 35.0687 63.5233 35.0687 63.5233Z" fill="#FFC3C2"/>
<path d="M37.5734 60.6621C38.151 64.1363 34.7314 68.8128 31.9722 69.7569C29.213 70.7009 31.5659 72.5644 30.5935 73.1551C29.6212 73.7458 29.4556 70.7769 28.1578 71.1378C26.86 71.4987 28.7258 76.4659 25.9262 77.9076C23.1265 79.3494 16.3893 78.6295 14.0344 74.7849C11.6796 70.9403 11.4389 61.8075 14.0344 59.0893C16.63 56.3711 19.0676 56.5933 19.0676 56.5933C19.0676 56.5933 20.7717 53.0071 28.4832 54.6938C36.1947 56.3806 37.5734 60.6621 37.5734 60.6621Z" fill="url(#paint10_linear_3_44)"/>
<path d="M16.2491 56.4845C16.2491 56.4845 18.3502 56.4845 18.7437 61.1749C19.1372 65.8653 17.8593 66.8737 17.8593 66.8737H16.2491C16.2491 66.8737 20.6767 81.3728 16.2491 89.8565C11.8216 98.3402 2.21399 94.1834 2.21399 94.1834C2.21399 94.1834 8.11609 87.4683 5.4611 81.7011C2.80611 75.9339 2.56353 63.4966 7.4743 60.6961C12.3851 57.8955 13.6018 58.8825 13.6018 58.8825C13.6018 58.8825 14.3162 56.1542 16.2491 56.4845Z" fill="url(#paint11_linear_3_44)"/>
<path d="M25.3986 241.325C25.3986 241.325 24.415 242.435 24.3727 247.01C24.3304 251.585 24.3727 255.175 24.3727 255.175C24.3727 255.175 26.9932 256.372 26.8702 255.175C26.7473 253.978 27.5849 249.429 28.6569 249.668C29.7289 249.907 31.3984 255.999 36.1629 255.706C40.9274 255.412 45.934 253.619 45.3384 250.984C44.7429 248.35 42.9542 247.595 41.0484 247.614C39.1426 247.633 37.7133 249.17 36.282 248.521C34.8508 247.873 34.8681 242.387 34.8681 242.387C34.8681 242.387 29.1641 244.952 25.3986 241.325Z" fill="url(#paint12_linear_3_44)"/>
<path d="M7.44828 234.306C7.44828 234.306 6.66319 244.726 6.64198 246.445C6.64198 247.054 9.30201 247.054 9.72831 246.034C11.2715 242.39 9.84791 240.508 11.0439 240.712C12.2398 240.917 14.8863 243.934 16.6128 244.054C18.3392 244.175 25.4686 240.671 25.4609 239.344C25.4532 238.016 23.4856 235.363 22.0486 235.967C20.6115 236.57 19.0587 238.02 17.5039 237.053C15.9492 236.085 14.5661 233.576 14.5661 233.576C14.5661 233.576 10.6677 235.544 7.44828 234.306Z" fill="url(#paint13_linear_3_44)"/>
<defs>
<linearGradient id="paint0_linear_3_44" x1="35.4239" y1="9.96296" x2="248.521" y2="111.807" gradientUnits="userSpaceOnUse">
<stop stop-color="#12C2E9"/>
<stop offset="0.5" stop-color="#C471ED"/>
<stop offset="1" stop-color="#F64F59"/>
</linearGradient>
<linearGradient id="paint1_linear_3_44" x1="42.0658" y1="82.5153" x2="144.507" y2="127.98" gradientUnits="userSpaceOnUse">
<stop stop-color="#12C2E9"/>
<stop offset="0.5" stop-color="#C471ED"/>
<stop offset="1" stop-color="#F64F59"/>
</linearGradient>
<linearGradient id="paint2_linear_3_44" x1="49.8148" y1="117.851" x2="105.164" y2="129.65" gradientUnits="userSpaceOnUse">
<stop stop-color="#12C2E9"/>
<stop offset="0.5" stop-color="#C471ED"/>
<stop offset="1" stop-color="#F64F59"/>
</linearGradient>
<linearGradient id="paint3_linear_3_44" x1="49.8148" y1="133.045" x2="101.882" y2="148.215" gradientUnits="userSpaceOnUse">
<stop stop-color="#12C2E9"/>
<stop offset="0.5" stop-color="#C471ED"/>
<stop offset="1" stop-color="#F64F59"/>
</linearGradient>
<linearGradient id="paint4_linear_3_44" x1="81.5309" y1="134.457" x2="85.4743" y2="140.952" gradientUnits="userSpaceOnUse">
<stop stop-color="#EE17B2"/>
<stop offset="1" stop-color="#01C2FF"/>
</linearGradient>
<linearGradient id="paint5_linear_3_44" x1="152.765" y1="98.5227" x2="152.765" y2="111.807" gradientUnits="userSpaceOnUse">
<stop stop-color="#EE17B2"/>
<stop offset="1" stop-color="#01C2FF"/>
</linearGradient>
<linearGradient id="paint6_linear_3_44" x1="152.765" y1="142.802" x2="152.765" y2="157.193" gradientUnits="userSpaceOnUse">
<stop stop-color="#EE17B2"/>
<stop offset="1" stop-color="#01C2FF"/>
</linearGradient>
<linearGradient id="paint7_linear_3_44" x1="152.765" y1="187.082" x2="152.765" y2="201.473" gradientUnits="userSpaceOnUse">
<stop stop-color="#EE17B2"/>
<stop offset="1" stop-color="#01C2FF"/>
</linearGradient>
<linearGradient id="paint8_linear_3_44" x1="193.724" y1="112.238" x2="241.913" y2="130.5" gradientUnits="userSpaceOnUse">
<stop stop-color="#12C2E9"/>
<stop offset="0.5" stop-color="#C471ED"/>
<stop offset="1" stop-color="#F64F59"/>
</linearGradient>
<linearGradient id="paint9_linear_3_44" x1="23.2469" y1="79.7036" x2="23.2469" y2="143.909" gradientUnits="userSpaceOnUse">
<stop stop-color="#EE17B2"/>
<stop offset="1" stop-color="#01C2FF"/>
</linearGradient>
<linearGradient id="paint10_linear_3_44" x1="12.1783" y1="66.4176" x2="37.635" y2="66.4176" gradientUnits="userSpaceOnUse">
<stop stop-color="#3A4151"/>
<stop offset="1" stop-color="#272735"/>
</linearGradient>
<linearGradient id="paint11_linear_3_44" x1="2.21399" y1="75.8245" x2="18.822" y2="75.8245" gradientUnits="userSpaceOnUse">
<stop stop-color="#3A4151"/>
<stop offset="1" stop-color="#272735"/>
</linearGradient>
<linearGradient id="paint12_linear_3_44" x1="24.3535" y1="248.521" x2="45.3903" y2="248.521" gradientUnits="userSpaceOnUse">
<stop stop-color="#3A4151"/>
<stop offset="1" stop-color="#272735"/>
</linearGradient>
<linearGradient id="paint13_linear_3_44" x1="6.64198" y1="240.218" x2="25.4648" y2="240.218" gradientUnits="userSpaceOnUse">
<stop stop-color="#3A4151"/>
<stop offset="1" stop-color="#272735"/>
</linearGradient>
</defs>
</svg>
