<svg width="330" height="368" viewBox="0 0 330 368" fill="none" xmlns="http://www.w3.org/2000/svg">
<path d="M132.13 191.629L92.52 214.499C90.9076 215.55 89.7644 217.184 89.33 219.059L79.49 275.889C79.3801 276.775 79.5227 277.674 79.9013 278.482C80.2799 279.291 80.8791 279.976 81.63 280.459L107.17 295.199C107.994 295.618 108.906 295.836 109.83 295.836C110.755 295.836 111.666 295.618 112.49 295.199L167.07 263.689C167.874 263.264 168.546 262.628 169.016 261.849C169.485 261.07 169.733 260.178 169.733 259.269C169.733 258.36 169.485 257.468 169.016 256.689C168.546 255.91 167.874 255.274 167.07 254.849L147.43 243.509C146.636 242.997 145.958 242.324 145.441 241.533C144.924 240.742 144.58 239.852 144.43 238.919L140.06 196.039C139.933 195.134 139.618 194.265 139.133 193.49C138.649 192.715 138.008 192.05 137.25 191.539C136.449 191.153 135.568 190.961 134.679 190.976C133.79 190.992 132.917 191.215 132.13 191.629Z" fill="#263238"/>
<path d="M109.83 285.219V295.849C110.756 295.863 111.671 295.642 112.49 295.209L167.07 263.699C167.829 263.223 168.466 262.574 168.928 261.806C169.39 261.038 169.665 260.173 169.73 259.279C169.677 258.235 169.311 257.231 168.68 256.399H159.75L109.83 285.219Z" fill="#455A64"/>
<path d="M137.12 194.529L97.51 217.389C95.8978 218.442 94.7576 220.081 94.33 221.959L85.37 273.539C85.2589 274.425 85.401 275.324 85.7797 276.133C86.1584 276.942 86.7583 277.627 87.51 278.109L107.15 289.449C107.976 289.863 108.886 290.079 109.81 290.079C110.734 290.079 111.645 289.863 112.47 289.449L167.07 257.929C168.54 257.079 168.54 255.709 167.07 254.859L147.43 243.519C146.636 243.007 145.958 242.334 145.441 241.543C144.924 240.752 144.58 239.862 144.43 238.929L140.06 196.049C140.069 195.704 139.98 195.363 139.804 195.066C139.628 194.769 139.372 194.527 139.066 194.369C138.759 194.21 138.414 194.141 138.07 194.17C137.726 194.198 137.397 194.322 137.12 194.529Z" fill="#263238"/>
<path d="M167.07 254.859L147.43 243.519C146.643 243.022 145.977 242.356 145.48 241.569L85.77 276.049C86.1288 276.901 86.7439 277.621 87.53 278.109L107.17 289.449C107.995 289.863 108.906 290.079 109.83 290.079C110.754 290.079 111.664 289.863 112.49 289.449L167.07 257.929C168.54 257.079 168.54 255.709 167.07 254.859Z" fill="#37474F"/>
<path d="M6.26 304.629L3.73 303.169C2.64401 302.461 1.74024 301.508 1.09213 300.385C0.444021 299.263 0.069842 298.003 0 296.709V126.629C0.0705551 125.337 0.445194 124.081 1.09338 122.962C1.74157 121.843 2.64498 120.893 3.73 120.189L211.53 0.888824C212.685 0.304476 213.961 0 215.255 0C216.549 0 217.825 0.304476 218.98 0.888824L220.92 2.00883C222.005 2.71412 222.908 3.66621 223.554 4.78725C224.201 5.90829 224.573 7.16644 224.64 8.45883V178.629C224.571 179.921 224.197 181.178 223.551 182.299C222.905 183.419 222.003 184.372 220.92 185.079L13.71 304.629C12.5559 305.215 11.2796 305.521 9.985 305.521C8.69038 305.521 7.41406 305.215 6.26 304.629Z" fill="#455A64"/>
<path d="M14.98 131.009L1.10001 123.009C0.425533 124.118 0.0467943 125.382 0 126.679V296.749C0.069842 298.043 0.444021 299.303 1.09213 300.425C1.74024 301.548 2.64401 302.501 3.73 303.209L6.26 304.629C7.41406 305.216 8.69038 305.521 9.985 305.521C11.2796 305.521 12.5559 305.216 13.71 304.629L14.98 303.899V131.009Z" fill="#263238"/>
<path d="M9.99001 302.519V132.429C10.0603 131.137 10.4337 129.88 11.0799 128.76C11.7262 127.639 12.6272 126.686 13.71 125.979L220.92 6.34883C222.98 5.15883 224.64 6.11883 224.64 8.49883V178.629C224.571 179.921 224.197 181.178 223.551 182.299C222.905 183.419 222.003 184.372 220.92 185.079L13.71 304.629C11.66 305.859 9.99001 304.889 9.99001 302.519Z" fill="#37474F"/>
<path d="M107.29 239.119L126.92 227.779C128.39 226.929 129.59 227.539 129.59 229.129C129.523 230.023 129.246 230.889 128.782 231.657C128.318 232.425 127.68 233.073 126.92 233.549L107.29 244.879C105.82 245.729 104.63 245.129 104.63 243.539C104.695 242.645 104.97 241.779 105.432 241.011C105.895 240.243 106.531 239.595 107.29 239.119Z" fill="#E0E0E0"/>
<path d="M19.53 131.179L214.68 18.1788C215.85 17.4988 216.8 18.0388 216.8 19.3988V167.629C216.761 168.367 216.549 169.086 216.181 169.727C215.812 170.368 215.298 170.913 214.68 171.319L19.54 284.009C18.36 284.689 17.41 284.139 17.41 282.789V134.869C17.449 134.131 17.6612 133.412 18.0295 132.771C18.3978 132.13 18.9118 131.584 19.53 131.179Z" fill="black"/>
<path d="M26.81 134.019L205.85 30.6288C209.1 28.7588 211.76 30.2888 211.76 34.0388V162.789C211.707 163.74 211.432 164.665 210.956 165.49C210.48 166.315 209.817 167.017 209.02 167.539L25.75 273.329C24.24 274.209 23.01 273.489 23.01 271.749V140.629C23.0803 139.306 23.4609 138.019 24.1211 136.87C24.7812 135.722 25.7024 134.745 26.81 134.019Z" fill="#4D4D4D"/>
<path d="M100.22 111.539L198.89 54.5688V74.3888L100.22 131.349V111.539Z" fill="url(#paint0_radial_3_694)"/>
<path d="M100.22 139.199L198.89 82.2288V131.869L100.22 188.839V139.199Z" fill="url(#paint1_linear_3_694)"/>
<path d="M211.76 37.1588V34.0688C211.76 30.3188 209.1 28.7888 205.85 30.6588L26.85 134.019C25.745 134.743 24.8255 135.717 24.1655 136.861C23.5055 138.006 23.1234 139.29 23.05 140.609V146.119L211.76 37.1588Z" fill="url(#paint2_radial_3_694)"/>
<path d="M186.98 44.1788C186.394 44.5701 185.908 45.0932 185.561 45.7062C185.213 46.3192 185.014 47.0051 184.98 47.7088C184.98 49.0088 185.89 49.5288 186.98 48.8788C187.566 48.4903 188.053 47.9692 188.4 47.3576C188.748 46.7461 188.946 46.0614 188.98 45.3588C189.02 44.0588 188.11 43.5388 186.98 44.1788Z" fill="#00F627"/>
<path d="M195.06 39.5188C194.473 39.9089 193.986 40.4318 193.639 41.045C193.291 41.6583 193.093 42.3447 193.06 43.0488C193.06 44.3388 193.97 44.8688 195.06 44.2188C195.645 43.8285 196.13 43.307 196.477 42.6958C196.824 42.0847 197.024 41.4008 197.06 40.6988C197.09 39.3988 196.18 38.8688 195.06 39.5188Z" fill="#FFE600"/>
<path d="M203.13 34.8588C202.545 35.2491 202.06 35.7707 201.713 36.3818C201.366 36.993 201.166 37.6768 201.13 38.3788C201.13 39.6788 202.04 40.2088 203.13 39.5588C203.717 39.1687 204.204 38.6459 204.551 38.0326C204.899 37.4194 205.097 36.7329 205.13 36.0288C205.17 34.7388 204.26 34.2088 203.13 34.8588Z" fill="#FF4D77"/>
<path d="M31.58 216.629C31.3976 216.627 31.2186 216.579 31.06 216.489C30.8994 216.397 30.7657 216.265 30.6727 216.105C30.5796 215.945 30.5304 215.764 30.53 215.579V151.179C30.524 150.994 30.5694 150.811 30.6612 150.65C30.753 150.49 30.8876 150.358 31.05 150.269L86.73 118.009C86.8918 117.918 87.0743 117.87 87.26 117.87C87.4457 117.87 87.6282 117.918 87.79 118.009C87.9514 118.102 88.0854 118.236 88.1785 118.398C88.2715 118.559 88.3204 118.742 88.32 118.929V183.379C88.3196 183.564 88.2704 183.745 88.1773 183.905C88.0843 184.065 87.9506 184.197 87.79 184.289L32.11 216.489C31.9483 216.58 31.7658 216.629 31.58 216.629ZM32.64 151.789V213.789L86.21 182.789V120.789L32.64 151.789Z" fill="url(#paint3_radial_3_694)"/>
<path d="M50.77 193.379C48.8219 193.4 46.9031 192.903 45.21 191.939C41.21 189.629 39 184.849 39 178.459C39 165.779 47.92 150.279 58.89 143.929C64.4 140.739 69.64 140.249 73.64 142.559C77.64 144.869 79.85 149.649 79.85 156.039C79.85 168.739 70.92 184.229 59.95 190.579C57.1871 192.298 54.022 193.263 50.77 193.379ZM68.08 143.239C65.1962 143.353 62.3928 144.222 59.95 145.759C49.56 151.759 41.11 166.449 41.11 178.459C41.11 184.059 42.94 188.199 46.26 190.109C49.58 192.019 54.07 191.539 58.89 188.749C69.28 182.749 77.74 168.069 77.74 156.039C77.74 150.439 75.91 146.299 72.58 144.389C71.2088 143.613 69.6555 143.216 68.08 143.239Z" fill="url(#paint4_linear_3_694)"/>
<path d="M269.89 225.259L266.02 223.019C265.928 222.97 265.825 222.944 265.72 222.944C265.615 222.944 265.512 222.97 265.42 223.019L258.42 226.169C258.31 226.222 258.189 226.249 258.067 226.25C257.944 226.25 257.824 226.224 257.713 226.172C257.602 226.12 257.504 226.045 257.426 225.951C257.347 225.857 257.291 225.747 257.26 225.629C256.882 224.413 256.358 223.248 255.7 222.159C255.552 221.905 255.465 221.62 255.446 221.327C255.427 221.034 255.476 220.74 255.59 220.469L260.25 211.069C260.365 210.831 260.387 210.558 260.311 210.304C260.235 210.051 260.067 209.835 259.84 209.699L254.78 206.779C254.668 206.708 254.543 206.659 254.412 206.637C254.281 206.614 254.147 206.618 254.018 206.648C253.888 206.677 253.766 206.733 253.658 206.81C253.551 206.888 253.459 206.986 253.39 207.099L247.58 215.839C247.398 216.069 247.167 216.257 246.905 216.388C246.642 216.52 246.354 216.592 246.06 216.599C245.392 216.581 244.724 216.611 244.06 216.689V210.299L240.17 208.059C240.069 208.013 239.957 207.995 239.847 208.006C239.737 208.016 239.631 208.055 239.54 208.119L231.68 212.659C231.43 212.823 231.216 213.037 231.054 213.289C230.892 213.54 230.785 213.823 230.74 214.119L229.96 222.869C229.87 223.487 229.582 224.058 229.14 224.499C227.583 225.941 226.123 227.484 224.77 229.119C224.582 229.331 224.337 229.486 224.064 229.563C223.791 229.641 223.502 229.64 223.23 229.559L218.18 227.799C217.921 227.718 217.641 227.724 217.386 227.819C217.131 227.913 216.914 228.089 216.77 228.319L210.99 238.319C210.86 238.56 210.814 238.837 210.859 239.107C210.904 239.377 211.038 239.624 211.24 239.809L215.29 243.299C215.496 243.495 215.643 243.746 215.712 244.022C215.781 244.299 215.77 244.589 215.68 244.859C214.938 246.845 214.333 248.88 213.87 250.949C213.706 251.549 213.356 252.081 212.87 252.469L205.69 257.519C205.456 257.707 205.263 257.942 205.126 258.209C204.988 258.476 204.908 258.769 204.89 259.069V268.139C204.88 268.253 204.901 268.368 204.95 268.472C205 268.575 205.075 268.664 205.17 268.729L209.04 270.959L214.79 268.239C215.003 268.698 215.24 269.145 215.5 269.579C215.648 269.833 215.735 270.118 215.754 270.411C215.773 270.704 215.724 270.998 215.61 271.269L210.95 280.669C210.835 280.907 210.813 281.18 210.889 281.434C210.965 281.687 211.133 281.903 211.36 282.039L216.42 284.959C216.65 285.088 216.92 285.127 217.177 285.068C217.434 285.009 217.66 284.856 217.81 284.639L223.62 275.899C223.802 275.668 224.033 275.481 224.295 275.349C224.558 275.218 224.846 275.146 225.14 275.139C226.414 275.166 227.687 275.038 228.93 274.759C229.048 274.726 229.173 274.72 229.294 274.741C229.415 274.762 229.53 274.809 229.63 274.88C229.731 274.951 229.814 275.043 229.875 275.15C229.935 275.257 229.971 275.376 229.98 275.499L230.74 283.129C230.743 283.238 230.773 283.344 230.827 283.438C230.881 283.532 230.958 283.611 231.05 283.669L234.92 285.899L239.56 279.079C239.812 278.914 240.025 278.698 240.187 278.445C240.349 278.191 240.456 277.906 240.5 277.609L241.28 268.869C241.326 268.584 241.441 268.314 241.615 268.084C241.789 267.854 242.018 267.67 242.28 267.549C244.583 266.548 246.659 265.088 248.38 263.259C248.582 263.058 248.834 262.914 249.11 262.842C249.385 262.77 249.675 262.772 249.95 262.849L253.05 263.939C253.31 264.021 253.591 264.014 253.847 263.918C254.102 263.821 254.318 263.642 254.46 263.409L260.24 253.409C260.37 253.168 260.416 252.891 260.371 252.621C260.325 252.351 260.191 252.104 259.99 251.919L257.33 249.619C257.124 249.42 256.975 249.169 256.898 248.893C256.821 248.618 256.818 248.326 256.89 248.049C257.471 245.678 257.717 243.238 257.62 240.799C257.623 240.503 257.692 240.211 257.822 239.945C257.951 239.678 258.139 239.444 258.37 239.259L265.55 234.199C265.784 234.013 265.977 233.78 266.115 233.515C266.253 233.249 266.333 232.958 266.35 232.659L269.78 228.549L269.89 225.259ZM235.57 261.259C228.24 265.499 223.68 262.489 223.68 254.029C223.68 245.569 229.74 235.189 237.07 230.959C244.4 226.729 248.85 229.799 248.85 238.269C248.85 246.739 242.9 256.989 235.57 261.219V261.259Z" fill="#12C2E9"/>
<path opacity="0.1" d="M269.89 225.259L266.02 223.019C265.928 222.97 265.825 222.944 265.72 222.944C265.615 222.944 265.512 222.97 265.42 223.019L258.42 226.169C258.31 226.222 258.189 226.249 258.067 226.25C257.944 226.25 257.824 226.224 257.713 226.172C257.602 226.12 257.504 226.045 257.426 225.951C257.347 225.857 257.291 225.747 257.26 225.629C256.882 224.413 256.358 223.248 255.7 222.159C255.552 221.905 255.465 221.62 255.446 221.327C255.427 221.034 255.476 220.74 255.59 220.469L260.25 211.069C260.365 210.831 260.387 210.558 260.311 210.304C260.235 210.051 260.067 209.835 259.84 209.699L254.78 206.779C254.668 206.708 254.543 206.659 254.412 206.637C254.281 206.614 254.147 206.618 254.018 206.648C253.888 206.677 253.766 206.733 253.658 206.81C253.551 206.888 253.459 206.986 253.39 207.099L247.58 215.839C247.398 216.069 247.167 216.257 246.905 216.388C246.642 216.52 246.354 216.592 246.06 216.599C245.392 216.581 244.724 216.611 244.06 216.689V210.299L240.17 208.059C240.069 208.013 239.957 207.995 239.847 208.006C239.737 208.016 239.631 208.055 239.54 208.119L231.68 212.659C231.43 212.823 231.216 213.037 231.054 213.289C230.892 213.54 230.785 213.823 230.74 214.119L229.96 222.869C229.87 223.487 229.582 224.058 229.14 224.499C227.583 225.941 226.123 227.484 224.77 229.119C224.582 229.331 224.337 229.486 224.064 229.563C223.791 229.641 223.502 229.64 223.23 229.559L218.18 227.799C217.921 227.718 217.641 227.724 217.386 227.819C217.131 227.913 216.914 228.089 216.77 228.319L210.99 238.319C210.86 238.56 210.814 238.837 210.859 239.107C210.904 239.377 211.038 239.624 211.24 239.809L215.29 243.299C215.496 243.495 215.643 243.746 215.712 244.022C215.781 244.299 215.77 244.589 215.68 244.859C214.938 246.845 214.333 248.88 213.87 250.949C213.706 251.549 213.356 252.081 212.87 252.469L205.69 257.519C205.456 257.707 205.263 257.942 205.126 258.209C204.988 258.476 204.908 258.769 204.89 259.069V268.139C204.88 268.253 204.901 268.368 204.95 268.472C205 268.575 205.075 268.664 205.17 268.729L209.04 270.959L214.79 268.239C215.003 268.698 215.24 269.145 215.5 269.579C215.648 269.833 215.735 270.118 215.754 270.411C215.773 270.704 215.724 270.998 215.61 271.269L210.95 280.669C210.835 280.907 210.813 281.18 210.889 281.434C210.965 281.687 211.133 281.903 211.36 282.039L216.42 284.959C216.65 285.088 216.92 285.127 217.177 285.068C217.434 285.009 217.66 284.856 217.81 284.639L223.62 275.899C223.802 275.668 224.033 275.481 224.295 275.349C224.558 275.218 224.846 275.146 225.14 275.139C226.414 275.166 227.687 275.038 228.93 274.759C229.048 274.726 229.173 274.72 229.294 274.741C229.415 274.762 229.53 274.809 229.63 274.88C229.731 274.951 229.814 275.043 229.875 275.15C229.935 275.257 229.971 275.376 229.98 275.499L230.74 283.129C230.743 283.238 230.773 283.344 230.827 283.438C230.881 283.532 230.958 283.611 231.05 283.669L234.92 285.899L239.56 279.079C239.812 278.914 240.025 278.698 240.187 278.445C240.349 278.191 240.456 277.906 240.5 277.609L241.28 268.869C241.326 268.584 241.441 268.314 241.615 268.084C241.789 267.854 242.018 267.67 242.28 267.549C244.583 266.548 246.659 265.088 248.38 263.259C248.582 263.058 248.834 262.914 249.11 262.842C249.385 262.77 249.675 262.772 249.95 262.849L253.05 263.939C253.31 264.021 253.591 264.014 253.847 263.918C254.102 263.821 254.318 263.642 254.46 263.409L260.24 253.409C260.37 253.168 260.416 252.891 260.371 252.621C260.325 252.351 260.191 252.104 259.99 251.919L257.33 249.619C257.124 249.42 256.975 249.169 256.898 248.893C256.821 248.618 256.818 248.326 256.89 248.049C257.471 245.678 257.717 243.238 257.62 240.799C257.623 240.503 257.692 240.211 257.822 239.945C257.951 239.678 258.139 239.444 258.37 239.259L265.55 234.199C265.784 234.013 265.977 233.78 266.115 233.515C266.253 233.249 266.333 232.958 266.35 232.659L269.78 228.549L269.89 225.259ZM235.57 261.259C228.24 265.499 223.68 262.489 223.68 254.029C223.68 245.569 229.74 235.189 237.07 230.959C244.4 226.729 248.85 229.799 248.85 238.269C248.85 246.739 242.9 256.989 235.57 261.219V261.259Z" fill="black"/>
<path d="M258.7 214.199L260.24 211.089C260.355 210.851 260.377 210.578 260.301 210.324C260.225 210.071 260.057 209.855 259.83 209.719L254.77 206.799C254.658 206.728 254.533 206.679 254.402 206.657C254.271 206.634 254.137 206.638 254.008 206.668C253.878 206.697 253.756 206.753 253.649 206.83C253.541 206.908 253.449 207.006 253.38 207.119L247.57 215.859C247.46 216.002 247.329 216.127 247.18 216.229L253.68 219.989L258.7 214.199Z" fill="#12C2E9"/>
<path d="M213.37 251.909C213.224 252.137 213.038 252.337 212.82 252.499L205.64 257.549C205.448 257.699 205.288 257.886 205.17 258.099L209.55 260.629L219.08 255.199L213.37 251.909Z" fill="#12C2E9"/>
<path d="M217.74 227.759C217.539 227.766 217.342 227.823 217.168 227.924C216.993 228.025 216.846 228.168 216.74 228.339L210.96 238.339C210.843 238.563 210.797 238.818 210.83 239.069L215.83 241.949L223.74 231.249L217.74 227.759Z" fill="#12C2E9"/>
<path d="M230.86 213.629L237.02 217.189L244.02 213.189V210.369L240.13 208.129C240.029 208.083 239.917 208.065 239.807 208.076C239.697 208.086 239.591 208.125 239.5 208.189L231.64 212.729C231.298 212.947 231.027 213.26 230.86 213.629Z" fill="#12C2E9"/>
<path d="M269.89 225.259C269.795 225.206 269.688 225.179 269.58 225.179C269.472 225.179 269.365 225.206 269.27 225.259L262.27 228.419C262.16 228.471 262.039 228.499 261.917 228.5C261.795 228.5 261.674 228.474 261.563 228.422C261.452 228.37 261.354 228.295 261.276 228.201C261.197 228.107 261.141 227.997 261.11 227.879C260.85 227.031 260.515 226.208 260.11 225.419L265.37 223.029C265.465 222.981 265.569 222.957 265.675 222.957C265.781 222.957 265.885 222.981 265.98 223.029L269.89 225.259Z" fill="#12C2E9"/>
<g opacity="0.4">
<path d="M258.7 214.199L260.24 211.089C260.355 210.851 260.377 210.578 260.301 210.324C260.225 210.071 260.057 209.855 259.83 209.719L254.77 206.799C254.658 206.728 254.533 206.679 254.402 206.657C254.271 206.634 254.137 206.638 254.008 206.668C253.878 206.697 253.756 206.753 253.649 206.83C253.541 206.908 253.449 207.006 253.38 207.119L247.57 215.859C247.46 216.002 247.329 216.127 247.18 216.229L253.68 219.989L258.7 214.199Z" fill="white"/>
<path d="M213.37 251.909C213.224 252.137 213.038 252.337 212.82 252.499L205.64 257.549C205.448 257.699 205.288 257.886 205.17 258.099L209.55 260.629L219.08 255.199L213.37 251.909Z" fill="white"/>
<path d="M217.74 227.759C217.539 227.766 217.342 227.823 217.168 227.924C216.993 228.025 216.846 228.168 216.74 228.339L210.96 238.339C210.843 238.563 210.797 238.818 210.83 239.069L215.83 241.949L223.74 231.249L217.74 227.759Z" fill="white"/>
<path d="M230.86 213.629L237.02 217.189L244.02 213.189V210.369L240.13 208.129C240.029 208.083 239.917 208.065 239.807 208.076C239.697 208.086 239.591 208.125 239.5 208.189L231.64 212.729C231.298 212.947 231.027 213.26 230.86 213.629Z" fill="white"/>
<path d="M269.89 225.259C269.795 225.206 269.688 225.179 269.58 225.179C269.472 225.179 269.365 225.206 269.27 225.259L262.27 228.419C262.16 228.472 262.039 228.499 261.917 228.5C261.795 228.5 261.674 228.474 261.563 228.422C261.452 228.37 261.354 228.295 261.276 228.201C261.197 228.107 261.141 227.997 261.11 227.879C260.85 227.031 260.515 226.208 260.11 225.419L265.37 223.029C265.465 222.981 265.569 222.957 265.675 222.957C265.781 222.957 265.885 222.981 265.98 223.029L269.89 225.259Z" fill="white"/>
</g>
<path d="M270.17 234.919V225.839C270.185 225.727 270.169 225.614 270.122 225.512C270.075 225.409 270 225.322 269.905 225.261C269.811 225.2 269.701 225.168 269.588 225.167C269.475 225.167 269.365 225.199 269.27 225.259L262.27 228.419C262.159 228.471 262.038 228.499 261.915 228.5C261.792 228.5 261.67 228.474 261.559 228.422C261.447 228.371 261.348 228.295 261.269 228.202C261.19 228.108 261.132 227.998 261.1 227.879C260.722 226.663 260.198 225.498 259.54 224.409C259.396 224.153 259.312 223.868 259.295 223.576C259.277 223.283 259.327 222.99 259.44 222.719L264.1 213.309C264.214 213.071 264.233 212.799 264.156 212.547C264.078 212.295 263.908 212.081 263.68 211.949L258.62 209.019C258.389 208.891 258.118 208.854 257.861 208.915C257.604 208.976 257.379 209.131 257.23 209.349L251.42 218.089C251.241 218.322 251.011 218.512 250.748 218.642C250.484 218.772 250.194 218.839 249.9 218.839C248.629 218.816 247.36 218.947 246.12 219.229C246.002 219.262 245.877 219.268 245.756 219.247C245.635 219.226 245.52 219.178 245.42 219.108C245.319 219.037 245.236 218.945 245.175 218.838C245.115 218.731 245.079 218.612 245.07 218.489L244.3 210.849C244.302 210.738 244.273 210.628 244.216 210.533C244.159 210.437 244.075 210.36 243.976 210.31C243.877 210.259 243.765 210.238 243.654 210.249C243.544 210.259 243.438 210.301 243.35 210.369L235.5 214.909C235.249 215.072 235.035 215.286 234.873 215.538C234.711 215.789 234.604 216.073 234.56 216.369L233.77 225.119C233.677 225.736 233.39 226.307 232.95 226.749C231.394 228.188 229.937 229.732 228.59 231.369C228.4 231.582 228.154 231.737 227.879 231.815C227.604 231.893 227.313 231.891 227.04 231.809L222.04 230.049C221.779 229.965 221.498 229.971 221.241 230.065C220.983 230.159 220.765 230.337 220.62 230.569L214.85 240.569C214.718 240.809 214.671 241.087 214.717 241.357C214.762 241.628 214.897 241.875 215.1 242.059L219.15 245.549C219.355 245.744 219.501 245.993 219.57 246.267C219.639 246.542 219.629 246.83 219.54 247.099C218.801 249.09 218.193 251.128 217.72 253.199C217.558 253.799 217.207 254.332 216.72 254.719L209.55 259.719C209.312 259.904 209.117 260.139 208.977 260.406C208.837 260.673 208.756 260.968 208.74 261.269V270.339C208.724 270.45 208.741 270.564 208.788 270.666C208.835 270.769 208.91 270.855 209.005 270.916C209.099 270.977 209.209 271.01 209.322 271.01C209.435 271.011 209.545 270.979 209.64 270.919L216.64 267.769C216.751 267.715 216.872 267.686 216.996 267.684C217.119 267.683 217.241 267.709 217.354 267.76C217.466 267.812 217.565 267.888 217.644 267.983C217.723 268.078 217.779 268.189 217.81 268.309C218.179 269.544 218.703 270.726 219.37 271.829C219.511 272.087 219.593 272.374 219.61 272.668C219.627 272.962 219.579 273.256 219.47 273.529L214.81 282.929C214.697 283.168 214.677 283.44 214.752 283.692C214.828 283.945 214.995 284.161 215.22 284.299L220.28 287.219C220.512 287.35 220.785 287.389 221.044 287.328C221.304 287.267 221.531 287.11 221.68 286.889L227.49 278.159C227.672 277.928 227.903 277.741 228.165 277.609C228.428 277.478 228.716 277.406 229.01 277.399C230.281 277.426 231.55 277.298 232.79 277.019C232.908 276.986 233.033 276.98 233.154 277.001C233.275 277.022 233.39 277.069 233.49 277.14C233.591 277.211 233.674 277.303 233.735 277.41C233.795 277.517 233.831 277.636 233.84 277.759L234.61 285.389C234.606 285.501 234.633 285.612 234.69 285.709C234.746 285.806 234.829 285.885 234.929 285.936C235.029 285.988 235.141 286.01 235.253 285.999C235.365 285.989 235.471 285.947 235.56 285.879L243.41 281.339C243.662 281.174 243.875 280.958 244.037 280.705C244.199 280.451 244.306 280.166 244.35 279.869L245.14 271.129C245.235 270.51 245.522 269.937 245.96 269.489C247.516 268.049 248.973 266.506 250.32 264.869C250.511 264.66 250.756 264.509 251.028 264.433C251.301 264.357 251.589 264.359 251.86 264.439L256.91 266.199C257.172 266.28 257.453 266.272 257.71 266.176C257.967 266.08 258.185 265.902 258.33 265.669L264.1 255.669C264.229 255.43 264.275 255.154 264.229 254.886C264.184 254.618 264.051 254.372 263.85 254.189L259.8 250.699C259.595 250.502 259.449 250.251 259.38 249.975C259.311 249.699 259.321 249.409 259.41 249.139C260.151 247.151 260.758 245.117 261.23 243.049C261.392 242.448 261.743 241.916 262.23 241.529L269.41 236.469C269.64 236.28 269.826 236.043 269.957 235.776C270.089 235.509 270.161 235.217 270.17 234.919ZM239.43 263.449C232.1 267.689 226.16 264.249 226.16 255.789C226.16 247.329 232.1 237.029 239.43 232.789C246.76 228.549 252.71 231.989 252.71 240.459C252.71 248.929 246.77 259.219 239.43 263.449Z" fill="#12C2E9"/>
<path d="M231.19 296.379C231.083 296.324 230.962 296.3 230.841 296.311C230.721 296.321 230.606 296.366 230.51 296.439L227.2 298.629C226.981 298.756 226.723 298.796 226.476 298.741C226.229 298.685 226.013 298.538 225.87 298.329C225.676 298.051 225.462 297.787 225.23 297.539C225.035 297.333 224.896 297.081 224.828 296.805C224.76 296.53 224.764 296.242 224.84 295.969L230.1 292.639L226.17 290.369C226.091 290.316 226.003 290.279 225.91 290.259L223.42 289.699C223.146 289.651 222.863 289.689 222.611 289.807C222.359 289.925 222.149 290.118 222.01 290.359L219.66 294.819C219.34 295.339 218.837 295.72 218.25 295.889H218.1C218.202 295.563 218.272 295.228 218.31 294.889L214.37 292.629C214.254 292.565 214.12 292.541 213.988 292.559C213.857 292.577 213.735 292.636 213.64 292.729L209.9 295.629C209.677 295.829 209.498 296.075 209.376 296.348C209.254 296.622 209.19 296.919 209.19 297.219L209.41 300.769C209.417 301.391 209.212 301.998 208.83 302.489C208.214 303.226 207.637 303.993 207.1 304.789C206.923 305.026 206.694 305.218 206.43 305.352C206.166 305.485 205.875 305.556 205.58 305.559L203.18 305.439C202.893 305.437 202.612 305.516 202.368 305.666C202.124 305.816 201.927 306.032 201.8 306.289L199.54 311.349C199.455 311.565 199.447 311.803 199.518 312.024C199.589 312.245 199.735 312.434 199.93 312.559L202.59 314.089C202.675 314.309 202.695 314.548 202.65 314.779C202.463 315.577 202.323 316.385 202.23 317.199C202.137 317.817 201.854 318.39 201.42 318.839L198.11 321.839C197.903 322.053 197.746 322.31 197.651 322.592C197.556 322.874 197.525 323.173 197.56 323.469L198.18 327.079C198.19 327.178 198.223 327.273 198.275 327.358C198.327 327.442 198.397 327.515 198.48 327.569L202.43 329.849L202.48 325.329C202.698 325.201 202.957 325.161 203.204 325.217C203.451 325.273 203.667 325.42 203.81 325.629C204.005 325.909 204.222 326.173 204.46 326.419C204.655 326.627 204.793 326.882 204.859 327.159C204.926 327.436 204.919 327.725 204.84 327.999L203.15 332.629C203.081 332.808 203.076 333.006 203.136 333.188C203.196 333.37 203.318 333.526 203.48 333.629L207.43 335.909L208.5 332.969L210.02 329.189C210.345 328.669 210.851 328.288 211.44 328.119C211.962 327.99 212.473 327.823 212.97 327.619C213.081 327.564 213.202 327.535 213.326 327.533C213.449 327.531 213.572 327.556 213.685 327.607C213.797 327.657 213.897 327.732 213.978 327.826C214.058 327.92 214.117 328.03 214.15 328.149L215 330.949C215.021 331.04 215.06 331.126 215.115 331.202C215.17 331.277 215.24 331.341 215.32 331.389L219.32 333.669L218.62 329.299L219.83 328.349C220.057 328.151 220.238 327.907 220.36 327.632C220.483 327.358 220.544 327.06 220.54 326.759L220.32 323.209C220.319 322.587 220.523 321.983 220.9 321.489C221.51 320.759 222.44 320.369 222.98 319.569C223.29 319.119 223.62 318.399 224.16 318.419L226.56 318.539C226.845 318.54 227.125 318.463 227.369 318.314C227.613 318.166 227.81 317.953 227.94 317.699L230.19 312.629C230.286 312.392 230.288 312.127 230.195 311.889C230.102 311.651 229.921 311.458 229.69 311.349L227.75 310.529C227.505 310.413 227.306 310.217 227.186 309.974C227.066 309.731 227.032 309.454 227.09 309.189C227.269 308.39 227.406 307.582 227.5 306.769C227.593 306.151 227.876 305.578 228.31 305.129L231.62 302.129C231.92 301.821 232.113 301.425 232.17 300.999L235.17 298.659L231.19 296.379ZM216.19 319.729C212.19 322.909 208.27 322.039 207.54 317.789C206.81 313.539 210.12 308.129 214.17 304.949C218.22 301.769 221.47 302.009 222.17 306.259C222.87 310.509 220.21 316.539 216.16 319.729H216.19Z" fill="#12C2E9"/>
<path opacity="0.1" d="M231.19 296.379C231.083 296.324 230.962 296.3 230.841 296.311C230.721 296.321 230.606 296.366 230.51 296.439L227.2 298.629C226.981 298.756 226.723 298.796 226.476 298.741C226.229 298.685 226.013 298.538 225.87 298.329C225.676 298.051 225.462 297.787 225.23 297.539C225.035 297.333 224.896 297.081 224.828 296.805C224.76 296.53 224.764 296.242 224.84 295.969L230.1 292.639L226.17 290.369C226.091 290.316 226.003 290.279 225.91 290.259L223.42 289.699C223.146 289.651 222.863 289.689 222.611 289.807C222.359 289.925 222.149 290.118 222.01 290.359L219.66 294.819C219.34 295.339 218.837 295.72 218.25 295.889H218.1C218.202 295.563 218.272 295.228 218.31 294.889L214.37 292.629C214.254 292.565 214.12 292.541 213.988 292.559C213.857 292.577 213.735 292.636 213.64 292.729L209.9 295.629C209.677 295.829 209.498 296.075 209.376 296.348C209.254 296.622 209.19 296.919 209.19 297.219L209.41 300.769C209.417 301.391 209.212 301.998 208.83 302.489C208.214 303.226 207.637 303.993 207.1 304.789C206.923 305.026 206.694 305.218 206.43 305.352C206.166 305.485 205.875 305.556 205.58 305.559L203.18 305.439C202.893 305.437 202.612 305.516 202.368 305.666C202.124 305.816 201.927 306.032 201.8 306.289L199.54 311.349C199.455 311.565 199.447 311.803 199.518 312.024C199.589 312.245 199.735 312.434 199.93 312.559L202.59 314.089C202.675 314.309 202.695 314.548 202.65 314.779C202.463 315.577 202.323 316.385 202.23 317.199C202.137 317.817 201.854 318.39 201.42 318.839L198.11 321.839C197.903 322.053 197.746 322.31 197.651 322.592C197.556 322.874 197.525 323.173 197.56 323.469L198.18 327.079C198.19 327.178 198.223 327.273 198.275 327.358C198.327 327.442 198.397 327.515 198.48 327.569L202.43 329.849L202.48 325.329C202.698 325.201 202.957 325.161 203.204 325.217C203.451 325.273 203.667 325.42 203.81 325.629C204.005 325.909 204.222 326.173 204.46 326.419C204.655 326.627 204.793 326.882 204.859 327.159C204.926 327.436 204.919 327.725 204.84 327.999L203.15 332.629C203.081 332.808 203.076 333.006 203.136 333.188C203.196 333.37 203.318 333.526 203.48 333.629L207.43 335.909L208.5 332.969L210.02 329.189C210.345 328.669 210.851 328.288 211.44 328.119C211.962 327.99 212.473 327.823 212.97 327.619C213.081 327.564 213.202 327.535 213.326 327.533C213.449 327.531 213.572 327.556 213.685 327.607C213.797 327.657 213.897 327.732 213.978 327.826C214.058 327.92 214.117 328.03 214.15 328.149L215 330.949C215.021 331.04 215.06 331.126 215.115 331.202C215.17 331.277 215.24 331.341 215.32 331.389L219.32 333.669L218.62 329.299L219.83 328.349C220.057 328.151 220.238 327.907 220.36 327.632C220.483 327.358 220.544 327.06 220.54 326.759L220.32 323.209C220.319 322.587 220.523 321.983 220.9 321.489C221.51 320.759 222.44 320.369 222.98 319.569C223.29 319.119 223.62 318.399 224.16 318.419L226.56 318.539C226.845 318.54 227.125 318.463 227.369 318.314C227.613 318.166 227.81 317.953 227.94 317.699L230.19 312.629C230.286 312.392 230.288 312.127 230.195 311.889C230.102 311.651 229.921 311.458 229.69 311.349L227.75 310.529C227.505 310.413 227.306 310.217 227.186 309.974C227.066 309.731 227.032 309.454 227.09 309.189C227.269 308.39 227.406 307.582 227.5 306.769C227.593 306.151 227.876 305.578 228.31 305.129L231.62 302.129C231.92 301.821 232.113 301.425 232.17 300.999L235.17 298.659L231.19 296.379ZM216.19 319.729C212.19 322.909 208.27 322.039 207.54 317.789C206.81 313.539 210.12 308.129 214.17 304.949C218.22 301.769 221.47 302.009 222.17 306.259C222.87 310.509 220.21 316.539 216.16 319.729H216.19Z" fill="black"/>
<path d="M201.37 318.919L198.09 321.919C197.839 322.18 197.666 322.505 197.59 322.859L202.45 325.669V325.409C202.668 325.281 202.927 325.241 203.174 325.297C203.421 325.353 203.637 325.5 203.78 325.709L208.46 322.999L201.37 318.919Z" fill="#12C2E9"/>
<path d="M209.73 309.809C210.097 309.233 210.498 308.678 210.93 308.149L206.26 305.449C206.048 305.551 205.815 305.602 205.58 305.599L203.18 305.479C202.814 305.477 202.46 305.604 202.18 305.839L209.36 309.989L209.73 309.809Z" fill="#12C2E9"/>
<path d="M235.12 298.629C235.01 298.579 234.889 298.56 234.769 298.574C234.649 298.588 234.535 298.635 234.44 298.709L231.13 300.889C230.912 301.014 230.656 301.052 230.411 300.996C230.167 300.941 229.952 300.795 229.81 300.589C229.612 300.311 229.395 300.047 229.16 299.799C228.964 299.592 228.825 299.337 228.757 299.06C228.688 298.783 228.693 298.494 228.77 298.219L229.09 297.379L230.51 296.439C230.606 296.366 230.721 296.321 230.841 296.311C230.962 296.3 231.083 296.324 231.19 296.379L235.12 298.629Z" fill="#12C2E9"/>
<path d="M225.37 297.679C225.336 297.63 225.299 297.584 225.26 297.539C225.065 297.333 224.926 297.081 224.858 296.805C224.79 296.53 224.794 296.242 224.87 295.969L230.13 292.639L226.2 290.369C226.121 290.316 226.033 290.279 225.94 290.259L223.45 289.699C223.176 289.651 222.893 289.689 222.641 289.807C222.389 289.925 222.179 290.118 222.04 290.359L219.69 294.819C219.559 295.055 219.378 295.26 219.16 295.419L224.45 298.479L225.37 297.679Z" fill="#12C2E9"/>
<path d="M209.29 296.629L214.15 299.439L218.15 295.779C218.224 295.483 218.277 295.182 218.31 294.879L214.37 292.629C214.254 292.565 214.12 292.541 213.988 292.559C213.857 292.577 213.735 292.636 213.64 292.729L209.9 295.629C209.604 295.896 209.392 296.243 209.29 296.629Z" fill="#12C2E9"/>
<g opacity="0.4">
<path d="M201.37 318.919L198.09 321.919C197.839 322.18 197.666 322.505 197.59 322.859L202.45 325.669V325.409C202.668 325.281 202.927 325.241 203.174 325.297C203.421 325.353 203.637 325.5 203.78 325.709L208.46 322.999L201.37 318.919Z" fill="white"/>
<path d="M209.73 309.809C210.097 309.233 210.498 308.678 210.93 308.149L206.26 305.449C206.048 305.551 205.815 305.602 205.58 305.599L203.18 305.479C202.814 305.477 202.46 305.604 202.18 305.839L209.36 309.989L209.73 309.809Z" fill="white"/>
<path d="M235.12 298.629C235.01 298.579 234.889 298.56 234.769 298.574C234.649 298.588 234.535 298.635 234.44 298.709L231.13 300.889C230.912 301.014 230.656 301.052 230.411 300.996C230.167 300.941 229.952 300.795 229.81 300.589C229.612 300.311 229.395 300.047 229.16 299.799C228.964 299.592 228.825 299.337 228.757 299.06C228.688 298.783 228.693 298.494 228.77 298.219L229.09 297.379L230.51 296.439C230.606 296.366 230.721 296.321 230.841 296.311C230.962 296.3 231.083 296.324 231.19 296.379L235.12 298.629Z" fill="white"/>
<path d="M225.37 297.679C225.336 297.63 225.299 297.584 225.26 297.539C225.065 297.333 224.926 297.081 224.858 296.805C224.79 296.53 224.794 296.242 224.87 295.969L230.13 292.639L226.2 290.369C226.121 290.316 226.033 290.279 225.94 290.259L223.45 289.699C223.176 289.651 222.893 289.689 222.641 289.807C222.389 289.925 222.179 290.118 222.04 290.359L219.69 294.819C219.559 295.055 219.378 295.26 219.16 295.419L224.45 298.479L225.37 297.679Z" fill="white"/>
<path d="M209.29 296.629L214.15 299.439L218.15 295.779C218.224 295.483 218.277 295.182 218.31 294.879L214.37 292.629C214.254 292.565 214.12 292.541 213.988 292.559C213.857 292.577 213.735 292.636 213.64 292.729L209.9 295.629C209.604 295.896 209.392 296.243 209.29 296.629Z" fill="white"/>
</g>
<path d="M236.05 302.759L235.43 299.149C235.427 299.035 235.391 298.924 235.327 298.829C235.262 298.734 235.172 298.66 235.067 298.615C234.962 298.57 234.846 298.555 234.733 298.574C234.62 298.592 234.515 298.643 234.43 298.719L231.12 300.899C230.902 301.023 230.646 301.062 230.402 301.006C230.157 300.951 229.942 300.805 229.8 300.599C229.602 300.32 229.385 300.056 229.15 299.809C228.956 299.602 228.819 299.349 228.751 299.075C228.683 298.8 228.686 298.512 228.76 298.239L230.45 293.669C230.497 293.555 230.517 293.431 230.51 293.308C230.503 293.185 230.469 293.065 230.409 292.956C230.35 292.848 230.267 292.754 230.167 292.682C230.067 292.61 229.951 292.561 229.83 292.539L227.34 291.979C227.065 291.928 226.782 291.965 226.529 292.083C226.277 292.201 226.067 292.396 225.93 292.639L223.59 297.099C223.261 297.615 222.757 297.995 222.17 298.169C221.645 298.301 221.13 298.472 220.63 298.679C220.519 298.731 220.398 298.759 220.275 298.76C220.152 298.76 220.03 298.734 219.919 298.682C219.807 298.631 219.708 298.555 219.629 298.462C219.55 298.368 219.492 298.258 219.46 298.139L218.61 295.339C218.59 295.227 218.54 295.123 218.465 295.037C218.39 294.952 218.294 294.889 218.185 294.855C218.077 294.821 217.961 294.817 217.851 294.844C217.741 294.872 217.64 294.928 217.56 295.009L213.82 297.939C213.597 298.139 213.418 298.385 213.296 298.658C213.174 298.932 213.11 299.229 213.11 299.529L213.34 303.079C213.338 303.7 213.134 304.303 212.76 304.799C212.138 305.533 211.557 306.301 211.02 307.099C210.839 307.331 210.609 307.521 210.346 307.654C210.083 307.787 209.794 307.86 209.5 307.869L207.1 307.749C206.813 307.747 206.532 307.826 206.288 307.976C206.044 308.126 205.847 308.342 205.72 308.599L203.47 313.629C203.375 313.867 203.374 314.133 203.469 314.371C203.564 314.609 203.747 314.802 203.98 314.909L205.92 315.739C206.163 315.854 206.361 316.048 206.48 316.29C206.6 316.531 206.635 316.805 206.58 317.069C206.401 317.868 206.264 318.676 206.17 319.489C206.073 320.105 205.79 320.677 205.36 321.129L202.05 324.129C201.841 324.342 201.682 324.598 201.585 324.881C201.489 325.163 201.456 325.463 201.49 325.759L202.11 329.369C202.113 329.483 202.149 329.594 202.213 329.689C202.278 329.784 202.368 329.858 202.473 329.903C202.578 329.948 202.694 329.963 202.807 329.944C202.919 329.926 203.025 329.875 203.11 329.799L206.42 327.619C206.638 327.494 206.894 327.456 207.138 327.512C207.383 327.567 207.598 327.713 207.74 327.919C207.935 328.199 208.152 328.463 208.39 328.709C208.584 328.917 208.722 329.172 208.79 329.448C208.859 329.725 208.855 330.014 208.78 330.289L207.09 334.849C207.043 334.963 207.023 335.087 207.03 335.21C207.037 335.333 207.071 335.453 207.131 335.562C207.19 335.67 207.273 335.763 207.373 335.836C207.473 335.908 207.588 335.957 207.71 335.979L210.2 336.539C210.474 336.589 210.758 336.553 211.011 336.435C211.263 336.316 211.473 336.122 211.61 335.879L213.95 331.419C214.279 330.903 214.783 330.523 215.37 330.349C215.894 330.216 216.408 330.049 216.91 329.849C217.02 329.796 217.141 329.768 217.263 329.767C217.386 329.766 217.507 329.791 217.618 329.842C217.73 329.892 217.829 329.967 217.908 330.059C217.988 330.152 218.047 330.261 218.08 330.379L218.93 333.179C218.95 333.291 219 333.395 219.075 333.48C219.149 333.566 219.246 333.629 219.355 333.663C219.463 333.697 219.579 333.701 219.689 333.673C219.799 333.646 219.9 333.589 219.98 333.509L223.72 330.579C223.943 330.378 224.122 330.133 224.244 329.859C224.366 329.585 224.43 329.289 224.43 328.989L224.2 325.439C224.202 324.818 224.406 324.214 224.78 323.719C225.402 322.985 225.983 322.217 226.52 321.419C226.701 321.187 226.931 320.997 227.194 320.864C227.457 320.731 227.746 320.657 228.04 320.649L230.44 320.769C230.727 320.771 231.008 320.692 231.252 320.542C231.496 320.391 231.693 320.176 231.82 319.919L234.08 314.859C234.175 314.621 234.176 314.355 234.081 314.117C233.986 313.879 233.803 313.686 233.57 313.579L231.63 312.749C231.387 312.633 231.189 312.44 231.07 312.198C230.95 311.957 230.915 311.683 230.97 311.419C231.149 310.62 231.286 309.812 231.38 308.999C231.479 308.383 231.762 307.812 232.19 307.359L235.5 304.359C235.703 304.149 235.857 303.896 235.952 303.62C236.048 303.344 236.081 303.05 236.05 302.759ZM220.1 321.989C216.05 325.179 212.17 324.309 211.44 320.059C210.71 315.809 213.44 309.779 217.44 306.599C221.44 303.419 225.37 304.279 226.1 308.529C226.83 312.779 224.14 318.809 220.1 321.989Z" fill="#12C2E9"/>
<path d="M199.04 289.759L195.17 287.529C195.075 287.482 194.971 287.458 194.865 287.458C194.759 287.458 194.655 287.482 194.56 287.529L187.56 290.679C187.451 290.733 187.33 290.763 187.208 290.765C187.086 290.767 186.965 290.742 186.853 290.691C186.742 290.64 186.644 290.565 186.565 290.471C186.487 290.377 186.43 290.267 186.4 290.149C186.024 288.933 185.5 287.767 184.84 286.679C184.698 286.421 184.614 286.135 184.595 285.841C184.576 285.547 184.622 285.253 184.73 284.979L189.37 275.629C189.484 275.389 189.504 275.116 189.427 274.862C189.349 274.609 189.179 274.393 188.95 274.259L183.89 271.339C183.659 271.211 183.388 271.174 183.131 271.235C182.874 271.296 182.649 271.451 182.5 271.669L176.69 280.409C176.511 280.643 176.281 280.832 176.018 280.962C175.754 281.092 175.464 281.159 175.17 281.159C174.502 281.145 173.833 281.178 173.17 281.259V274.829L169.29 272.629C169.187 272.583 169.074 272.564 168.962 272.574C168.85 272.585 168.742 272.624 168.65 272.689L160.79 277.219C160.538 277.382 160.324 277.598 160.164 277.852C160.003 278.106 159.9 278.391 159.86 278.689L159.07 287.429C158.974 288.048 158.688 288.621 158.25 289.069C156.694 290.508 155.237 292.052 153.89 293.689C153.698 293.899 153.451 294.052 153.178 294.129C152.904 294.207 152.614 294.207 152.34 294.129L147.34 292.359C147.078 292.28 146.797 292.288 146.54 292.384C146.284 292.48 146.066 292.657 145.92 292.889L140.14 302.889C140.013 303.131 139.969 303.409 140.016 303.678C140.064 303.948 140.198 304.194 140.4 304.379L144.4 307.859C144.605 308.056 144.751 308.307 144.822 308.582C144.892 308.858 144.885 309.147 144.8 309.419C144.055 311.405 143.447 313.44 142.98 315.509C142.818 316.112 142.467 316.648 141.98 317.039L134.8 322.089C134.566 322.275 134.373 322.508 134.235 322.773C134.097 323.039 134.017 323.33 134 323.629V332.709C133.991 332.822 134.013 332.935 134.062 333.037C134.111 333.139 134.186 333.226 134.28 333.289L138.15 335.529L143.9 332.799C144.12 333.269 144.36 333.719 144.61 334.139C144.758 334.395 144.845 334.681 144.864 334.976C144.883 335.271 144.834 335.566 144.72 335.839L140.06 345.239C139.945 345.477 139.923 345.75 139.999 346.003C140.075 346.257 140.243 346.473 140.47 346.609L145.53 349.529C145.761 349.657 146.032 349.694 146.289 349.633C146.546 349.572 146.771 349.417 146.92 349.199L152.73 340.459C152.91 340.225 153.142 340.035 153.407 339.905C153.673 339.775 153.964 339.708 154.26 339.709C155.531 339.732 156.8 339.601 158.04 339.319C158.158 339.288 158.282 339.283 158.402 339.305C158.523 339.327 158.637 339.374 158.737 339.445C158.837 339.515 158.92 339.607 158.981 339.713C159.042 339.819 159.079 339.937 159.09 340.059L159.86 347.699C159.861 347.805 159.889 347.91 159.942 348.003C159.994 348.095 160.069 348.173 160.16 348.229L164.02 350.459L168.66 343.649C168.911 343.483 169.124 343.267 169.286 343.014C169.448 342.76 169.555 342.476 169.6 342.179L170.39 333.429C170.432 333.143 170.546 332.871 170.721 332.641C170.895 332.41 171.126 332.227 171.39 332.109C173.697 331.114 175.777 329.657 177.5 327.829C177.697 327.623 177.946 327.475 178.221 327.401C178.496 327.327 178.786 327.33 179.06 327.409L182.16 328.499C182.419 328.582 182.699 328.576 182.955 328.482C183.21 328.388 183.427 328.211 183.57 327.979L189.35 317.979C189.48 317.738 189.526 317.461 189.481 317.191C189.435 316.921 189.301 316.674 189.1 316.489L186.44 314.199C186.236 313.998 186.089 313.748 186.013 313.472C185.938 313.196 185.937 312.905 186.01 312.629C186.583 310.257 186.825 307.817 186.73 305.379C186.732 305.081 186.8 304.787 186.93 304.519C187.059 304.251 187.247 304.015 187.48 303.829L194.66 298.779C194.896 298.592 195.089 298.357 195.227 298.09C195.365 297.823 195.444 297.529 195.46 297.229L198.89 293.119L199.04 289.759ZM164.72 325.759C157.39 329.989 152.83 326.989 152.83 318.519C152.83 310.049 158.89 299.679 166.22 295.449C173.55 291.219 178 294.299 178 302.759C178 311.219 172.05 321.499 164.72 325.729V325.759Z" fill="#12C2E9"/>
<path opacity="0.1" d="M199.04 289.759L195.17 287.529C195.075 287.482 194.971 287.458 194.865 287.458C194.759 287.458 194.655 287.482 194.56 287.529L187.56 290.679C187.451 290.733 187.33 290.763 187.208 290.765C187.086 290.767 186.965 290.742 186.853 290.691C186.742 290.64 186.644 290.565 186.565 290.471C186.487 290.377 186.43 290.267 186.4 290.149C186.024 288.933 185.5 287.767 184.84 286.679C184.698 286.421 184.614 286.135 184.595 285.841C184.576 285.547 184.622 285.253 184.73 284.979L189.37 275.629C189.484 275.389 189.504 275.116 189.427 274.862C189.349 274.609 189.179 274.393 188.95 274.259L183.89 271.339C183.659 271.211 183.388 271.174 183.131 271.235C182.874 271.296 182.649 271.451 182.5 271.669L176.69 280.409C176.511 280.643 176.281 280.832 176.018 280.962C175.754 281.092 175.464 281.159 175.17 281.159C174.502 281.145 173.833 281.178 173.17 281.259V274.829L169.29 272.629C169.187 272.583 169.074 272.564 168.962 272.574C168.85 272.585 168.742 272.624 168.65 272.689L160.79 277.219C160.538 277.382 160.324 277.598 160.164 277.852C160.003 278.106 159.9 278.391 159.86 278.689L159.07 287.429C158.974 288.048 158.688 288.621 158.25 289.069C156.694 290.508 155.237 292.052 153.89 293.689C153.698 293.899 153.451 294.052 153.178 294.129C152.904 294.207 152.614 294.207 152.34 294.129L147.34 292.359C147.078 292.28 146.797 292.288 146.54 292.384C146.284 292.48 146.066 292.657 145.92 292.889L140.14 302.889C140.013 303.131 139.969 303.409 140.016 303.678C140.064 303.948 140.198 304.194 140.4 304.379L144.4 307.859C144.605 308.056 144.751 308.307 144.822 308.582C144.892 308.858 144.885 309.147 144.8 309.419C144.055 311.405 143.447 313.44 142.98 315.509C142.818 316.112 142.467 316.648 141.98 317.039L134.8 322.089C134.566 322.275 134.373 322.508 134.235 322.773C134.097 323.039 134.017 323.33 134 323.629V332.709C133.991 332.822 134.013 332.935 134.062 333.037C134.111 333.139 134.186 333.226 134.28 333.289L138.15 335.529L143.9 332.799C144.12 333.269 144.36 333.719 144.61 334.139C144.758 334.395 144.845 334.681 144.864 334.976C144.883 335.271 144.834 335.566 144.72 335.839L140.06 345.239C139.945 345.477 139.923 345.75 139.999 346.003C140.075 346.257 140.243 346.473 140.47 346.609L145.53 349.529C145.761 349.657 146.032 349.694 146.289 349.633C146.546 349.572 146.771 349.417 146.92 349.199L152.73 340.459C152.91 340.225 153.142 340.035 153.407 339.905C153.673 339.775 153.964 339.708 154.26 339.709C155.531 339.732 156.8 339.601 158.04 339.319C158.158 339.288 158.282 339.283 158.402 339.305C158.523 339.327 158.637 339.374 158.737 339.445C158.837 339.515 158.92 339.607 158.981 339.713C159.042 339.819 159.079 339.937 159.09 340.059L159.86 347.699C159.861 347.805 159.889 347.91 159.942 348.003C159.994 348.095 160.069 348.173 160.16 348.229L164.02 350.459L168.66 343.649C168.911 343.483 169.124 343.267 169.286 343.014C169.448 342.76 169.555 342.476 169.6 342.179L170.39 333.429C170.432 333.143 170.546 332.871 170.721 332.641C170.895 332.41 171.126 332.227 171.39 332.109C173.697 331.114 175.777 329.657 177.5 327.829C177.697 327.623 177.946 327.475 178.221 327.401C178.496 327.327 178.786 327.33 179.06 327.409L182.16 328.499C182.419 328.582 182.699 328.576 182.955 328.482C183.21 328.388 183.427 328.211 183.57 327.979L189.35 317.979C189.48 317.738 189.526 317.461 189.481 317.191C189.435 316.921 189.301 316.674 189.1 316.489L186.44 314.199C186.236 313.998 186.089 313.748 186.013 313.472C185.938 313.196 185.937 312.905 186.01 312.629C186.583 310.257 186.825 307.817 186.73 305.379C186.732 305.081 186.8 304.787 186.93 304.519C187.059 304.251 187.247 304.015 187.48 303.829L194.66 298.779C194.896 298.592 195.089 298.357 195.227 298.09C195.365 297.823 195.444 297.529 195.46 297.229L198.89 293.119L199.04 289.759ZM164.72 325.759C157.39 329.989 152.83 326.989 152.83 318.519C152.83 310.049 158.89 299.679 166.22 295.449C173.55 291.219 178 294.299 178 302.759C178 311.219 172.05 321.499 164.72 325.729V325.759Z" fill="black"/>
<path d="M187.85 278.699L189.37 275.629C189.484 275.389 189.504 275.116 189.427 274.862C189.349 274.609 189.179 274.393 188.95 274.259L183.89 271.339C183.659 271.211 183.388 271.174 183.131 271.235C182.874 271.296 182.649 271.451 182.5 271.669L176.69 280.409C176.585 280.556 176.453 280.682 176.3 280.779L182.81 284.529L187.85 278.699Z" fill="#12C2E9"/>
<path d="M142.53 316.419C142.375 316.643 142.186 316.842 141.97 317.009L134.79 322.059C134.598 322.205 134.438 322.389 134.32 322.599L138.7 325.129L148.23 319.709L142.53 316.419Z" fill="#12C2E9"/>
<path d="M146.89 292.269C146.688 292.275 146.491 292.332 146.317 292.433C146.142 292.534 145.996 292.677 145.89 292.849L140.11 302.849C139.991 303.073 139.946 303.328 139.98 303.579L144.98 306.449L152.89 295.749L146.89 292.269Z" fill="#12C2E9"/>
<path d="M160.01 278.129L166.17 281.689L173.17 277.689V274.829L169.29 272.629C169.187 272.583 169.074 272.564 168.962 272.574C168.85 272.585 168.742 272.624 168.65 272.689L160.79 277.219C160.448 277.441 160.177 277.757 160.01 278.129Z" fill="#12C2E9"/>
<path d="M199.04 289.759C198.946 289.705 198.839 289.676 198.73 289.676C198.621 289.676 198.514 289.705 198.42 289.759L191.42 292.909C191.309 292.962 191.188 292.989 191.065 292.99C190.942 292.99 190.82 292.964 190.709 292.912C190.597 292.861 190.498 292.785 190.419 292.692C190.34 292.598 190.282 292.488 190.25 292.369C189.992 291.524 189.657 290.704 189.25 289.919L194.55 287.529C194.645 287.482 194.749 287.458 194.855 287.458C194.961 287.458 195.065 287.482 195.16 287.529L199.04 289.759Z" fill="#12C2E9"/>
<g opacity="0.4">
<path d="M187.85 278.699L189.37 275.629C189.484 275.389 189.504 275.116 189.427 274.862C189.349 274.609 189.179 274.393 188.95 274.259L183.89 271.339C183.659 271.211 183.388 271.174 183.131 271.235C182.874 271.296 182.649 271.451 182.5 271.669L176.69 280.409C176.585 280.556 176.453 280.682 176.3 280.779L182.81 284.529L187.85 278.699Z" fill="white"/>
<path d="M142.53 316.419C142.375 316.643 142.186 316.842 141.97 317.009L134.79 322.059C134.598 322.205 134.438 322.389 134.32 322.599L138.7 325.129L148.23 319.709L142.53 316.419Z" fill="white"/>
<path d="M146.89 292.269C146.688 292.275 146.491 292.332 146.317 292.433C146.142 292.534 145.996 292.677 145.89 292.849L140.11 302.849C139.991 303.073 139.946 303.328 139.98 303.579L144.98 306.449L152.89 295.749L146.89 292.269Z" fill="white"/>
<path d="M160.01 278.129L166.17 281.689L173.17 277.689V274.829L169.29 272.629C169.187 272.583 169.074 272.564 168.962 272.574C168.85 272.585 168.742 272.624 168.65 272.689L160.79 277.219C160.448 277.441 160.177 277.757 160.01 278.129Z" fill="white"/>
<path d="M199.04 289.759C198.946 289.705 198.839 289.676 198.73 289.676C198.621 289.676 198.514 289.705 198.42 289.759L191.42 292.909C191.309 292.962 191.188 292.989 191.065 292.99C190.942 292.99 190.82 292.964 190.709 292.912C190.597 292.861 190.498 292.785 190.419 292.692C190.34 292.598 190.282 292.488 190.25 292.369C189.992 291.524 189.657 290.704 189.25 289.919L194.55 287.529C194.645 287.482 194.749 287.458 194.855 287.458C194.961 287.458 195.065 287.482 195.16 287.529L199.04 289.759Z" fill="white"/>
</g>
<path d="M199.37 299.419V290.349C199.386 290.237 199.369 290.124 199.322 290.022C199.275 289.919 199.2 289.832 199.105 289.771C199.011 289.71 198.901 289.678 198.788 289.677C198.675 289.677 198.565 289.709 198.47 289.769L191.47 292.919C191.359 292.973 191.238 293.002 191.114 293.004C190.991 293.005 190.868 292.979 190.756 292.927C190.644 292.876 190.545 292.8 190.466 292.705C190.387 292.61 190.33 292.499 190.3 292.379C189.926 291.165 189.402 290.003 188.74 288.919C188.599 288.66 188.517 288.374 188.5 288.08C188.483 287.786 188.53 287.492 188.64 287.219L193.3 277.819C193.415 277.581 193.437 277.308 193.361 277.054C193.285 276.801 193.117 276.585 192.89 276.449L187.83 273.529C187.598 273.398 187.325 273.359 187.065 273.42C186.806 273.481 186.579 273.638 186.43 273.859L180.58 282.629C180.398 282.859 180.167 283.047 179.905 283.178C179.642 283.31 179.354 283.382 179.06 283.389C177.789 283.363 176.52 283.49 175.28 283.769C175.165 283.793 175.046 283.793 174.931 283.768C174.816 283.743 174.708 283.694 174.613 283.624C174.519 283.554 174.44 283.465 174.383 283.362C174.325 283.26 174.29 283.146 174.28 283.029L173.51 275.399C173.517 275.287 173.491 275.175 173.436 275.078C173.381 274.98 173.299 274.9 173.199 274.848C173.1 274.797 172.987 274.775 172.876 274.785C172.764 274.796 172.658 274.839 172.57 274.909L164.71 279.449C164.458 279.614 164.245 279.83 164.083 280.083C163.921 280.337 163.814 280.621 163.77 280.919L162.98 289.659C162.887 290.277 162.604 290.85 162.17 291.299C160.61 292.738 159.15 294.282 157.8 295.919C157.609 296.128 157.364 296.278 157.092 296.354C156.819 296.43 156.531 296.429 156.26 296.349L151.21 294.589C150.948 294.508 150.667 294.516 150.41 294.612C150.153 294.708 149.935 294.886 149.79 295.119L144.02 305.119C143.891 305.358 143.845 305.634 143.89 305.902C143.936 306.17 144.069 306.415 144.27 306.599L148.32 310.089C148.525 310.286 148.671 310.537 148.74 310.813C148.809 311.089 148.799 311.379 148.71 311.649C147.969 313.636 147.361 315.671 146.89 317.739C146.728 318.339 146.377 318.872 145.89 319.259L138.71 324.319C138.474 324.503 138.28 324.736 138.142 325.002C138.004 325.267 137.925 325.56 137.91 325.859V334.939C137.896 335.049 137.913 335.161 137.96 335.261C138.006 335.362 138.08 335.447 138.173 335.508C138.266 335.569 138.374 335.602 138.485 335.604C138.596 335.606 138.705 335.576 138.8 335.519L145.8 332.359C145.911 332.306 146.032 332.279 146.155 332.278C146.278 332.278 146.4 332.304 146.511 332.356C146.623 332.407 146.722 332.482 146.801 332.576C146.88 332.67 146.938 332.78 146.97 332.899C147.348 334.114 147.872 335.28 148.53 336.369C148.676 336.625 148.761 336.912 148.779 337.207C148.796 337.502 148.745 337.797 148.63 338.069L143.97 347.469C143.856 347.707 143.837 347.979 143.914 348.231C143.992 348.483 144.162 348.696 144.39 348.829L149.37 351.729C149.601 351.857 149.872 351.894 150.129 351.833C150.386 351.772 150.611 351.617 150.76 351.399L156.57 342.659C156.749 342.425 156.979 342.236 157.242 342.106C157.506 341.976 157.796 341.909 158.09 341.909C159.361 341.932 160.63 341.801 161.87 341.519C161.985 341.494 162.104 341.495 162.219 341.52C162.334 341.544 162.442 341.593 162.537 341.663C162.631 341.733 162.71 341.823 162.767 341.925C162.825 342.028 162.86 342.142 162.87 342.259L163.64 349.899C163.638 350.01 163.667 350.12 163.724 350.215C163.781 350.311 163.864 350.388 163.964 350.438C164.063 350.488 164.175 350.509 164.285 350.499C164.396 350.488 164.502 350.447 164.59 350.379L172.45 345.839C172.7 345.676 172.913 345.462 173.073 345.21C173.234 344.958 173.338 344.675 173.38 344.379L174.17 335.629C174.263 335.012 174.55 334.441 174.99 333.999C176.546 332.56 178.003 331.016 179.35 329.379C179.54 329.167 179.787 329.013 180.061 328.935C180.336 328.857 180.626 328.858 180.9 328.939L185.9 330.699C186.161 330.783 186.442 330.777 186.699 330.683C186.957 330.589 187.175 330.411 187.32 330.179L193.1 320.179C193.229 319.937 193.273 319.659 193.226 319.389C193.179 319.119 193.043 318.873 192.84 318.689L188.79 315.199C188.584 315.004 188.439 314.755 188.37 314.481C188.3 314.206 188.311 313.918 188.4 313.649C189.144 311.659 189.752 309.621 190.22 307.549C190.382 306.948 190.733 306.416 191.22 306.029L198.4 300.979C198.667 300.807 198.893 300.578 199.061 300.308C199.229 300.038 199.334 299.735 199.37 299.419ZM168.64 327.959C161.3 332.189 155.36 328.759 155.36 320.289C155.36 311.819 161.3 301.529 168.64 297.289C175.98 293.049 181.91 296.489 181.91 304.949C181.91 313.409 175.92 323.719 168.59 327.959H168.64Z" fill="#12C2E9"/>
<path d="M289.81 129.379H322.46V100.119C322.46 95.7879 320.74 91.6343 317.677 88.5718C314.615 85.5093 310.461 83.7888 306.13 83.7888C301.801 83.7915 297.65 85.5132 294.589 88.5753C291.529 91.6375 289.81 95.7896 289.81 100.119V129.379Z" fill="#263238"/>
<path d="M300.08 121.439L276.71 122.339C275.9 121.639 271.27 116.119 271.27 116.119C271.27 116.119 258.57 114.489 258.5 114.949C258.43 115.409 270.99 128.859 272.23 130.209C272.584 130.665 273.04 131.034 273.56 131.285C274.08 131.537 274.652 131.665 275.23 131.659L296.62 132.999L300.08 121.439Z" fill="#FFA8A7"/>
<path d="M179.71 226.779L179.01 226.379C178.426 225.992 177.941 225.474 177.594 224.867C177.247 224.259 177.047 223.578 177.01 222.879V151.089C177.047 150.39 177.247 149.709 177.594 149.101C177.941 148.493 178.426 147.975 179.01 147.589L271.23 94.3588C271.85 94.0451 272.535 93.8817 273.23 93.8817C273.925 93.8817 274.61 94.0451 275.23 94.3588L275.92 94.7589C276.505 95.1421 276.99 95.6579 277.338 96.2644C277.685 96.8708 277.885 97.5507 277.92 98.2488V170.049C277.886 170.747 277.687 171.427 277.339 172.034C276.991 172.641 276.505 173.156 275.92 173.539L183.7 226.779C183.08 227.088 182.397 227.249 181.705 227.249C181.013 227.249 180.33 227.088 179.71 226.779Z" fill="#12C2E9"/>
<path opacity="0.4" d="M277.96 97.9288C277.82 96.8788 276.96 96.4988 275.96 97.0788L183.74 150.329C183.142 150.697 182.649 151.214 182.31 151.829L177.59 149.099C177.931 148.483 178.423 147.963 179.02 147.589L271.23 94.3588C271.85 94.0451 272.535 93.8817 273.23 93.8817C273.925 93.8817 274.61 94.0451 275.23 94.3588L275.92 94.7589C276.469 95.1083 276.936 95.5727 277.288 96.1199C277.64 96.6672 277.869 97.2844 277.96 97.9288Z" fill="white"/>
<path opacity="0.1" d="M183.37 226.939C182.78 227.174 182.147 227.281 181.513 227.254C180.878 227.226 180.257 227.064 179.69 226.779L178.98 226.379C178.396 225.992 177.911 225.474 177.564 224.867C177.217 224.259 177.017 223.578 176.98 222.879V151.089C176.996 150.382 177.2 149.692 177.57 149.089L182.29 151.819C181.928 152.425 181.725 153.113 181.7 153.819V225.629C181.72 226.769 182.45 227.309 183.37 226.939Z" fill="black"/>
<path d="M191.04 154.279L197.98 150.279C198.48 149.989 198.89 150.219 198.89 150.809V158.629C198.873 158.946 198.781 159.255 198.621 159.53C198.461 159.805 198.238 160.038 197.97 160.209L191.05 164.119C190.54 164.409 190.13 164.119 190.13 163.579V155.899C190.139 155.575 190.227 155.259 190.385 154.977C190.544 154.695 190.769 154.455 191.04 154.279Z" fill="#A8A8A8"/>
<path d="M197.08 159.069C196.991 159.127 196.886 159.158 196.78 159.158C196.673 159.158 196.569 159.127 196.48 159.069L194.37 157.469C194.08 157.259 194.12 156.659 194.45 156.139C194.78 155.619 195.28 155.369 195.56 155.589L197.06 156.719L201.21 147.799C201.47 147.239 201.96 146.869 202.32 146.959C202.68 147.049 202.74 147.589 202.49 148.139L197.75 158.319C197.62 158.615 197.408 158.868 197.14 159.049L197.08 159.069Z" fill="#37474F"/>
<path d="M191.04 171.279L197.98 167.279C198.48 166.989 198.89 167.279 198.89 167.809V175.629C198.873 175.946 198.781 176.255 198.621 176.53C198.461 176.805 198.238 177.038 197.97 177.209L191.05 181.129C190.54 181.409 190.13 181.129 190.13 180.589V172.899C190.139 172.575 190.227 172.259 190.385 171.977C190.544 171.695 190.769 171.455 191.04 171.279Z" fill="#A8A8A8"/>
<path d="M197.08 176.059C196.991 176.117 196.886 176.148 196.78 176.148C196.673 176.148 196.569 176.117 196.48 176.059L194.37 174.469C194.08 174.249 194.12 173.649 194.45 173.129C194.78 172.609 195.28 172.359 195.56 172.579L197.06 173.709L201.21 164.789C201.47 164.229 201.96 163.859 202.32 163.959C202.68 164.059 202.74 164.579 202.49 165.139L197.75 175.319C197.62 175.612 197.408 175.862 197.14 176.039L197.08 176.059Z" fill="#37474F"/>
<path d="M191.04 188.269L197.98 184.269C198.48 183.969 198.89 184.209 198.89 184.789V192.629C198.872 192.945 198.779 193.252 198.619 193.525C198.459 193.797 198.237 194.029 197.97 194.199L191.05 198.119C190.54 198.409 190.13 198.169 190.13 197.579V189.889C190.139 189.565 190.227 189.249 190.385 188.967C190.544 188.685 190.769 188.445 191.04 188.269Z" fill="#A8A8A8"/>
<path d="M197.08 193.049C196.993 193.112 196.888 193.146 196.78 193.146C196.672 193.146 196.567 193.112 196.48 193.049L194.37 191.459C194.08 191.249 194.12 190.649 194.45 190.129C194.78 189.609 195.28 189.359 195.56 189.569L197.06 190.699L201.21 181.779C201.47 181.229 201.96 180.849 202.32 180.949C202.68 181.049 202.74 181.569 202.49 182.129L197.75 192.309C197.62 192.605 197.408 192.858 197.14 193.039L197.08 193.049Z" fill="#37474F"/>
<path d="M191.04 205.309L197.98 201.309C198.48 201.019 198.89 201.309 198.89 201.839V209.629C198.872 209.945 198.779 210.252 198.619 210.525C198.459 210.797 198.237 211.029 197.97 211.199L191.05 215.119C190.54 215.409 190.13 215.169 190.13 214.579V206.889C190.146 206.572 190.236 206.264 190.394 205.989C190.553 205.714 190.774 205.481 191.04 205.309Z" fill="#A8A8A8"/>
<path d="M197.08 210.089C196.993 210.152 196.888 210.186 196.78 210.186C196.672 210.186 196.567 210.152 196.48 210.089L194.37 208.499C194.08 208.279 194.12 207.689 194.45 207.159C194.78 206.629 195.28 206.399 195.56 206.609L197.06 207.739L201.21 198.819C201.47 198.269 201.96 197.889 202.32 197.989C202.68 198.089 202.74 198.609 202.49 199.169L197.75 209.349C197.62 209.642 197.408 209.892 197.14 210.069L197.08 210.089Z" fill="#37474F"/>
<path d="M207.47 146.969C207.47 147.909 208.29 148.199 209.3 147.619L235.67 132.389C236.168 132.103 236.593 131.704 236.911 131.225C237.229 130.746 237.43 130.199 237.5 129.629C237.5 128.689 236.68 128.389 235.67 128.979L209.3 144.199C208.801 144.487 208.375 144.887 208.058 145.368C207.74 145.849 207.539 146.397 207.47 146.969Z" fill="#455A64"/>
<path d="M207.47 152.689C207.47 153.639 208.29 153.929 209.3 153.349L265.7 120.829C266.2 120.542 266.625 120.142 266.943 119.661C267.261 119.18 267.462 118.631 267.53 118.059C267.53 117.119 266.71 116.829 265.7 117.409L209.3 149.929C208.801 150.215 208.377 150.614 208.059 151.093C207.741 151.572 207.54 152.118 207.47 152.689Z" fill="url(#paint5_linear_3_694)"/>
<path d="M207.47 163.629C207.47 164.569 208.29 164.869 209.3 164.279L235.67 149.059C236.169 148.771 236.594 148.371 236.912 147.89C237.23 147.409 237.431 146.861 237.5 146.289C237.5 145.349 236.68 145.059 235.67 145.639L209.3 160.829C208.796 161.119 208.368 161.524 208.05 162.01C207.733 162.497 207.534 163.051 207.47 163.629Z" fill="#455A64"/>
<path d="M207.47 169.319C207.47 170.259 208.29 170.549 209.3 169.969L265.7 137.449C266.198 137.163 266.623 136.764 266.941 136.285C267.259 135.806 267.46 135.259 267.53 134.689C267.53 133.749 266.71 133.449 265.7 134.039L209.3 166.549C208.801 166.837 208.375 167.237 208.058 167.718C207.74 168.199 207.539 168.747 207.47 169.319Z" fill="url(#paint6_linear_3_694)"/>
<path d="M207.47 181.269C207.47 182.269 208.29 182.509 209.3 181.919L235.67 166.699C236.17 166.412 236.595 166.012 236.913 165.531C237.231 165.05 237.432 164.501 237.5 163.929C237.5 162.989 236.68 162.699 235.67 163.279L209.3 178.509C208.801 178.795 208.377 179.194 208.059 179.673C207.741 180.152 207.54 180.698 207.47 181.269Z" fill="#455A64"/>
<path d="M207.47 186.999C207.47 187.939 208.29 188.229 209.3 187.649L265.7 155.129C266.198 154.843 266.623 154.444 266.941 153.965C267.259 153.486 267.46 152.939 267.53 152.369C267.53 151.429 266.71 151.129 265.7 151.719L209.3 184.239C208.801 184.525 208.377 184.924 208.059 185.403C207.741 185.882 207.54 186.428 207.47 186.999Z" fill="url(#paint7_linear_3_694)"/>
<path d="M207.47 198.949C207.47 199.949 208.29 200.189 209.3 199.609L235.67 184.379C236.168 184.093 236.593 183.694 236.911 183.215C237.229 182.736 237.43 182.189 237.5 181.619C237.5 180.619 236.68 180.379 235.67 180.959L209.3 196.189C208.801 196.475 208.377 196.874 208.059 197.353C207.741 197.832 207.54 198.378 207.47 198.949Z" fill="#455A64"/>
<path d="M207.47 204.679C207.47 205.619 208.29 205.919 209.3 205.329L265.7 172.819C266.198 172.53 266.623 172.129 266.94 171.649C267.258 171.168 267.46 170.621 267.53 170.049C267.53 169.109 266.71 168.819 265.7 169.399L209.3 201.919C208.801 202.205 208.377 202.604 208.059 203.083C207.741 203.562 207.54 204.108 207.47 204.679Z" fill="url(#paint8_linear_3_694)"/>
<path d="M289.51 280.209C287.643 282.21 285.587 284.025 283.37 285.629C283.018 285.855 282.724 286.16 282.51 286.519C282.22 287.129 281.76 288.629 284.51 289.599C285.911 290.083 287.399 290.26 288.874 290.119C290.349 289.977 291.777 289.52 293.06 288.779C295.33 287.349 295.44 284.389 297.58 282.699C299.17 281.449 301.16 281.129 302.44 279.499C303.34 278.359 303.1 276.839 302.64 274.969C302.13 272.919 301.89 271.369 301.22 271.529L301.33 272.469C300.48 273.819 296.1 274.219 294.15 273.289C292.725 275.675 291.177 277.985 289.51 280.209Z" fill="#263238"/>
<path d="M287.59 282.129C288.262 281.529 288.903 280.894 289.51 280.229C290.812 278.549 292.008 276.789 293.09 274.959C293.843 273.853 294.196 272.523 294.09 271.189C293.94 269.769 293.55 266.139 293.55 266.139L300.49 265.649L301.3 272.459C301.47 273.999 300.19 275.369 297.93 277.319C295.67 279.269 292.8 283.809 290.76 284.949C288.72 286.089 287.25 286.049 286.38 285.459C285.51 284.869 285.37 284.379 287.59 282.129Z" fill="#FFA8A7"/>
<path d="M320.7 280.829V279.829C320.29 281.059 318.38 286.329 315.49 288.969C313.19 291.069 310.05 293.489 309.25 295.829C308.45 298.169 313.62 299.079 315.77 298.699C318.638 298.223 321.269 296.817 323.26 294.699C324.5 293.179 325.26 291.379 326.17 290.179C327.08 288.979 329.09 287.649 329.57 286.269C329.713 284.977 329.57 283.669 329.15 282.439C328.81 281.149 328.44 279.729 328 279.849V280.649C326.96 281.464 325.671 281.898 324.35 281.879C323.29 281.859 320.7 281.629 320.7 280.829Z" fill="#263238"/>
<path d="M313.37 290.769C314.09 290.139 314.81 289.509 315.46 288.919C317.46 287.069 319.02 283.919 319.91 281.809C320.411 280.591 320.669 279.286 320.67 277.969V273.809H327.97V280.629V280.809C327.61 282.329 324.27 286.359 322.36 288.989C321.09 290.749 318.66 292.989 315.77 293.379C312.88 293.769 311.62 292.849 313.37 290.769Z" fill="#FFA8A7"/>
<path d="M326.55 167.429C332.21 179.779 326.35 223.309 326.35 223.309C326.52 225.309 328.81 229.259 329.66 238.079C330.66 248.509 328.08 274.689 328.08 274.689C326.967 275.335 325.713 275.7 324.427 275.752C323.141 275.804 321.862 275.542 320.7 274.989C320.7 274.989 313.75 235.549 312.44 225.189C311.3 216.139 309.11 194.869 309.11 194.869L302.54 225.199C303.321 228.138 303.75 231.159 303.82 234.199C303.72 240.329 300.87 267.199 300.87 267.199C300.87 267.199 298.33 268.679 293.55 267.979C293.55 267.979 288.94 232.709 289.08 224.489C289.15 220.089 291.08 173.249 291.08 173.249L326.55 167.429Z" fill="#12C2E9"/>
<g opacity="0.15">
<path d="M309.11 194.869L307.27 184.769C307.27 184.769 299.5 183.159 295.98 179.839C298.415 182.691 301.598 184.808 305.17 185.949L307.23 194.789L303.5 220.789L309.11 194.869Z" fill="#263238"/>
</g>
<path d="M309.79 84.7888L310.17 80.5088C309.89 80.4683 309.606 80.4851 309.333 80.5583C309.06 80.6314 308.805 80.7594 308.583 80.9344C308.361 81.1094 308.177 81.3277 308.043 81.576C307.908 81.8244 307.826 82.0975 307.8 82.3788C307.76 82.959 307.944 83.5324 308.314 83.9809C308.684 84.4293 309.213 84.7185 309.79 84.7888Z" fill="#263238"/>
<path d="M310.02 85.2188L313.48 82.6788C313.325 82.4392 313.122 82.234 312.884 82.0758C312.646 81.9177 312.378 81.81 312.097 81.7594C311.816 81.7088 311.527 81.7163 311.249 81.7816C310.971 81.8469 310.709 81.9684 310.48 82.1388C310.025 82.4968 309.724 83.015 309.639 83.5875C309.553 84.16 309.69 84.7436 310.02 85.2188Z" fill="#263238"/>
<path d="M313.62 121.749C313.62 121.749 321.95 122.479 323.12 122.999C317.12 129.549 326.24 132.269 326.24 132.269L320.01 154.549C323.75 160.259 326.13 164.669 327.54 170.289C323.34 177.689 299.73 178.719 291.07 173.199C291.83 162.869 293.51 155.469 292.95 152.359C290 139.689 290.11 137.009 290.49 134.109C291.25 128.449 296.87 123.509 300.08 121.439H303.08L313.62 121.749Z" fill="#37474F"/>
<path d="M296.68 91.7688C294.92 92.7688 292.75 97.2289 292.96 106.509C293.14 114.369 295.69 116.309 296.96 116.869C298.23 117.429 300.71 117.089 303.11 116.689V121.409C303.11 121.409 299.79 125.259 300 127.409C300.21 129.559 304.79 130.079 307.89 127.969C310.134 126.225 312.068 124.116 313.61 121.729L313.55 110.879C313.55 110.879 314.96 112.259 317.36 110.159C319.36 108.429 320 105.519 318.46 103.959C318.061 103.586 317.579 103.314 317.054 103.164C316.529 103.015 315.976 102.992 315.44 103.099C314.905 103.205 314.403 103.438 313.975 103.777C313.547 104.116 313.206 104.552 312.98 105.049C312.32 106.479 310.82 106.499 310.81 104.869C310.74 96.5089 309.75 96.0688 308.91 92.6388C303.92 91.0288 300.37 91.6288 296.68 91.7688Z" fill="#FFA8A7"/>
<path d="M301.74 104.529C301.733 104.66 301.753 104.791 301.797 104.915C301.841 105.039 301.909 105.153 301.997 105.251C302.086 105.348 302.192 105.427 302.311 105.484C302.43 105.54 302.559 105.572 302.69 105.579C302.821 105.585 302.953 105.566 303.076 105.522C303.2 105.478 303.314 105.41 303.412 105.321C303.509 105.233 303.588 105.127 303.645 105.008C303.701 104.889 303.733 104.76 303.74 104.629C303.747 104.498 303.727 104.366 303.683 104.242C303.639 104.118 303.571 104.005 303.482 103.907C303.394 103.81 303.288 103.73 303.169 103.674C303.05 103.618 302.921 103.585 302.79 103.579C302.659 103.572 302.527 103.592 302.403 103.636C302.28 103.68 302.166 103.748 302.068 103.836C301.971 103.925 301.892 104.031 301.835 104.15C301.779 104.269 301.747 104.397 301.74 104.529Z" fill="#263238"/>
<path d="M301.47 111.199L299.18 111.929C299.22 112.083 299.291 112.227 299.389 112.353C299.486 112.479 299.609 112.583 299.748 112.66C299.888 112.737 300.042 112.784 300.2 112.799C300.358 112.815 300.518 112.797 300.67 112.749C300.981 112.648 301.239 112.429 301.389 112.138C301.538 111.848 301.568 111.51 301.47 111.199Z" fill="#F28F8F"/>
<path d="M293.79 101.909L295.79 100.529C295.706 100.393 295.595 100.276 295.464 100.185C295.334 100.094 295.186 100.03 295.03 99.9968C294.874 99.9641 294.713 99.9634 294.556 99.9946C294.4 100.026 294.251 100.089 294.12 100.179C293.856 100.372 293.675 100.658 293.614 100.979C293.553 101.3 293.616 101.632 293.79 101.909Z" fill="#263238"/>
<path d="M304.62 102.229L302.62 100.839C302.704 100.705 302.814 100.589 302.945 100.498C303.075 100.408 303.222 100.345 303.377 100.313C303.532 100.281 303.692 100.281 303.848 100.313C304.003 100.345 304.15 100.408 304.28 100.499C304.546 100.69 304.729 100.975 304.792 101.297C304.855 101.618 304.793 101.951 304.62 102.229Z" fill="#263238"/>
<path d="M294.09 103.819C294.09 104.017 294.149 104.21 294.258 104.374C294.368 104.539 294.525 104.667 294.707 104.743C294.89 104.818 295.091 104.838 295.285 104.8C295.479 104.761 295.657 104.666 295.797 104.526C295.937 104.386 296.032 104.208 296.071 104.014C296.109 103.82 296.09 103.619 296.014 103.436C295.938 103.253 295.81 103.097 295.646 102.987C295.481 102.877 295.288 102.819 295.09 102.819C294.825 102.819 294.57 102.924 294.383 103.112C294.195 103.299 294.09 103.554 294.09 103.819Z" fill="#263238"/>
<path d="M298.76 103.249L298.6 109.199L295.47 108.229L298.76 103.249Z" fill="#F28F8F"/>
<path d="M303.12 116.689C305.65 116.359 310.85 114.869 311.66 112.809C311.334 113.85 310.695 114.765 309.83 115.429C308.28 116.769 303.12 118.269 303.12 118.269V116.689Z" fill="#F28F8F"/>
<path d="M301.89 84.8788C300.086 84.8788 298.3 85.2348 296.634 85.9263C294.968 86.6178 293.455 87.6312 292.181 88.9085C290.908 90.1859 289.899 91.702 289.212 93.37C288.525 95.038 288.175 96.8251 288.18 98.6288V100.399H294.89C296.399 100.4 297.858 99.8534 298.995 98.8602C300.131 97.867 300.869 96.4949 301.07 94.9988L301.32 100.399C302.558 100.389 303.749 99.921 304.661 99.0841C305.574 98.2473 306.144 97.1016 306.26 95.8689L306.34 94.9888C306.458 96.462 307.127 97.8367 308.213 98.8392C309.298 99.8417 310.722 100.399 312.2 100.399H312.8L313.48 90.7188L301.89 84.8788Z" fill="#263238"/>
<path d="M317.66 126.629C315.8 129.389 305.19 152.629 305.19 152.629C305.19 152.629 289.19 151.549 282.43 150.829C280.3 150.599 280.77 148.319 279.92 146.059C279.07 143.799 277.98 144.239 277.98 144.239V147.239C278.05 149.239 274.7 150.359 273.26 150.919C270.9 151.839 268.31 152.419 265.87 153.179C265.013 153.341 264.245 153.81 263.71 154.499C263.529 154.847 263.44 155.236 263.452 155.628C263.464 156.02 263.577 156.403 263.78 156.739C264.365 157.689 265.167 158.488 266.119 159.07C267.071 159.652 268.147 160.001 269.26 160.089C271.98 160.419 274.62 159.639 277.26 159.159C280.39 158.609 282.78 158.159 285.88 158.569C288.98 158.979 292.74 159.789 295.69 160.329C299.472 160.985 303.288 161.426 307.12 161.649C309.25 161.749 310.8 161.329 312.64 158.729C314.48 156.129 324.64 135.199 324.64 135.199C328.87 129.199 326.44 124.119 323.3 123.049C321.37 122.409 319.53 123.909 317.66 126.629Z" fill="#FFA8A7"/>
<path d="M253.09 104.269C253.897 104.377 254.692 104.568 255.46 104.839C257.432 105.511 259.118 106.833 260.24 108.589C260.727 109.455 260.933 110.451 260.83 111.439C260.801 111.698 260.723 111.949 260.6 112.179C260.319 112.575 259.935 112.886 259.49 113.079C258.784 113.563 257.952 113.828 257.097 113.842C256.242 113.857 255.401 113.619 254.68 113.159C252.726 112.026 250.662 111.095 248.52 110.379C247.439 110.044 246.32 109.846 245.19 109.789C244.539 109.805 243.91 110.034 243.4 110.439C243.222 109.994 243.169 109.508 243.249 109.036C243.328 108.563 243.536 108.121 243.85 107.759C244.956 106.262 246.517 105.164 248.3 104.629C249.85 104.155 251.486 104.032 253.09 104.269Z" fill="#FFA8A7"/>
<path d="M76.18 173.149C81.9735 173.149 86.67 168.452 86.67 162.659C86.67 156.865 81.9735 152.169 76.18 152.169C70.3865 152.169 65.69 156.865 65.69 162.659C65.69 168.452 70.3865 173.149 76.18 173.149Z" fill="#263238"/>
<path d="M51.07 352.719H58.46V340.079H51.07V352.719Z" fill="#FFA8A7"/>
<path d="M76.68 339.399L84.06 339.649L84.43 326.269L76.68 326.019V339.399Z" fill="#FFA8A7"/>
<path d="M51.56 231.709C51.56 238.759 50.65 289.639 50.65 289.639C50.48 291.639 48.57 295.409 48.99 303.209C49.54 313.799 50.76 346.399 50.76 346.399C52.0352 347.025 53.4321 347.363 54.8523 347.391C56.2724 347.418 57.6814 347.134 58.98 346.559C58.98 346.559 65.5 303.249 66.82 292.749C67.98 283.599 69.94 258.749 69.94 258.749L73.94 288.639C73.0861 292.49 72.7797 296.442 73.03 300.379C73.37 305.229 76.22 335.289 76.22 335.289C77.5052 336.017 78.9349 336.452 80.4075 336.564C81.8801 336.677 83.3593 336.463 84.74 335.939C84.74 335.939 88.48 293.099 88.56 288.639C88.66 283.569 86.1 231.739 86.1 231.739L51.56 231.709Z" fill="#37474F"/>
<path d="M85.09 188.779C89.42 192.339 97.24 199.569 97.24 199.569L85.04 206.279L77.28 185.469C77.28 185.469 80.37 184.869 85.09 188.779Z" fill="#12C2E9"/>
<path opacity="0.1" d="M85.09 188.779C89.42 192.339 97.24 199.569 97.24 199.569L85.04 206.279L77.28 185.469C77.28 185.469 80.37 184.869 85.09 188.779Z" fill="black"/>
<path d="M54.07 190.539C54.07 190.539 51.31 193.309 51.31 200.009V214.479L51.1 241.809C61.7 247.399 75.1 247.719 86.39 239.459C86.39 239.459 85.85 204.339 85.85 198.579C85.85 192.819 82.65 185.349 73.85 184.839L62.46 187.489L54.07 190.539Z" fill="#12C2E9"/>
<path d="M58.06 170.109C58.06 170.109 59.76 178.109 60.44 179.409C60.8943 180.217 61.643 180.819 62.53 181.089L62.41 175.479L58.06 170.109Z" fill="#263238"/>
<path d="M60.19 158.679C59.5972 158.607 58.9958 158.673 58.4324 158.871C57.8689 159.068 57.3583 159.393 56.94 159.819C55.54 161.249 56.32 165.729 58.06 170.109L61.26 170.479L60.19 158.679Z" fill="#263238"/>
<path d="M62.22 170.479C61.58 170.869 60.66 169.629 59.87 168.809C59.08 167.989 56.5 166.809 55.21 169.559C53.92 172.309 56.37 175.989 58.37 176.629C61.87 177.729 62.37 175.489 62.37 175.489L62.64 188.129C62.64 188.129 65.64 193.129 73.43 194.329C77.43 194.949 78.37 191.089 74.04 187.799V183.949C75.6036 184.198 77.1893 184.278 78.77 184.189C81.35 183.789 82.97 181.759 83.77 178.969C85.03 174.489 85.5 170.869 84.44 162.049C83.27 152.389 72.03 152.289 65.96 156.109C59.89 159.929 62.22 170.479 62.22 170.479Z" fill="#FFA8A7"/>
<path d="M62.22 171.559C61.9 171.559 60.67 169.559 59.87 168.809C58.76 167.809 60.19 158.679 60.19 158.679C59.901 157.888 59.8482 157.03 60.0382 156.21C60.2282 155.39 60.6527 154.642 61.26 154.059C62.78 152.399 65.31 152.209 69.64 151.529C71.91 151.169 75.35 150.529 77.64 150.119C80.34 149.609 82.58 149.119 84.5 150.739C85.2466 151.391 85.7739 152.258 86.0101 153.22C86.2463 154.183 86.1799 155.195 85.82 156.119C85.6224 156.539 85.3628 156.926 85.05 157.269C84.5387 157.885 83.8675 158.349 83.11 158.609C83.11 158.609 81.93 159.659 77.82 160.159C74.0282 160.443 70.2181 160.369 66.44 159.939C65.25 159.779 65 160.939 64.36 164.079C63.77 166.849 63.3 171.539 62.22 171.559Z" fill="#263238"/>
<path d="M60.2 159.389L56.37 157.299C56.4914 157.035 56.6653 156.798 56.8811 156.604C57.0969 156.409 57.35 156.261 57.6251 156.167C57.9002 156.074 58.1914 156.037 58.4811 156.06C58.7708 156.082 59.0528 156.164 59.31 156.299C59.8288 156.599 60.2113 157.089 60.3772 157.665C60.5431 158.241 60.4796 158.859 60.2 159.389Z" fill="#263238"/>
<path d="M74.07 183.939C74.07 183.939 68.32 182.779 66.31 181.709C65.1276 181.093 64.1586 180.135 63.53 178.959C63.8312 180.135 64.3688 181.237 65.11 182.199C66.58 184.079 74.11 185.469 74.11 185.469L74.07 183.939Z" fill="#F28F8F"/>
<path d="M72.69 169.039C72.6821 169.267 72.6072 169.487 72.4746 169.673C72.342 169.859 72.1576 170.001 71.9445 170.083C71.7314 170.164 71.4991 170.181 71.2765 170.131C71.0539 170.081 70.851 169.966 70.6932 169.801C70.5353 169.637 70.4296 169.429 70.3891 169.205C70.3486 168.98 70.3752 168.749 70.4656 168.539C70.556 168.33 70.7061 168.152 70.8972 168.027C71.0883 167.903 71.3119 167.837 71.54 167.839C71.6945 167.841 71.847 167.875 71.9886 167.936C72.1302 167.998 72.2582 168.088 72.3651 168.199C72.472 168.311 72.5558 168.442 72.6116 168.587C72.6673 168.731 72.694 168.884 72.69 169.039Z" fill="#263238"/>
<path d="M71.47 164.689L69 166.049C68.9061 165.88 68.8463 165.695 68.8241 165.503C68.8018 165.311 68.8177 165.117 68.8706 164.931C68.9235 164.745 69.0125 164.572 69.1326 164.42C69.2526 164.269 69.4012 164.143 69.57 164.049C69.7357 163.961 69.9177 163.908 70.1047 163.892C70.2918 163.877 70.4799 163.9 70.6578 163.96C70.8356 164.02 70.9994 164.115 71.139 164.241C71.2787 164.366 71.3913 164.519 71.47 164.689Z" fill="#263238"/>
<path d="M73.55 177.009L76.18 178.009C76.1227 178.185 76.0307 178.347 75.9094 178.486C75.7881 178.626 75.6401 178.739 75.4741 178.821C75.3081 178.902 75.1275 178.949 74.943 178.959C74.7585 178.969 74.5738 178.942 74.4 178.879C74.0422 178.74 73.753 178.466 73.5942 178.117C73.4354 177.768 73.4195 177.37 73.55 177.009Z" fill="#F28F8F"/>
<path d="M82.97 165.629L80.72 163.899C80.8251 163.74 80.9625 163.604 81.1232 163.502C81.284 163.399 81.4646 163.332 81.6532 163.303C81.8418 163.275 82.0342 163.287 82.218 163.338C82.4018 163.389 82.5728 163.478 82.72 163.599C83.0128 163.841 83.2018 164.187 83.2483 164.564C83.2948 164.942 83.1952 165.323 82.97 165.629Z" fill="#263238"/>
<path d="M82.28 168.719C82.2702 168.946 82.1936 169.166 82.0599 169.35C81.9262 169.534 81.7412 169.675 81.528 169.755C81.3148 169.835 81.0828 169.85 80.8609 169.799C80.6391 169.748 80.4371 169.633 80.2803 169.468C80.1234 169.303 80.0186 169.095 79.9789 168.871C79.9392 168.647 79.9663 168.416 80.0569 168.207C80.1475 167.998 80.2975 167.821 80.4884 167.697C80.6792 167.572 80.9023 167.507 81.13 167.509C81.4421 167.519 81.7376 167.652 81.9528 167.878C82.1679 168.105 82.2854 168.407 82.28 168.719Z" fill="#263238"/>
<path d="M76.41 167.619L76.78 174.559L80.4 173.319L76.41 167.619Z" fill="#F28F8F"/>
<path d="M58.46 349.069V348.019C59.17 348.329 60.81 354.589 63.74 357.259C66.07 359.389 69.25 361.839 70.06 364.209C70.87 366.579 65.63 368.029 63.45 367.649C60.93 367.199 56.54 365.419 55.45 363.769C54.36 362.119 53.84 359.679 52.94 358.469C52.04 357.259 49.94 355.909 49.5 354.469C49.3559 353.163 49.5028 351.841 49.93 350.599C50.27 349.289 50.64 347.859 51.09 347.979V348.779C52.1379 349.611 53.4423 350.053 54.78 350.029C55.85 350.109 58.47 349.899 58.46 349.069Z" fill="#263238"/>
<path d="M84.14 337.379C84.53 337.379 84.84 337.929 85.68 338.849C86.9481 340.121 88.418 341.176 90.03 341.969C92.79 343.359 98.17 345.489 100.6 346.579C102.13 347.269 102.05 349.109 100.48 350.149C98.91 351.189 95.12 351.949 90.56 350.929C88.08 350.369 84.85 348.079 82.8 348.209C80.75 348.339 76.93 348.299 75.42 347.259C73.91 346.219 74.52 343.999 74.95 342.089C75.41 339.999 75.95 336.759 76.68 336.899V337.629C77.57 338.969 82.15 339.519 84.1 338.529L84.14 337.379Z" fill="#263238"/>
<path d="M69.94 258.719C73.7556 257.525 77.2641 255.511 80.22 252.819C80.22 252.819 78.22 256.539 72.34 259.989L73.6 286.049L69.94 258.719Z" fill="#263238"/>
<path d="M79.15 286.699L78.45 286.299C77.8669 285.912 77.3824 285.394 77.0351 284.786C76.6879 284.178 76.4875 283.498 76.45 282.799V211.009C76.4875 210.31 76.6879 209.63 77.0351 209.022C77.3824 208.414 77.8669 207.896 78.45 207.509L140.63 171.629C141.251 171.318 141.936 171.156 142.63 171.156C143.324 171.156 144.009 171.318 144.63 171.629L145.33 172.039C145.914 172.423 146.399 172.939 146.747 173.545C147.094 174.151 147.294 174.831 147.33 175.529V247.329C147.293 248.026 147.092 248.705 146.745 249.312C146.397 249.918 145.913 250.434 145.33 250.819L83.15 286.719C82.5275 287.026 81.842 287.185 81.1476 287.181C80.4533 287.178 79.7694 287.013 79.15 286.699Z" fill="#393939"/>
<path d="M113.1 200.889C123.87 194.669 132.61 199.719 132.61 212.159C132.61 224.599 123.87 239.729 113.1 245.949C102.33 252.169 93.58 247.129 93.58 234.689C93.58 222.249 102.37 207.119 113.1 200.889Z" fill="#455A64"/>
<path d="M112.96 210.689C116.45 208.689 119.29 210.299 119.29 214.339C119.176 216.541 118.543 218.686 117.443 220.597C116.343 222.509 114.807 224.134 112.96 225.339C109.46 227.339 106.63 225.729 106.63 221.689C106.744 219.486 107.377 217.342 108.477 215.43C109.577 213.519 111.113 211.894 112.96 210.689Z" fill="#12C2E9"/>
<path d="M125.43 232.209C125.43 225.579 120.78 222.889 115.03 226.209L111.44 228.279C105.7 231.599 101.04 239.659 101.04 246.279V248.069C104.36 249.169 108.54 248.569 113.1 245.939C118.086 242.865 122.304 238.692 125.43 233.739V232.209Z" fill="#12C2E9"/>
<path d="M147.37 175.189C147.23 174.139 146.37 173.759 145.37 174.339L83.19 210.249C82.5939 210.62 82.1018 211.136 81.76 211.749L77.04 209.019C77.3811 208.403 77.8732 207.883 78.47 207.509L140.63 171.629C141.25 171.314 141.935 171.149 142.63 171.149C143.325 171.149 144.01 171.314 144.63 171.629L145.33 172.029C145.876 172.379 146.341 172.843 146.693 173.388C147.045 173.933 147.276 174.547 147.37 175.189Z" fill="url(#paint9_linear_3_694)"/>
<path d="M82.84 286.859C82.2485 287.094 81.6138 287.202 80.9779 287.174C80.3419 287.146 79.7189 286.984 79.15 286.699L78.44 286.299C77.8569 285.912 77.3724 285.394 77.0251 284.786C76.6779 284.178 76.4775 283.498 76.44 282.799V211.009C76.4564 210.302 76.66 209.612 77.03 209.009L81.75 211.739C81.3875 212.345 81.1845 213.033 81.16 213.739V285.549C81.16 286.689 81.89 287.229 82.84 286.859Z" fill="#01E1FF"/>
<path d="M91.65 268.799C91.65 270.799 93.08 271.669 94.85 270.649L131.37 249.629C132.302 249.023 133.077 248.205 133.634 247.242C134.19 246.279 134.51 245.199 134.57 244.089C134.57 242.089 133.14 241.219 131.37 242.239L94.88 263.309C93.9512 263.909 93.1756 264.718 92.6148 265.671C92.054 266.624 91.7236 267.695 91.65 268.799Z" fill="#12C2E9"/>
<path d="M42.22 233.789C38.43 231.149 38.48 227.229 39.69 222.789C47.94 192.289 50.47 192.119 54.07 190.579L56.96 202.579L49.25 227.579C54.4146 231.371 60.2765 234.106 66.5 235.629C67.7967 235.846 69.1282 235.704 70.35 235.219C72.7 233.899 74.02 233.899 76.43 233.219V237.159C78.5846 237.431 80.7689 237.357 82.9 236.939C87.9 236.009 90.07 237.049 87.02 242.749C85.11 246.319 81.4 247.499 72.1 245.899C68.7112 245.257 65.3701 244.385 62.1 243.289C55.0917 240.992 48.4096 237.799 42.22 233.789Z" fill="#FFA8A7"/>
<path d="M54.07 190.539C54.07 190.539 57.62 192.769 58.38 198.359C59.14 203.949 53.76 219.159 53.76 219.159C53.76 219.159 45.07 218.329 41.47 214.049C41.47 214.049 46.47 200.139 47.47 196.999C47.9021 195.435 48.7404 194.014 49.8996 192.88C51.0588 191.745 52.4976 190.937 54.07 190.539Z" fill="#12C2E9"/>
<path opacity="0.1" d="M54.07 190.539C54.07 190.539 57.62 192.769 58.38 198.359C59.14 203.949 53.76 219.159 53.76 219.159C53.76 219.159 45.07 218.329 41.47 214.049C41.47 214.049 46.47 200.139 47.47 196.999C47.9021 195.435 48.7404 194.014 49.8996 192.88C51.0588 191.745 52.4976 190.937 54.07 190.539Z" fill="black"/>
<path d="M147.37 192.499V196.949C147.37 196.949 144.97 200.599 142.37 201.949C139.77 203.299 139.81 208.689 143.02 209.449C146.23 210.209 150.65 206.239 151.02 204.059C151.39 201.879 150.6 192.269 147.37 192.499Z" fill="#FFA8A7"/>
<defs>
<radialGradient id="paint0_radial_3_694" cx="0" cy="0" r="1" gradientUnits="userSpaceOnUse" gradientTransform="translate(106.57 13.7358) rotate(58.2049) scale(177.387 3858.51)">
<stop offset="0.147531" stop-color="#FF00E5"/>
<stop offset="1" stop-color="#00D1FF"/>
</radialGradient>
<linearGradient id="paint1_linear_3_694" x1="121.37" y1="57.5148" x2="189.516" y2="58.8336" gradientUnits="userSpaceOnUse">
<stop stop-color="#00E0FF"/>
<stop offset="1" stop-color="#FF00B8" stop-opacity="0.88"/>
</linearGradient>
<radialGradient id="paint2_radial_3_694" cx="0" cy="0" r="1" gradientUnits="userSpaceOnUse" gradientTransform="translate(35.1938 -31.9671) rotate(51.9389) scale(289.943 6836.17)">
<stop offset="0.147531" stop-color="#FF00E5"/>
<stop offset="1" stop-color="#00D1FF"/>
</radialGradient>
<radialGradient id="paint3_radial_3_694" cx="0" cy="0" r="1" gradientUnits="userSpaceOnUse" gradientTransform="translate(34.2484 65.348) rotate(74.237) scale(201.505 2558.92)">
<stop offset="0.147531" stop-color="#FF00E5"/>
<stop offset="1" stop-color="#00D1FF"/>
</radialGradient>
<linearGradient id="paint4_linear_3_694" x1="47.7563" y1="129.008" x2="75.9723" y2="129.47" gradientUnits="userSpaceOnUse">
<stop stop-color="#00E0FF"/>
<stop offset="1" stop-color="#FF00B8" stop-opacity="0.88"/>
</linearGradient>
<linearGradient id="paint5_linear_3_694" x1="220.344" y1="108.64" x2="261.791" y2="110.065" gradientUnits="userSpaceOnUse">
<stop stop-color="#00E0FF"/>
<stop offset="1" stop-color="#FF00B8" stop-opacity="0.88"/>
</linearGradient>
<linearGradient id="paint6_linear_3_694" x1="220.344" y1="125.267" x2="261.791" y2="126.692" gradientUnits="userSpaceOnUse">
<stop stop-color="#00E0FF"/>
<stop offset="1" stop-color="#FF00B8" stop-opacity="0.88"/>
</linearGradient>
<linearGradient id="paint7_linear_3_694" x1="220.344" y1="142.947" x2="261.791" y2="144.372" gradientUnits="userSpaceOnUse">
<stop stop-color="#00E0FF"/>
<stop offset="1" stop-color="#FF00B8" stop-opacity="0.88"/>
</linearGradient>
<linearGradient id="paint8_linear_3_694" x1="220.344" y1="160.631" x2="261.791" y2="162.056" gradientUnits="userSpaceOnUse">
<stop stop-color="#00E0FF"/>
<stop offset="1" stop-color="#FF00B8" stop-opacity="0.88"/>
</linearGradient>
<linearGradient id="paint9_linear_3_694" x1="92.1154" y1="161.738" x2="140.643" y2="163.495" gradientUnits="userSpaceOnUse">
<stop stop-color="#00E0FF"/>
<stop offset="1" stop-color="#FF00B8" stop-opacity="0.88"/>
</linearGradient>
</defs>
</svg>
