<svg width="600" height="537" viewBox="0 0 600 537" fill="none" xmlns="http://www.w3.org/2000/svg">
<path d="M209.106 107.609C209.106 107.609 19.0115 241.795 77.8027 376.598C136.594 511.401 225.568 453.168 315.303 386.819C405.038 320.469 516.974 461.994 553.985 322.357C590.997 182.721 405.26 -15.2975 209.106 107.609Z" fill="url(#paint0_linear_3_29)"/>
<path d="M278.472 85.6184L278.499 85.6124C392.472 66.8949 473.062 120.997 514.194 194.055C555.35 267.159 556.96 359.158 513.059 416.192C491.076 444.751 471.649 455.219 453.233 455.435C434.775 455.652 417.18 445.582 398.83 432.667C394.079 429.323 389.277 425.788 384.4 422.198C370.492 411.96 355.974 401.273 340.268 393.277C319.025 382.463 295.542 376.53 268.291 383.192C241.189 389.817 214.351 395.987 189.301 399.222C164.247 402.458 141.019 402.754 121.129 397.656C101.256 392.562 84.7138 382.085 72.9977 363.752C61.2721 345.404 54.3509 319.142 53.8244 282.432C52.7742 209.201 108.817 160.003 165.314 129.075C193.546 113.62 221.848 102.752 243.096 95.7481C253.719 92.2463 262.576 89.711 268.776 88.0514C271.876 87.2216 274.312 86.6108 275.972 86.2075C276.802 86.0059 277.438 85.8562 277.866 85.757C278.08 85.7074 278.242 85.6704 278.35 85.6459L278.472 85.6184Z" stroke="black"/>
<defs>
<linearGradient id="paint0_linear_3_29" x1="92.2451" y1="487.367" x2="573.299" y2="421.97" gradientUnits="userSpaceOnUse">
<stop stop-color="#12C2E9"/>
<stop offset="0.5" stop-color="#C471ED"/>
<stop offset="1" stop-color="#F64F59"/>
</linearGradient>
</defs>
</svg>
