<svg width="370" height="374" viewBox="0 0 370 374" fill="none" xmlns="http://www.w3.org/2000/svg">
<path d="M152.821 276.984C152.72 275.084 152.171 273.235 151.219 271.588C150.266 269.941 148.937 268.544 147.34 267.509C147.114 267.369 146.876 267.248 146.629 267.147V263.053L129.277 255.25C130.911 253.269 131.861 250.813 131.985 248.247C132.045 247.585 131.934 246.918 131.663 246.31C131.392 245.703 130.97 245.175 130.437 244.777L126.955 242.567V239.259L126.093 238.909L108.005 242.767V239.022C108.287 238.91 108.562 238.781 108.828 238.635C109.5 238.332 110.079 237.856 110.505 237.254C110.931 236.653 111.188 235.949 111.25 235.214V206.564H94.5847V235.277C94.6587 236.017 94.9292 236.725 95.3681 237.326C95.807 237.928 96.3985 238.401 97.0814 238.697C97.3186 238.834 97.5932 238.934 97.8554 239.059V243.453L73.0131 242.143L71.1281 242.767V243.653C70.7024 243.507 70.2506 243.454 69.8028 243.497C69.355 243.54 68.9215 243.679 68.5315 243.903L65.0486 246.112C64.5139 246.509 64.0905 247.037 63.8193 247.645C63.5481 248.252 63.4384 248.92 63.5006 249.583C63.6 251.485 64.1485 253.336 65.101 254.985C66.0536 256.634 67.3832 258.034 68.9809 259.07C69.5349 259.469 70.1836 259.716 70.8626 259.786C71.5416 259.856 72.2271 259.747 72.8508 259.47L76.2963 257.273C76.8843 256.898 77.356 256.366 77.6582 255.737C77.9604 255.109 78.081 254.408 78.0065 253.715C77.9369 251.79 77.3737 249.916 76.3712 248.272L91.6635 252.129L62.6642 269.357V274.787C61.3575 275.856 60.2868 277.185 59.5197 278.689C58.7526 280.193 58.3058 281.84 58.2076 283.526C58.1305 284.217 58.2474 284.915 58.545 285.544C58.8427 286.172 59.3094 286.705 59.8929 287.083L63.3258 289.281H63.3883C64.0111 289.562 64.6973 289.673 65.3771 289.603C66.0568 289.532 66.7058 289.283 67.2582 288.881C68.855 287.845 70.1832 286.445 71.1337 284.795C72.0842 283.146 72.6299 281.295 72.726 279.394C72.7908 278.732 72.6835 278.065 72.4145 277.456C72.1455 276.848 71.7238 276.32 71.1905 275.923L69.4053 274.787L100.552 257.959C101.331 258.21 102.143 258.34 102.961 258.346L106.706 285.298C106.072 285.237 105.434 285.376 104.884 285.698L101.401 287.895C100.866 288.294 100.443 288.824 100.172 289.434C99.9005 290.044 99.7907 290.713 99.8528 291.378C99.9531 293.278 100.502 295.127 101.455 296.774C102.407 298.421 103.736 299.818 105.333 300.853C105.886 301.254 106.534 301.503 107.213 301.575C107.892 301.647 108.578 301.54 109.203 301.265H109.278L112.711 299.08C113.303 298.706 113.779 298.173 114.083 297.542C114.388 296.911 114.509 296.207 114.434 295.51C114.333 293.805 113.879 292.139 113.098 290.619C112.318 289.099 111.23 287.759 109.902 286.684V283.176L106.931 257.31C107.284 257.124 107.584 256.851 107.803 256.517C108.021 256.183 108.151 255.798 108.179 255.4L141.074 268.77L140.062 269.407C139.529 269.805 139.107 270.333 138.836 270.94C138.565 271.548 138.455 272.215 138.514 272.877C138.616 274.779 139.165 276.629 140.117 278.278C141.07 279.926 142.398 281.327 143.995 282.365C144.547 282.766 145.196 283.014 145.875 283.087C146.554 283.159 147.24 283.052 147.865 282.777H147.939L151.372 280.58C151.919 280.169 152.343 279.618 152.598 278.984C152.853 278.35 152.93 277.659 152.821 276.984ZM145.181 263.989L128.19 256.424L140.761 262.029L145.181 263.989ZM117.717 250.045L115.969 249.258L118.466 247.898C118.157 248.584 117.914 249.299 117.742 250.032L117.717 250.045ZM117.455 251.643L107.98 247.436L117.455 251.643Z" fill="#E0E0E0"/>
<path d="M67.6951 250.819L64.9487 246.112L68.519 243.84C69.1465 243.524 69.8491 243.387 70.5495 243.444C71.2499 243.502 71.9209 243.751 72.4888 244.165C74.0844 245.204 75.4124 246.604 76.3647 248.253C77.3169 249.901 77.8666 251.751 77.9691 253.653C78.0436 254.346 77.9229 255.046 77.6208 255.675C77.3186 256.304 76.8469 256.835 76.2588 257.21L72.7509 259.445L69.8423 254.451C68.9396 253.361 68.2149 252.135 67.6951 250.819Z" fill="#37474F"/>
<path d="M68.9185 246.512C65.885 244.764 63.4132 246.162 63.4007 249.645C63.5002 251.547 64.0486 253.398 65.0012 255.047C65.9537 256.696 67.2833 258.096 68.881 259.133C71.9145 260.88 74.3863 259.482 74.3863 255.987C74.2883 254.088 73.7417 252.239 72.7912 250.592C71.8408 248.945 70.5136 247.547 68.9185 246.512Z" fill="#455A64"/>
<path d="M127.691 249.483L130.437 244.764L126.867 242.492C126.239 242.178 125.535 242.043 124.835 242.102C124.134 242.162 123.464 242.413 122.897 242.829C121.301 243.864 119.972 245.262 119.019 246.908C118.066 248.555 117.518 250.404 117.417 252.304C117.34 253 117.46 253.703 117.762 254.334C118.064 254.965 118.537 255.499 119.127 255.875L122.635 258.122L125.544 253.128C126.448 252.034 127.172 250.804 127.691 249.483Z" fill="#37474F"/>
<path d="M126.468 245.101C129.501 243.354 131.973 244.752 131.985 248.235C131.886 250.136 131.338 251.988 130.385 253.637C129.433 255.286 128.103 256.686 126.505 257.722C123.472 259.47 121 258.072 121 254.589C121.096 252.688 121.642 250.836 122.592 249.187C123.543 247.538 124.871 246.137 126.468 245.101Z" fill="#455A64"/>
<path d="M108.005 237.773H97.8179V255.338C97.8655 255.787 98.03 256.216 98.2951 256.582C98.5601 256.947 98.9164 257.237 99.3284 257.422C100.445 257.988 101.678 258.283 102.93 258.283C104.181 258.283 105.415 257.988 106.531 257.422C106.942 257.24 107.295 256.949 107.555 256.583C107.814 256.216 107.969 255.786 108.005 255.338V237.773Z" fill="#EBEBEB"/>
<path d="M71.1156 242.717V246.911L97.8179 253.64V244.777L71.1156 242.717Z" fill="#E0E0E0"/>
<path d="M71.1156 242.717L72.9756 242.093L97.8179 243.404V244.777L71.1156 242.717Z" fill="#F5F5F5"/>
<path d="M68.4316 280.679L71.1905 275.961L67.6202 273.689C66.9953 273.368 66.2929 273.23 65.5932 273.289C64.8934 273.349 64.2246 273.604 63.6629 274.026C62.0661 275.06 60.737 276.458 59.7845 278.105C58.8319 279.752 58.283 281.601 58.1826 283.501C58.1033 284.198 58.2215 284.904 58.5239 285.537C58.8263 286.171 59.3007 286.707 59.8929 287.083L63.4007 289.318L66.2969 284.325C67.2023 283.234 67.9234 282.003 68.4316 280.679Z" fill="#37474F"/>
<path d="M67.2207 276.298C70.2542 274.55 72.726 275.948 72.726 279.431C72.6357 281.339 72.0928 283.197 71.142 284.854C70.1912 286.51 68.8599 287.916 67.2582 288.956C64.2246 290.704 61.7529 289.306 61.7404 285.81C61.835 283.904 62.3812 282.047 63.334 280.393C64.2868 278.739 65.619 277.336 67.2207 276.298Z" fill="#455A64"/>
<path d="M103.997 292.701L101.251 287.982L104.821 285.723C105.451 285.411 106.153 285.278 106.853 285.337C107.553 285.396 108.223 285.646 108.791 286.06C110.386 287.096 111.713 288.495 112.665 290.141C113.618 291.788 114.168 293.636 114.271 295.535C114.347 296.232 114.226 296.935 113.921 297.567C113.616 298.198 113.141 298.731 112.549 299.105L109.041 301.34L106.132 296.346C105.228 295.254 104.507 294.023 103.997 292.701Z" fill="#37474F"/>
<path d="M105.221 288.269C102.187 286.509 99.7155 287.92 99.703 291.403C99.8034 293.303 100.352 295.152 101.305 296.799C102.257 298.446 103.586 299.843 105.183 300.878C108.217 302.638 110.689 301.227 110.689 297.744C110.591 295.845 110.044 293.997 109.093 292.35C108.143 290.703 106.816 289.304 105.221 288.269Z" fill="#455A64"/>
<path d="M142.547 274.15L139.8 269.432L143.37 267.16C143.997 266.837 144.702 266.697 145.404 266.756C146.106 266.816 146.777 267.073 147.34 267.497C148.937 268.531 150.266 269.929 151.219 271.576C152.171 273.223 152.72 275.072 152.821 276.972C152.897 277.667 152.778 278.37 152.476 279.001C152.173 279.632 151.7 280.166 151.11 280.542L147.602 282.789L144.706 277.796C143.797 276.703 143.068 275.473 142.547 274.15Z" fill="#37474F"/>
<path d="M143.77 269.769C140.736 268.021 138.265 269.419 138.252 272.902C138.354 274.804 138.903 276.654 139.855 278.303C140.808 279.951 142.136 281.352 143.732 282.39C146.766 284.137 149.238 282.739 149.25 279.244C149.147 277.345 148.597 275.497 147.644 273.85C146.692 272.204 145.365 270.805 143.77 269.769Z" fill="#455A64"/>
<path d="M64.699 270.468V277.246L100.452 257.934V248.584L64.699 270.468Z" fill="#E0E0E0"/>
<path d="M62.6267 269.307L98.4046 248.06L100.452 248.584L64.699 270.468L62.6267 269.307Z" fill="#F5F5F5"/>
<path d="M62.6267 276.085L64.699 277.246V270.468L62.6267 269.307V276.085Z" fill="#F0F0F0"/>
<path d="M102.861 248.584L107.218 283.151V289.33L102.861 258.309V248.584Z" fill="#E0E0E0"/>
<path d="M109.74 283.139H107.218V289.318H109.74V283.139Z" fill="#F0F0F0"/>
<path d="M109.74 283.151L105.77 248.584H102.861L107.218 283.151H109.74Z" fill="#F5F5F5"/>
<path d="M145.181 263.976V270.468L108.005 255.363V247.423L145.181 263.976Z" fill="#E0E0E0"/>
<path d="M146.629 269.519L145.181 270.468V263.976L146.629 263.052V269.519Z" fill="#F0F0F0"/>
<path d="M140.761 262.016L145.181 263.976L146.629 263.053L108.005 245.651V247.423L140.761 262.016Z" fill="#F5F5F5"/>
<path d="M126.83 239.184V243.441L115.994 249.246L108.005 245.65V243.903L126.83 239.184Z" fill="#E0E0E0"/>
<path d="M126.83 239.184L125.968 238.847L108.005 242.717V243.903L126.83 239.184Z" fill="#F5F5F5"/>
<path d="M111.25 206.564H94.5847V235.277C94.6587 236.017 94.9292 236.725 95.3681 237.326C95.807 237.928 96.3985 238.401 97.0814 238.697C98.9064 239.627 100.926 240.111 102.974 240.111C105.022 240.111 107.041 239.627 108.866 238.697C109.538 238.395 110.117 237.918 110.543 237.317C110.968 236.715 111.226 236.011 111.288 235.277L111.25 206.564Z" fill="#E0E0E0"/>
<path d="M176.926 160.375C176.131 159.112 175.043 158.059 173.755 157.304L167.514 154.109C167.514 131.888 170.797 134.06 176.926 125.396C183.056 116.733 173.656 111.252 166.59 115.122C166.59 115.122 127.067 126.745 116.656 116.483C103.66 103.725 109.103 71.5422 110.651 58.9463C112.199 46.3504 110.651 37.6369 107.168 33.9792C103.685 30.3215 98.6418 24.8662 82.2759 31.6447C82.2759 31.6447 38.1714 50.7571 16.5749 61.418C11.508 62.4707 6.81453 64.8584 2.98025 68.334C1.90575 69.221 1.0512 70.3447 0.483539 71.6171C0.208058 72.2567 0.107953 72.9582 0.193522 73.6493C0.279091 74.3405 0.547245 74.9963 0.970397 75.5494C1.65644 76.2531 2.58517 76.6683 3.56698 76.7104L30.8186 177.39C31.7007 180.65 33.2578 183.688 35.3889 186.307C37.5201 188.926 40.1778 191.069 43.1898 192.595L90.7397 216.551C93.0133 217.702 95.5299 218.291 98.0781 218.267C100.626 218.243 103.131 217.607 105.383 216.414L173.319 180.349C180.097 176.479 180.734 166.105 176.926 160.375Z" fill="#37474F"/>
<path d="M176.926 160.375C176.006 161.774 174.77 162.937 173.319 163.771L105.383 199.861C103.133 201.059 100.628 201.698 98.0797 201.724C95.531 201.751 93.0134 201.163 90.7398 200.011L43.1399 175.842C40.1288 174.315 37.4719 172.172 35.3409 169.553C33.2099 166.934 31.6522 163.896 30.7687 160.637L7.79895 75.7491L6.65046 76.0987C5.67988 76.416 4.66287 76.5679 3.64192 76.5481H3.51709L30.7687 177.228C31.6508 180.488 33.2079 183.525 35.339 186.145C37.4702 188.764 40.1279 190.906 43.1399 192.433L90.7398 216.551C93.0133 217.702 95.53 218.291 98.0781 218.267C100.626 218.243 103.131 217.607 105.383 216.414L173.319 180.349C180.097 176.479 180.734 166.105 176.926 160.375Z" fill="#37474F"/>
<path d="M173.755 157.242L124.52 131.988L59.6931 165.369C61.8028 165.88 63.9375 166.305 66.0722 166.729C71.6399 167.853 77.3074 169.089 82.1635 172.06C87.0196 175.031 90.902 180.137 90.902 185.792L89.1668 199.162L90.6773 199.936C92.951 201.088 95.4685 201.676 98.0172 201.649C100.566 201.623 103.071 200.984 105.321 199.786L173.256 163.696C174.708 162.862 175.944 161.699 176.864 160.3C176.084 159.049 175.019 158.001 173.755 157.242Z" fill="#455A64"/>
<path opacity="0.1" d="M173.755 157.242L124.52 131.988L59.6931 165.369C61.8028 165.88 63.9375 166.305 66.0722 166.729C71.6399 167.853 77.3074 169.089 82.1635 172.06C87.0196 175.031 90.902 180.137 90.902 185.792L89.1668 199.162L90.6773 199.936C92.951 201.088 95.4685 201.676 98.0172 201.649C100.566 201.623 103.071 200.984 105.321 199.786L173.256 163.696C174.708 162.862 175.944 161.699 176.864 160.3C176.084 159.049 175.019 158.001 173.755 157.242Z" fill="black"/>
<path d="M166.59 115.01C166.59 115.01 127.067 126.632 116.656 116.371C103.66 103.612 109.103 71.4298 110.651 58.8339C112.199 46.238 110.651 37.5244 107.168 33.8668C103.685 30.2091 98.6418 24.7537 82.2759 31.5323C98.8416 40.0586 101.001 80.5678 95.7457 96.8339C108.716 110.179 107.83 130.877 108.079 140.526C108.079 140.526 141.847 148.765 159.474 158.453L166.59 115.01Z" fill="#455A64"/>
<path opacity="0.1" d="M166.59 115.01C166.59 115.01 127.067 126.632 116.656 116.371C103.66 103.612 109.103 71.4298 110.651 58.8339C112.199 46.238 110.651 37.5244 107.168 33.8668C103.685 30.2091 98.6418 24.7537 82.2759 31.5323C98.8416 40.0586 101.001 80.5678 95.7457 96.8339C108.716 110.179 107.83 130.877 108.079 140.526C108.079 140.526 141.847 148.765 159.474 158.453L166.59 115.01Z" fill="white"/>
<path d="M159.424 158.403L167.514 154.046C167.514 131.825 170.797 133.997 176.926 125.334C183.056 116.67 173.656 111.19 166.59 115.06C159.524 118.93 156.665 130.552 159.424 158.403Z" fill="#455A64"/>
<path opacity="0.2" d="M159.424 158.403L167.514 154.046C167.514 131.825 170.797 133.997 176.926 125.334C183.056 116.67 173.656 111.19 166.59 115.06C159.524 118.93 156.665 130.552 159.424 158.403Z" fill="white"/>
<path d="M82.226 31.5198C82.226 31.5198 37.9592 50.707 16.4126 61.3555L17.9855 69.2201L88.6051 37.1624C86.9377 34.8189 84.7555 32.8886 82.226 31.5198Z" fill="#455A64"/>
<path opacity="0.1" d="M82.226 31.5198C82.226 31.5198 37.9592 50.707 16.4126 61.3555L17.9855 69.2201L88.6051 37.1624C86.9377 34.8189 84.7555 32.8886 82.226 31.5198Z" fill="white"/>
<path d="M95.6957 96.8214C100.152 82.9397 99.2411 51.3937 88.5801 37.1625L17.9855 69.2452L34.1143 150.126L59.6931 165.369L108.03 140.501C107.78 130.864 108.666 110.166 95.6957 96.8214Z" fill="#455A64"/>
<path d="M51.9907 113.038C53.2391 112.338 54.1629 112.9 54.1754 114.286C54.1335 115.037 53.9149 115.768 53.5375 116.418C53.16 117.069 52.6344 117.622 52.0032 118.031C50.7549 118.718 49.8311 118.168 49.8311 116.783C49.8696 116.032 50.0854 115.302 50.4608 114.651C50.8362 114 51.3605 113.447 51.9907 113.038Z" fill="#455A64"/>
<path d="M62.9139 106.609C64.1622 105.922 65.0985 106.471 65.0985 107.857C65.057 108.607 64.8399 109.336 64.4648 109.987C64.0897 110.637 63.567 111.19 62.9388 111.602C61.6905 112.289 60.7667 111.739 60.7542 110.354C60.7976 109.604 61.0155 108.875 61.3905 108.225C61.7654 107.575 62.2871 107.021 62.9139 106.609Z" fill="#455A64"/>
<path d="M73.8495 100.192C75.0978 99.5053 76.0216 100.055 76.0216 101.44C75.9831 102.191 75.7673 102.921 75.3919 103.572C75.0165 104.223 74.4922 104.776 73.862 105.185C72.6136 105.884 71.6898 105.323 71.6898 103.937C71.7264 103.186 71.9413 102.455 72.3169 101.803C72.6925 101.152 73.2178 100.6 73.8495 100.192Z" fill="#455A64"/>
<path d="M84.7726 93.7755C86.021 93.0764 86.9447 93.6382 86.9447 95.0238C86.9082 95.7748 86.6933 96.5062 86.3177 97.1575C85.9421 97.8088 85.4167 98.3612 84.7851 98.7689C83.5367 99.4555 82.6129 98.9062 82.6129 97.5206C82.6485 96.7694 82.863 96.0376 83.2387 95.3862C83.6143 94.7347 84.1403 94.1825 84.7726 93.7755Z" fill="#455A64"/>
<g opacity="0.2">
<path d="M51.9907 113.038C53.2391 112.339 54.1629 112.9 54.1754 114.286C54.1335 115.037 53.9149 115.768 53.5375 116.419C53.16 117.069 52.6344 117.622 52.0032 118.031C50.7549 118.718 49.8311 118.168 49.8311 116.783C49.8696 116.032 50.0854 115.302 50.4608 114.651C50.8362 114 51.3605 113.447 51.9907 113.038Z" fill="white"/>
<path d="M62.9139 106.609C64.1622 105.922 65.0985 106.471 65.0985 107.857C65.057 108.607 64.8399 109.336 64.4648 109.987C64.0897 110.637 63.567 111.191 62.9388 111.602C61.6905 112.289 60.7667 111.739 60.7542 110.354C60.7976 109.604 61.0155 108.876 61.3905 108.225C61.7654 107.575 62.2871 107.022 62.9139 106.609Z" fill="white"/>
<path d="M73.8495 100.192C75.0978 99.5054 76.0216 100.055 76.0216 101.44C75.9831 102.191 75.7673 102.921 75.3919 103.572C75.0165 104.223 74.4922 104.776 73.862 105.185C72.6136 105.885 71.6898 105.323 71.6898 103.937C71.7264 103.186 71.9413 102.455 72.3169 101.803C72.6925 101.152 73.2178 100.6 73.8495 100.192Z" fill="white"/>
<path d="M84.7726 93.7755C86.021 93.0764 86.9447 93.6382 86.9447 95.0238C86.9082 95.7748 86.6933 96.5062 86.3177 97.1575C85.9421 97.8088 85.4167 98.3612 84.7851 98.7689C83.5367 99.4555 82.6129 98.9062 82.6129 97.5206C82.6485 96.7694 82.863 96.0376 83.2387 95.3862C83.6143 94.7347 84.1403 94.1825 84.7726 93.7755Z" fill="white"/>
</g>
<path d="M82.1635 172.035C77.3699 169.114 71.6399 167.865 66.1346 166.704C64 166.28 61.8653 165.856 59.7555 165.344C56.3196 164.587 52.9991 163.378 49.881 161.748C42.0788 157.429 36.8357 149.365 34.3265 140.801C31.8173 132.237 31.7549 123.162 32.2792 114.261C32.8035 105.36 33.9146 96.4594 33.6399 87.5336C33.4901 82.3529 32.7036 76.7978 29.1958 72.9778C25.6879 69.1578 19.7332 67.8096 14.4402 68.5212C12.6964 68.7846 10.9794 69.2023 9.30944 69.7695L6.96252 72.5034L7.86134 75.8365L30.8311 160.725C32.4307 166.608 36.1999 171.666 41.3797 174.881C41.9789 175.243 42.6281 175.605 43.2023 175.93L89.2917 199.262L91.0269 185.892C90.927 180.112 87.0072 175.018 82.1635 172.035Z" fill="#37474F"/>
<path d="M82.226 162.872C65.3731 158.066 48.8074 157.442 42.7155 145.333C36.6235 133.224 36.1741 116.52 39.2201 87.4587C39.6094 83.7177 39.5213 79.9423 38.9579 76.2235C37.1603 65.3503 30.6189 60.7064 23.0913 60.5941C15.6524 60.4674 8.44419 63.1766 2.93033 68.1716C1.85583 69.0586 1.00128 70.1824 0.433612 71.4548C0.158131 72.0944 0.0580258 72.7959 0.143595 73.487C0.229165 74.1781 0.497319 74.834 0.920471 75.3871C1.60652 76.0907 2.53524 76.506 3.51706 76.5481H3.64189C4.66283 76.5679 5.67984 76.416 6.65043 76.0987L7.79892 75.7491C9.85871 75.0875 11.8935 74.326 14.0407 73.8017C16.5189 73.0776 19.1525 73.0776 21.6307 73.8017C22.8123 74.2598 23.8691 74.9904 24.7151 75.9341C25.5611 76.8777 26.1724 78.0076 26.4993 79.2321C33.6025 102.451 24.6018 127.394 32.5913 146.581C39.1327 164.058 61.7279 171.248 77.6694 176.417C76.1172 175.806 74.7465 174.809 73.6872 173.52C72.8979 172.29 72.5318 170.835 72.6444 169.377C72.7571 167.92 73.3424 166.538 74.3114 165.444C75.3128 164.391 76.561 163.604 77.9429 163.155C79.3248 162.706 80.7969 162.609 82.226 162.872Z" fill="#455A64"/>
<path opacity="0.1" d="M82.226 162.872C65.3731 158.066 48.8074 157.442 42.7155 145.333C36.6235 133.224 36.1741 116.52 39.2201 87.4587C39.6094 83.7177 39.5213 79.9423 38.9579 76.2235C37.1603 65.3503 30.6189 60.7064 23.0913 60.5941C15.6524 60.4674 8.44419 63.1766 2.93033 68.1716C1.85583 69.0586 1.00128 70.1824 0.433612 71.4548C0.158131 72.0944 0.0580258 72.7959 0.143595 73.487C0.229165 74.1781 0.497319 74.834 0.920471 75.3871C1.60652 76.0907 2.53524 76.506 3.51706 76.5481H3.64189C4.66283 76.5679 5.67984 76.416 6.65043 76.0987L7.79892 75.7491C9.85871 75.0875 11.8935 74.326 14.0407 73.8017C16.5189 73.0776 19.1525 73.0776 21.6307 73.8017C22.8123 74.2598 23.8691 74.9904 24.7151 75.9341C25.5611 76.8777 26.1724 78.0076 26.4993 79.2321C33.6025 102.451 24.6018 127.394 32.5913 146.581C39.1327 164.058 61.7279 171.248 77.6694 176.417C76.1172 175.806 74.7465 174.809 73.6872 173.52C72.8979 172.29 72.5318 170.835 72.6444 169.377C72.7571 167.92 73.3424 166.538 74.3114 165.444C75.3128 164.391 76.561 163.604 77.9429 163.155C79.3248 162.706 80.7969 162.609 82.226 162.872Z" fill="white"/>
<path d="M93.9231 174.856C92.9441 172.101 91.4861 169.54 89.6162 167.291C87.7222 165.036 85.115 163.494 82.2259 162.922C80.7882 162.652 79.3056 162.746 77.914 163.198C76.5225 163.649 75.2666 164.443 74.2614 165.506C73.2924 166.601 72.7071 167.982 72.5945 169.44C72.4818 170.897 72.848 172.352 73.6373 173.583C74.6965 174.871 76.0672 175.868 77.6195 176.479C78.9004 177.017 80.1507 177.626 81.3646 178.302C84.5032 180.436 86.7644 183.632 87.7312 187.302C88.671 190.945 89.1656 194.688 89.2043 198.45V199.174L97.0939 194.805C97.4601 188.006 96.3793 181.207 93.9231 174.856Z" fill="#455A64"/>
<path opacity="0.2" d="M93.9231 174.856C92.9441 172.101 91.4861 169.54 89.6162 167.291C87.7222 165.036 85.115 163.494 82.2259 162.922C80.7882 162.652 79.3056 162.746 77.914 163.198C76.5225 163.649 75.2666 164.443 74.2614 165.506C73.2924 166.601 72.7071 167.982 72.5945 169.44C72.4818 170.897 72.848 172.352 73.6373 173.583C74.6965 174.871 76.0672 175.868 77.6195 176.479C78.9004 177.017 80.1507 177.626 81.3646 178.302C84.5032 180.436 86.7644 183.632 87.7312 187.302C88.671 190.945 89.1656 194.688 89.2043 198.45V199.174L97.0939 194.805C97.4601 188.006 96.3793 181.207 93.9231 174.856Z" fill="white"/>
<path d="M118.978 201.808C111.123 198.396 104.642 192.443 100.577 184.905C96.5696 177.415 94.5847 170.849 96.1077 162.51L157.14 138.492C159.025 156.643 175.728 168.552 175.728 168.552L118.978 201.808Z" fill="#37474F"/>
<path d="M185.565 273.439C185.565 278.357 185.403 285.548 185.403 285.548L182.107 285.735C180.547 285.821 179.046 286.364 177.792 287.296C176.538 288.228 175.585 289.509 175.054 290.978L174.979 291.178C174.709 291.929 174.16 292.547 173.446 292.903C172.732 293.258 171.908 293.325 171.146 293.088C170.739 292.959 170.361 292.749 170.037 292.47C169.713 292.191 169.449 291.849 169.261 291.465L167.688 275.361L185.565 273.439Z" fill="#8C5C5C"/>
<path d="M190.221 322.524C198.835 326.195 212.03 326.919 217.498 318.118V320.502C212.03 329.241 198.835 328.579 190.221 324.896C181.608 321.214 183.48 315.172 175.778 311.976C172.969 310.946 170.414 309.324 168.288 307.22C168.288 306.52 168.138 305.647 168.013 304.623C170.298 306.742 172.945 308.433 175.828 309.616C183.48 312.825 181.608 318.842 190.221 322.524Z" fill="#37474F"/>
<path d="M167.963 296.808C168.315 295.133 168.315 293.403 167.963 291.727C167.86 291.347 167.842 290.949 167.909 290.561C167.976 290.173 168.126 289.804 168.35 289.48L169.037 288.781L169.299 291.465C169.487 291.849 169.751 292.191 170.075 292.47C170.399 292.749 170.776 292.959 171.184 293.088C171.946 293.325 172.77 293.258 173.484 292.902C174.198 292.547 174.747 291.929 175.016 291.178L175.091 290.978C175.623 289.509 176.575 288.228 177.829 287.296C179.083 286.364 180.584 285.821 182.144 285.735L185.49 285.548C185.987 285.519 186.481 285.646 186.904 285.91C187.326 286.173 187.657 286.562 187.849 287.021C191.282 295.323 199.934 304.498 206.575 308.742C211.468 308.63 217.523 312.7 217.523 317.631V318.118C212.055 326.918 198.86 326.194 190.246 322.524C181.633 318.854 183.518 312.824 175.803 309.591C172.92 308.408 170.273 306.716 167.988 304.598C167.622 302.015 167.614 299.394 167.963 296.808Z" fill="#12C2E9"/>
<path d="M184.641 303.612C184.459 303.837 184.195 303.981 183.907 304.011C183.619 304.041 183.331 303.956 183.106 303.774C182.881 303.592 182.737 303.328 182.707 303.04C182.676 302.752 182.761 302.464 182.943 302.239C184.226 300.508 185.935 299.138 187.904 298.263C189.872 297.388 192.034 297.037 194.179 297.245C194.641 297.819 195.115 298.381 195.589 298.93C193.515 298.698 191.417 299.007 189.498 299.827C187.579 300.648 185.906 301.952 184.641 303.612Z" fill="white"/>
<path d="M181.246 299.804C181.155 299.914 181.044 300.005 180.918 300.071C180.792 300.138 180.655 300.179 180.513 300.192C180.371 300.204 180.228 300.189 180.093 300.146C179.957 300.103 179.831 300.034 179.723 299.942C179.612 299.855 179.52 299.748 179.451 299.625C179.383 299.503 179.339 299.368 179.323 299.229C179.307 299.09 179.318 298.949 179.357 298.814C179.395 298.679 179.46 298.553 179.548 298.444C180.906 296.665 182.699 295.264 184.753 294.377C186.808 293.49 189.056 293.145 191.282 293.375C191.694 293.987 192.131 294.624 192.531 295.21C188.361 294.911 184.604 295.71 181.246 299.804Z" fill="white"/>
<path d="M188.174 307.332C187.992 307.557 187.728 307.7 187.44 307.731C187.152 307.761 186.864 307.676 186.638 307.494C186.413 307.312 186.27 307.048 186.239 306.76C186.209 306.472 186.294 306.184 186.476 305.959C187.733 304.271 189.395 302.929 191.309 302.056C193.223 301.183 195.327 300.808 197.424 300.965C197.986 301.552 198.548 302.114 199.11 302.663C197.039 302.43 194.943 302.738 193.026 303.556C191.11 304.374 189.438 305.675 188.174 307.332Z" fill="white"/>
<path d="M206.55 308.743C211.443 308.63 217.498 312.7 217.498 317.631V318.118C212.105 326.781 199.234 326.207 190.621 322.674C191.282 310.84 202.642 308.705 206.55 308.743Z" fill="white"/>
<path d="M191.807 310.877C191.626 311.102 191.364 311.247 191.077 311.278C190.79 311.31 190.503 311.226 190.278 311.046C190.052 310.865 189.908 310.603 189.877 310.316C189.845 310.029 189.929 309.742 190.109 309.516C191.368 307.825 193.034 306.481 194.953 305.607C196.872 304.734 198.98 304.361 201.082 304.523C201.769 305.135 202.455 305.709 203.142 306.258C198.935 305.984 195.177 306.783 191.807 310.877Z" fill="white"/>
<path d="M159.936 243.441C160.623 254.327 163.407 262.166 165.529 277.059C165.529 277.059 178.562 280.942 186.688 275.274L187.025 252.417L159.936 243.441Z" fill="#37474F"/>
<path d="M231.767 256.798C232.853 261.567 235.037 267.909 235.037 267.909L231.742 268.096C230.182 268.183 228.682 268.727 227.428 269.659C226.174 270.591 225.221 271.87 224.688 273.339V273.539C224.416 274.291 223.865 274.909 223.149 275.264C222.433 275.62 221.607 275.686 220.844 275.449C220.436 275.322 220.06 275.112 219.738 274.833C219.416 274.554 219.155 274.211 218.971 273.826L213.978 260.831L231.767 256.798Z" fill="#8C5C5C"/>
<path d="M239.856 304.885C248.47 308.555 261.665 309.279 267.133 300.478V302.863C261.665 311.664 248.47 310.94 239.856 307.257C231.242 303.574 233.127 297.57 225.412 294.336C222.603 293.307 220.049 291.685 217.922 289.58C217.922 288.881 217.773 288.007 217.648 286.984C219.935 289.099 222.581 290.79 225.462 291.977C233.127 295.198 231.242 301.202 239.856 304.885Z" fill="#37474F"/>
<path d="M217.598 279.169C217.95 277.494 217.95 275.763 217.598 274.088C217.496 273.708 217.478 273.31 217.545 272.922C217.611 272.534 217.762 272.165 217.985 271.841L218.11 271.654L218.946 273.826C219.208 274.38 219.628 274.845 220.154 275.16C220.681 275.475 221.288 275.627 221.901 275.596C222.513 275.565 223.103 275.353 223.595 274.987C224.087 274.621 224.459 274.117 224.663 273.539V273.339C225.197 271.87 226.149 270.591 227.403 269.659C228.657 268.727 230.157 268.183 231.717 268.096L235.062 267.909C235.561 267.883 236.055 268.012 236.477 268.278C236.9 268.544 237.229 268.934 237.422 269.394C240.855 277.683 249.506 286.871 256.147 291.103C261.041 290.991 267.095 295.06 267.095 299.991V300.478C261.627 309.217 248.432 308.555 239.819 304.885C231.205 301.215 233.09 295.185 225.375 291.965C222.494 290.778 219.848 289.087 217.56 286.971C217.214 284.381 217.227 281.756 217.598 279.169Z" fill="#12C2E9"/>
<path d="M234.276 285.972C234.094 286.197 233.83 286.341 233.542 286.372C233.254 286.402 232.965 286.317 232.74 286.135C232.515 285.953 232.372 285.688 232.341 285.401C232.311 285.113 232.396 284.824 232.578 284.599C233.868 282.88 235.58 281.522 237.548 280.658C239.516 279.794 241.674 279.453 243.813 279.668C244.275 280.23 244.75 280.792 245.224 281.341C243.155 281.105 241.06 281.408 239.142 282.219C237.224 283.03 235.548 284.323 234.276 285.972Z" fill="white"/>
<path d="M230.918 282.177C230.736 282.403 230.472 282.546 230.184 282.577C229.896 282.607 229.607 282.522 229.382 282.34C229.157 282.158 229.014 281.894 228.983 281.606C228.953 281.318 229.038 281.029 229.22 280.804C230.579 279.026 232.372 277.627 234.426 276.739C236.481 275.852 238.728 275.507 240.955 275.736C241.366 276.348 241.803 276.984 242.203 277.571C238.008 277.271 234.251 278.07 230.918 282.177Z" fill="white"/>
<path d="M237.809 289.692C237.627 289.918 237.362 290.061 237.075 290.092C236.787 290.122 236.498 290.037 236.273 289.855C236.048 289.673 235.904 289.409 235.874 289.121C235.844 288.833 235.929 288.544 236.111 288.319C237.367 286.632 239.03 285.289 240.944 284.416C242.858 283.543 244.961 283.168 247.059 283.326C247.621 283.913 248.183 284.474 248.744 285.024C246.673 284.791 244.578 285.098 242.661 285.917C240.744 286.735 239.073 288.036 237.809 289.692Z" fill="white"/>
<path d="M256.184 291.103C261.078 290.991 267.133 295.061 267.133 299.992V300.478C261.74 309.154 248.869 308.568 240.255 305.035C240.905 293.2 252.277 291.066 256.184 291.103Z" fill="white"/>
<path d="M241.441 293.238C241.352 293.349 241.242 293.442 241.116 293.511C240.991 293.58 240.854 293.623 240.712 293.639C240.57 293.655 240.426 293.642 240.289 293.602C240.152 293.562 240.024 293.496 239.912 293.406C239.801 293.317 239.708 293.207 239.639 293.081C239.57 292.956 239.527 292.819 239.511 292.677C239.496 292.535 239.508 292.391 239.548 292.254C239.588 292.117 239.654 291.989 239.744 291.877C241.003 290.184 242.672 288.838 244.593 287.965C246.514 287.092 248.625 286.72 250.729 286.884C251.416 287.495 252.09 288.07 252.776 288.619C248.569 288.344 244.812 289.143 241.441 293.238Z" fill="white"/>
<path d="M201.631 231.219C204.128 241.83 208.223 249.133 212.866 263.402C212.866 263.402 226.374 265.037 233.414 258.059L227.347 220.796L201.631 231.219Z" fill="#37474F"/>
<path d="M168.388 104.049L184.079 116.795L194.416 100.017L181.408 85.349C169.96 90.4673 168.388 104.049 168.388 104.049Z" fill="#FF8B7B"/>
<path d="M145.368 60.7065C157.702 59.3208 158.838 62.0547 166.827 69.5948C174.817 77.1348 182.906 85.6237 182.906 85.6237C170.572 91.6532 169.174 106.309 169.174 106.309C162.458 101.103 156.778 96.9962 156.778 96.9962L145.368 60.7065Z" fill="#12C2E9"/>
<path opacity="0.3" d="M145.368 60.7065C157.702 59.3208 158.838 62.0547 166.827 69.5948C174.817 77.1348 182.906 85.6237 182.906 85.6237C170.572 91.6532 169.174 106.309 169.174 106.309C162.458 101.103 156.778 96.9962 156.778 96.9962L145.368 60.7065Z" fill="white"/>
<path d="M100.327 70.4936C117.804 62.2669 131.024 61.3057 145.368 60.694C166.827 74.5133 158.788 86.0231 158.426 104.474C158.064 122.925 154.044 134.072 166.827 153.26C138.702 175.73 103.161 168.627 94.6596 163.246C89.1793 112.164 90.7897 74.4384 100.327 70.4936Z" fill="#12C2E9"/>
<path opacity="0.7" d="M100.327 70.4936C117.804 62.2669 131.024 61.3057 145.368 60.694C166.827 74.5133 158.788 86.0231 158.426 104.474C158.064 122.925 154.044 134.072 166.827 153.26C138.702 175.73 103.161 168.627 94.6596 163.246C89.1793 112.164 90.7897 74.4384 100.327 70.4936Z" fill="white"/>
<path d="M107.518 33.6296C105.308 26.2268 105.782 17.713 110.214 11.3839C113.143 7.35433 117.246 4.32844 121.961 2.72028C126.654 1.11739 131.62 0.472156 136.567 0.822774C140.463 0.906664 144.296 1.83068 147.802 3.53171C149.911 4.65077 151.778 6.17507 153.296 8.01723C154.815 9.85938 155.954 11.9832 156.65 14.2667C157.346 16.5503 157.584 18.9488 157.351 21.3247C157.118 23.7005 156.419 26.007 155.292 28.1119C153.375 31.3525 150.873 34.2096 147.914 36.5383C142.237 41.4 135.997 45.5619 129.326 48.9344C127.666 49.7833 125.981 50.5823 124.271 51.3188C123.097 51.8306 120.9 53.2538 119.602 53.0041C118.303 52.7544 116.918 50.2952 116.131 49.259C114.995 47.8109 113.909 46.3254 112.898 44.8024C110.573 41.3581 108.761 37.5946 107.518 33.6296Z" fill="#263238"/>
<path d="M153.607 14.667C150.29 17.8621 145.902 19.7087 141.298 19.8477C136.979 19.8477 132.784 18.462 128.615 17.351C128.255 19.3763 127.252 21.232 125.756 22.644C124.088 24.0718 122.032 24.9713 119.851 25.2281C120.469 29.132 120.469 33.1087 119.851 37.0126C119.798 37.4232 119.631 37.8106 119.368 38.1306C119.106 38.4507 118.758 38.6905 118.366 38.8227C116.955 39.2347 116.019 37.7866 115.345 36.6256C114.613 35.2685 113.569 34.1048 112.299 33.2301C111.657 32.8012 110.92 32.5351 110.153 32.4546C109.385 32.3742 108.609 32.4818 107.892 32.7682C107.333 33.0578 106.838 33.4585 106.439 33.9457C106.04 34.4329 105.744 34.9965 105.57 35.6019C105.23 36.8211 105.17 38.1015 105.395 39.347C105.644 41.4403 106.484 43.4193 107.817 45.052C108.481 45.8646 109.305 46.5329 110.236 47.0159C111.168 47.4989 112.188 47.7864 113.235 47.8608C114.258 47.948 115.285 47.7532 116.205 47.2976C117.125 46.8421 117.903 46.1431 118.453 45.2767L118.541 45.6637C118.7 46.2809 118.892 46.8893 119.115 47.4863C120.039 49.9404 121.568 52.1211 123.561 53.8256C125.554 55.5302 127.945 56.7033 130.512 57.236C133.146 57.7852 136.08 58.322 139.076 58.7714C140.549 58.9962 142.022 59.2084 143.508 59.3831C146.217 59.7089 148.948 58.9847 151.139 57.3595C153.331 55.7343 154.817 53.3315 155.292 50.6446C157.265 39.2846 157.926 25.9521 153.607 14.667Z" fill="#FF8B7B"/>
<path d="M119.065 47.4364V67.2728C120.931 69.8117 123.324 71.9171 126.08 73.4448C128.836 74.9725 131.889 75.8863 135.031 76.1236C137.065 76.41 139.129 75.8805 140.774 74.6506C141.302 74.1721 141.713 73.5788 141.976 72.9164C142.238 72.254 142.345 71.5402 142.289 70.8299C142.232 70.1196 142.013 69.4318 141.649 68.8194C141.284 68.207 140.784 67.6865 140.187 67.2978C139.834 67.0672 139.543 66.7528 139.34 66.3825C139.138 66.0122 139.03 65.5976 139.026 65.1756V58.7216C136.03 58.2721 133.096 57.7353 130.462 57.1861C127.895 56.6534 125.504 55.4803 123.511 53.7757C121.518 52.0712 119.989 49.8905 119.065 47.4364Z" fill="#FF8B7B"/>
<path d="M132.298 61.5553C134.498 62.1248 136.739 62.5213 139.001 62.7412V58.7215C136.005 58.2721 133.072 57.7353 130.437 57.186C128.03 56.6775 125.777 55.6058 123.863 54.0586C121.949 52.5115 120.429 50.5331 119.427 48.2853C119.919 51.3921 121.317 54.2844 123.447 56.5993C125.896 59.0194 128.954 60.7319 132.298 61.5553Z" fill="#F96E5B"/>
<path d="M144.981 29.0606H142.409C139.836 27.3079 136.866 26.2246 133.769 25.9085C130.672 25.5924 127.544 26.0537 124.67 27.2505V29.9469L125.382 30.3339C125.772 32.0771 125.994 33.8538 126.043 35.6394C126.088 37.3975 126.787 39.0756 128.003 40.3458C129.414 41.5941 131.424 41.6815 133.284 41.7065C134.778 41.8359 136.282 41.618 137.678 41.0698C139.266 40.2131 140.464 38.7783 141.024 37.0626C141.648 35.3648 141.548 34.3911 142.272 32.3563C142.383 32.0771 142.576 31.8382 142.826 31.6711C143.075 31.5039 143.37 31.4164 143.67 31.42C143.959 31.42 144.24 31.5102 144.476 31.6781C144.711 31.846 144.887 32.0831 144.981 32.3563C145.717 34.3911 145.63 35.3648 146.229 37.0626C146.729 38.7467 147.849 40.1787 149.363 41.0698C150.658 41.6185 152.069 41.8373 153.47 41.7065C155.246 41.8908 157.026 41.4056 158.463 40.3458C159.609 39.0423 160.255 37.3745 160.286 35.6394C160.335 33.8559 160.544 32.0803 160.91 30.3339L161.572 29.9469V27.2505C158.893 26.0595 155.946 25.5996 153.032 25.9176C150.118 26.2355 147.34 27.32 144.981 29.0606ZM141.111 30.4463L141.011 31.4075C140.793 33.1519 140.374 34.8652 139.763 36.5133C139.313 37.886 138.364 39.0398 137.104 39.7465C136.105 40.1451 135.031 40.3198 133.958 40.2584H133.371C131.842 40.4089 130.307 40.0394 129.014 39.2097C128.06 38.1952 127.525 36.8574 127.516 35.4647C127.466 35.0153 127.429 34.5534 127.404 34.079C127.317 32.8306 127.404 29.9594 127.504 27.9121C128.967 27.5005 130.478 27.2905 131.998 27.2879C135.201 27.3061 138.336 28.2184 141.049 29.922C141.161 29.9969 141.111 30.4463 141.111 30.4463ZM159.05 34.054C159.05 34.5284 159.05 34.9903 158.95 35.4397C158.952 36.816 158.455 38.1465 157.552 39.1848C156.359 40.0089 154.912 40.3807 153.47 40.2334H152.92C151.912 40.2939 150.903 40.1187 149.974 39.7216C148.774 38.9863 147.885 37.8357 147.478 36.4883C146.873 34.8381 146.454 33.1256 146.229 31.3825L146.129 30.4213C146.129 30.4213 146.129 29.9719 146.229 29.872C148.73 28.1797 151.674 27.2634 154.693 27.238C156.118 27.2416 157.535 27.4519 158.9 27.8622C159.062 29.9345 159.137 32.7682 159.05 34.054Z" fill="#12C2E9"/>
<path d="M124.67 27.2505L110.239 32.4437C111.276 32.6391 112.247 33.0944 113.06 33.7669C113.223 33.9042 124.67 29.9469 124.67 29.9469V27.2505Z" fill="#12C2E9"/>
<path d="M143.67 31.6322L150.96 40.4581L144.282 42.8175L143.67 31.6322Z" fill="#F96E5B"/>
<path d="M133.384 32.7432C133.381 33.1412 133.497 33.5311 133.716 33.8632C133.936 34.1954 134.249 34.4549 134.616 34.609C134.983 34.763 135.387 34.8046 135.778 34.7285C136.169 34.6523 136.528 34.4619 136.81 34.1813C137.093 33.9007 137.285 33.5426 137.364 33.1524C137.442 32.7622 137.403 32.3574 137.252 31.9895C137.1 31.6215 136.842 31.3068 136.511 31.0854C136.181 30.864 135.792 30.7459 135.393 30.7458C134.863 30.7458 134.353 30.9559 133.977 31.3301C133.6 31.7043 133.387 32.2123 133.384 32.7432Z" fill="#263238"/>
<path d="M150.186 32.194C150.182 32.5925 150.295 32.9835 150.513 33.3173C150.731 33.6511 151.043 33.9126 151.41 34.0686C151.777 34.2245 152.181 34.2679 152.573 34.1932C152.964 34.1185 153.325 33.9291 153.608 33.649C153.892 33.3689 154.086 33.0109 154.166 32.6204C154.245 32.2298 154.207 31.8244 154.055 31.4557C153.904 31.087 153.647 30.7716 153.316 30.5497C152.984 30.3277 152.595 30.2091 152.196 30.2091C151.668 30.2091 151.16 30.4174 150.784 30.7889C150.408 31.1605 150.193 31.6653 150.186 32.194Z" fill="#263238"/>
<path d="M149.125 23.3181L154.493 23.9298C154.404 23.3545 154.14 22.8203 153.739 22.3987C153.337 21.977 152.817 21.6881 152.246 21.5704C151.615 21.541 150.988 21.6892 150.436 21.9981C149.884 22.307 149.43 22.7643 149.125 23.3181Z" fill="#263238"/>
<path d="M133.384 23.9299H138.777C138.623 24.4894 138.301 24.9882 137.854 25.3588C137.408 25.7294 136.858 25.954 136.28 26.0022C135.652 25.9602 135.049 25.7441 134.537 25.378C134.025 25.0119 133.626 24.5105 133.384 23.9299Z" fill="#263238"/>
<path d="M140.949 49.3589C142.01 49.3589 142.871 48.4981 142.871 47.4364C142.871 46.3746 142.01 45.5139 140.949 45.5139C139.887 45.5139 139.026 46.3746 139.026 47.4364C139.026 48.4981 139.887 49.3589 140.949 49.3589Z" fill="#734242"/>
<path d="M140.949 49.3589C142.01 49.3589 142.871 48.4981 142.871 47.4364C142.871 46.3746 142.01 45.5139 140.949 45.5139C139.887 45.5139 139.026 46.3746 139.026 47.4364C139.026 48.4981 139.887 49.3589 140.949 49.3589Z" fill="#F96E5B"/>
<path d="M155.642 74.6132L150.648 76.9351C150.402 77.0486 150.18 77.2106 149.998 77.4115C149.815 77.6124 149.675 77.848 149.585 78.1043C149.495 78.3606 149.458 78.6323 149.476 78.9033C149.493 79.1743 149.565 79.439 149.687 79.6815C149.882 80.071 150.198 80.3871 150.587 80.5828C150.976 80.7784 151.418 80.8433 151.847 80.7676L164.33 78.533L160.523 73.7019L155.642 74.6132Z" fill="#FF8B7B"/>
<path d="M166.802 79.0573L182.531 116.109C183.635 118.711 185.705 120.783 188.306 121.889C190.907 122.995 193.836 123.048 196.476 122.038C198.079 121.422 199.514 120.436 200.664 119.161C201.815 117.885 202.647 116.356 203.095 114.698C203.543 113.04 203.593 111.299 203.241 109.618C202.889 107.937 202.145 106.362 201.07 105.023L175.366 72.9903C174.476 71.888 173.438 70.9135 172.282 70.0941L164.443 64.5639C162.239 63.0047 159.69 62.0024 157.015 61.6427L153.195 58.8339C152.677 58.4579 152.074 58.2165 151.44 58.1315C150.806 58.0465 150.161 58.1206 149.562 58.3471L143.67 60.6191C144.043 61.4367 144.69 62.0979 145.5 62.4878C146.309 62.8778 147.23 62.9719 148.102 62.7538L150.449 62.1795L153.195 64.2019L149.625 69.1953C149.156 69.8493 148.959 70.6597 149.075 71.4559C149.192 72.2522 149.612 72.9722 150.249 73.4647L156.99 78.6453C157.294 78.8794 157.65 79.0376 158.028 79.1071C158.406 79.1765 158.794 79.1552 159.162 79.0448C159.736 78.8678 160.223 78.483 160.528 77.9658C160.832 77.4485 160.933 76.8361 160.81 76.2485C161.57 77.0935 162.492 77.7774 163.522 78.2599C164.551 78.7423 165.666 79.0135 166.802 79.0573Z" fill="#FF8B7B"/>
<path d="M153.195 64.2518C153.9 63.4342 154.746 62.7493 155.692 62.2295L150.96 62.579L153.195 64.2518Z" fill="#FF8B7B"/>
<path d="M365.441 154.558V266.997L361.458 264.7V152.261L365.441 154.558Z" fill="#455A64"/>
<path d="M365.441 154.558V266.997L369.41 264.7V152.261L365.441 154.558Z" fill="#37474F"/>
<path d="M361.458 184.543L268.406 130.814V126.545L361.458 180.274V184.543Z" fill="#455A64"/>
<path d="M361.458 175.755L272.388 124.248L268.406 126.545L361.458 180.274V175.755Z" fill="#37474F"/>
<path d="M84.5729 204.792V317.231L80.6031 314.922V202.495L84.5729 204.792Z" fill="#455A64"/>
<path d="M84.5729 204.792V317.231L88.5551 314.922V202.495L84.5729 204.792Z" fill="#37474F"/>
<path d="M181.608 260.83V373.27L177.638 370.96V258.533L181.608 260.83Z" fill="#455A64"/>
<path d="M181.608 260.83V373.27L185.59 370.96V258.533L181.608 260.83Z" fill="#37474F"/>
<path d="M177.638 290.816L84.5729 237.087V232.817L177.638 286.534V290.816Z" fill="#455A64"/>
<path d="M177.638 282.028L88.5551 230.521L84.5729 232.817L177.638 286.534V282.028Z" fill="#37474F"/>
<g opacity="0.2">
<path d="M84.5729 204.792V317.231L80.6031 314.922V202.495L84.5729 204.792Z" fill="white"/>
<path d="M84.5728 204.792V317.231L88.5551 314.922V202.495L84.5728 204.792Z" fill="white"/>
<path d="M181.608 260.83V373.27L177.638 370.96V258.533L181.608 260.83Z" fill="white"/>
<path d="M181.608 260.83V373.27L185.59 370.96V258.533L181.608 260.83Z" fill="white"/>
<path d="M177.638 290.816L84.5728 237.087V232.817L177.638 286.534V290.816Z" fill="white"/>
<path d="M177.638 282.027L88.5551 230.52L84.5728 232.817L177.638 286.534V282.027Z" fill="white"/>
</g>
<g opacity="0.2">
<path d="M365.441 154.558V266.997L361.458 264.7V152.261L365.441 154.558Z" fill="white"/>
<path d="M365.441 154.558V266.997L369.41 264.7V152.261L365.441 154.558Z" fill="white"/>
<path d="M361.458 184.543L268.406 130.814V126.545L361.458 180.274V184.543Z" fill="white"/>
<path d="M361.458 175.755L272.388 124.248L268.406 126.545L361.458 180.274V175.755Z" fill="white"/>
</g>
<path d="M181.608 249.97L369.423 141.725L268.418 83.3892L80.6031 191.634L181.608 249.97Z" fill="url(#paint0_radial_3_199)"/>
<path d="M181.608 260.831L369.423 152.261V141.725L181.608 249.97V260.831Z" fill="#12C2E9"/>
<path d="M181.608 249.957L80.6031 191.622V202.495L181.608 260.83V249.957Z" fill="#12C2E9"/>
<path opacity="0.1" d="M181.608 249.957L80.6031 191.622V202.495L181.608 260.83V249.957Z" fill="url(#paint1_linear_3_199)"/>
<path opacity="0.2" d="M181.608 260.831L369.423 152.261V141.725L181.608 249.97V260.831Z" fill="url(#paint2_linear_3_199)"/>
<path d="M258.993 109.143L274.048 142.074L313.372 135.982L298.304 103.051L258.993 109.143Z" fill="#E6E6E6"/>
<path d="M244.225 115.522L278.268 143.285L311.449 129.603L277.419 101.852L244.225 115.522Z" fill="#F0F0F0"/>
<path d="M237.259 106.246L216.874 126.657L267.782 143.672L288.192 123.249L237.259 106.246Z" fill="white"/>
<path d="M267.582 161.861L226.386 137.917C225.076 137.247 223.626 136.897 222.154 136.897C220.683 136.897 219.232 137.247 217.922 137.917L149.937 177.166C149.475 177.38 149.073 177.705 148.768 178.112C148.463 178.52 148.264 178.997 148.189 179.5V182.109C148.185 182.29 148.206 182.471 148.252 182.646C148.246 182.666 148.246 182.688 148.252 182.708C148.319 182.913 148.416 183.106 148.539 183.283C148.685 183.49 148.857 183.679 149.05 183.844C149.283 184.052 149.539 184.232 149.812 184.381L191.008 208.337C191.405 208.553 191.824 208.729 192.256 208.861L192.706 208.999L193.305 209.149L194.041 209.273H194.216C194.553 209.293 194.89 209.293 195.227 209.273H195.377C195.714 209.273 196.051 209.273 196.376 209.273H196.525C196.849 209.239 197.17 209.184 197.487 209.111H197.662C197.941 209.039 198.216 208.951 198.485 208.849H198.635C198.95 208.733 199.255 208.591 199.547 208.425L267.545 169.164C267.818 169.008 268.077 168.829 268.318 168.627L268.506 168.415C268.633 168.288 268.754 168.155 268.868 168.015C268.921 167.936 268.967 167.853 269.005 167.766C269.075 167.64 269.138 167.511 269.192 167.379C269.204 167.283 269.204 167.187 269.192 167.091C269.204 166.967 269.204 166.841 269.192 166.717V164.295C269.155 163.785 268.987 163.294 268.705 162.868C268.423 162.441 268.036 162.095 267.582 161.861Z" fill="#455A64"/>
<path d="M263.562 164.308L197.512 202.445C197.428 202.494 197.34 202.535 197.25 202.57H197.1C196.933 202.633 196.762 202.683 196.588 202.72C196.469 202.752 196.348 202.777 196.226 202.794H195.976C195.76 202.81 195.543 202.81 195.327 202.794H195.265C195.04 202.81 194.815 202.81 194.591 202.794L194.166 202.72C194.066 202.72 193.629 202.582 193.629 202.582C193.629 202.582 193.317 202.47 193.167 202.395L171.945 190.036L240.181 150.638L263.562 164.308Z" fill="#37474F"/>
<path d="M200.72 153.821L213.141 161.137C213.333 161.246 213.493 161.404 213.604 161.594C213.715 161.785 213.774 162.002 213.774 162.223C213.774 162.444 213.715 162.661 213.604 162.851C213.493 163.042 213.333 163.2 213.141 163.309L194.553 174.032C194.239 174.217 193.881 174.314 193.517 174.314C193.153 174.314 192.795 174.217 192.481 174.032L179.997 166.729C179.805 166.621 179.645 166.463 179.534 166.272C179.423 166.081 179.364 165.864 179.364 165.643C179.364 165.423 179.423 165.206 179.534 165.015C179.645 164.824 179.805 164.666 179.997 164.557L198.573 153.821C198.898 153.629 199.269 153.528 199.646 153.528C200.024 153.528 200.395 153.629 200.72 153.821Z" fill="#37474F"/>
<path d="M278.68 113.861L277.057 113.05C276.768 112.924 276.453 112.868 276.138 112.887C275.824 112.907 275.518 113.001 275.247 113.162L206.775 152.972C205.713 153.589 204.803 154.434 204.11 155.447C203.416 156.46 202.958 157.615 202.767 158.827L195.727 203.581C195.657 204.018 195.732 204.467 195.939 204.858C196.146 205.25 196.474 205.564 196.875 205.753L198.46 206.564C198.746 206.675 199.053 206.719 199.358 206.693C199.663 206.667 199.958 206.572 200.221 206.415L268.668 166.617C269.73 165.998 270.64 165.15 271.333 164.135C272.026 163.12 272.485 161.964 272.675 160.75L279.716 115.996C279.788 115.577 279.727 115.145 279.541 114.762C279.355 114.379 279.054 114.064 278.68 113.861Z" fill="#455A64"/>
<path d="M241.354 154.808C239.618 155.896 238.121 157.323 236.951 159.005C235.782 160.687 234.965 162.589 234.55 164.595C234.114 168.09 236.411 169.388 239.731 167.478C241.466 166.392 242.963 164.964 244.13 163.281C245.298 161.599 246.111 159.697 246.522 157.691C246.972 154.196 244.65 152.885 241.354 154.808Z" fill="url(#paint3_radial_3_199)"/>
<path opacity="0.3" d="M197.125 204.28L204.165 159.514C204.351 158.3 204.807 157.143 205.501 156.129C206.195 155.116 207.108 154.271 208.173 153.659L276.633 113.849C276.942 113.664 277.296 113.567 277.656 113.567C278.017 113.567 278.37 113.664 278.68 113.849L277.057 113.038C276.768 112.911 276.453 112.855 276.138 112.875C275.824 112.894 275.518 112.989 275.247 113.15L206.775 152.96C205.713 153.576 204.803 154.422 204.11 155.435C203.416 156.448 202.958 157.602 202.767 158.815L195.727 203.568C195.657 204.006 195.732 204.454 195.939 204.846C196.146 205.238 196.474 205.551 196.875 205.741L198.46 206.564C198.003 206.403 197.618 206.085 197.374 205.667C197.129 205.249 197.041 204.757 197.125 204.28Z" fill="black"/>
<path d="M117.692 118.555L122.897 141.762L159.025 156.63C161.212 157.533 163.582 157.905 165.941 157.716L179.847 156.568C181.481 156.431 183.115 156.816 184.516 157.666L192.481 162.497C193.287 162.975 194.005 163.587 194.603 164.307L198.498 168.926C198.759 169.234 198.953 169.593 199.069 169.979C199.184 170.366 199.217 170.773 199.167 171.173C199.116 171.573 198.983 171.959 198.775 172.305C198.568 172.651 198.291 172.95 197.961 173.183L195.464 174.943C194.17 175.868 192.647 176.422 191.061 176.545C189.475 176.669 187.886 176.356 186.464 175.643L180.297 172.534L170.198 174.357C165.625 175.182 160.908 174.406 156.84 172.16L154.768 170.986L110.688 161.686C107.865 161.087 105.27 159.693 103.211 157.67C101.153 155.646 99.7144 153.077 99.0663 150.263L93.1865 124.585L117.692 118.555Z" fill="#FF8B7B"/>
<path d="M100.327 70.4935C79.3173 78.3457 84.0985 97.0211 91.8508 126.595C104.334 130.053 119.152 119.179 119.152 119.179C115.033 95.8102 113.485 70.144 100.327 70.4935Z" fill="#12C2E9"/>
<path opacity="0.3" d="M100.327 70.4935C79.3173 78.3457 84.0985 97.0211 91.8508 126.595C104.334 130.053 119.152 119.179 119.152 119.179C115.033 95.8102 113.485 70.144 100.327 70.4935Z" fill="white"/>
<defs>
<radialGradient id="paint0_radial_3_199" cx="0" cy="0" r="1" gradientUnits="userSpaceOnUse" gradientTransform="translate(99.1891 -5.20158) rotate(50.0922) scale(426.428 10193.3)">
<stop offset="0.147531" stop-color="#FF00E5"/>
<stop offset="1" stop-color="#00D1FF"/>
</radialGradient>
<linearGradient id="paint1_linear_3_199" x1="102.254" y1="175.578" x2="171.973" y2="177.705" gradientUnits="userSpaceOnUse">
<stop stop-color="#00E0FF"/>
<stop offset="1" stop-color="#FF00B8" stop-opacity="0.88"/>
</linearGradient>
<linearGradient id="paint2_linear_3_199" x1="221.866" y1="114.114" x2="351.488" y2="118.388" gradientUnits="userSpaceOnUse">
<stop stop-color="#00E0FF"/>
<stop offset="1" stop-color="#FF00B8" stop-opacity="0.88"/>
</linearGradient>
<radialGradient id="paint3_radial_3_199" cx="0" cy="0" r="1" gradientUnits="userSpaceOnUse" gradientTransform="translate(241.5 159.5) rotate(117.646) scale(11.8533 9.91696)">
<stop offset="0.369792" stop-color="#E05BE2" stop-opacity="0.56"/>
<stop offset="1" stop-color="#00D1FF"/>
</radialGradient>
</defs>
</svg>
